<mxfile host="65bd71144e" pages="4">
    <diagram id="d7PGE_RHYHekpUhMQi11" name="Pipeline">
        <mxGraphModel dx="696" dy="473" grid="1" gridSize="10" guides="1" tooltips="1" connect="1" arrows="1" fold="1" page="1" pageScale="1" pageWidth="850" pageHeight="1100" background="#ffffff" math="0" shadow="0">
            <root>
                <mxCell id="0"/>
                <mxCell id="1" parent="0"/>
                <mxCell id="bOwzalCgTgJMlXmcAW9U-3" value="&lt;div align=&quot;left&quot;&gt;&lt;b&gt;&lt;font style=&quot;font-size: 11px;&quot;&gt;&amp;nbsp; Development &lt;/font&gt;&lt;/b&gt;&lt;br&gt;&lt;/div&gt;&lt;div align=&quot;left&quot;&gt;&lt;b&gt;&lt;font style=&quot;font-size: 11px;&quot;&gt;&amp;nbsp; Machine&lt;/font&gt;&lt;/b&gt;&lt;/div&gt;" style="rounded=0;whiteSpace=wrap;html=1;align=left;verticalAlign=top;shadow=1;" parent="1" vertex="1">
                    <mxGeometry x="97.59" y="760" width="172.81" height="230" as="geometry"/>
                </mxCell>
                <mxCell id="T4yp0sZZJBqy6boNkic5-11" style="edgeStyle=orthogonalEdgeStyle;rounded=0;orthogonalLoop=1;jettySize=auto;html=1;" parent="1" target="bOwzalCgTgJMlXmcAW9U-7" edge="1">
                    <mxGeometry relative="1" as="geometry">
                        <mxPoint x="180" y="590" as="targetPoint"/>
                    </mxGeometry>
                </mxCell>
                <mxCell id="Rm6uRgKbICZrB_GlCouL-17" style="edgeStyle=orthogonalEdgeStyle;rounded=0;orthogonalLoop=1;jettySize=auto;html=1;entryX=0;entryY=0.5;entryDx=0;entryDy=0;" parent="1" source="bOwzalCgTgJMlXmcAW9U-5" edge="1">
                    <mxGeometry relative="1" as="geometry">
                        <Array as="points">
                            <mxPoint x="40" y="500"/>
                        </Array>
                    </mxGeometry>
                </mxCell>
                <mxCell id="Rm6uRgKbICZrB_GlCouL-19" style="edgeStyle=orthogonalEdgeStyle;rounded=0;orthogonalLoop=1;jettySize=auto;html=1;" parent="1" source="bOwzalCgTgJMlXmcAW9U-5" target="SVfGcrombo2FbrhHBhek-33" edge="1">
                    <mxGeometry relative="1" as="geometry">
                        <Array as="points">
                            <mxPoint x="20" y="875"/>
                            <mxPoint x="20" y="311"/>
                            <mxPoint x="760" y="311"/>
                        </Array>
                        <mxPoint x="20" y="857.6599999999999" as="sourcePoint"/>
                        <mxPoint x="690" y="410" as="targetPoint"/>
                    </mxGeometry>
                </mxCell>
                <mxCell id="WxSYuuznqqIj9oOgkVCh-49" value="Register" style="edgeLabel;html=1;align=center;verticalAlign=middle;resizable=0;points=[];" parent="Rm6uRgKbICZrB_GlCouL-19" vertex="1" connectable="0">
                    <mxGeometry x="0.2713" y="4" relative="1" as="geometry">
                        <mxPoint x="89" y="4" as="offset"/>
                    </mxGeometry>
                </mxCell>
                <mxCell id="T4yp0sZZJBqy6boNkic5-10" style="edgeStyle=orthogonalEdgeStyle;rounded=0;orthogonalLoop=1;jettySize=auto;html=1;" parent="1" source="bOwzalCgTgJMlXmcAW9U-5" edge="1">
                    <mxGeometry relative="1" as="geometry">
                        <Array as="points">
                            <mxPoint x="50" y="1028"/>
                        </Array>
                    </mxGeometry>
                </mxCell>
                <mxCell id="zOHwF1zZphQyOIIBqBRI-21" style="edgeStyle=orthogonalEdgeStyle;rounded=0;orthogonalLoop=1;jettySize=auto;html=1;" parent="1" source="bOwzalCgTgJMlXmcAW9U-5" target="bOwzalCgTgJMlXmcAW9U-3" edge="1">
                    <mxGeometry relative="1" as="geometry"/>
                </mxCell>
                <mxCell id="WxSYuuznqqIj9oOgkVCh-50" style="edgeStyle=orthogonalEdgeStyle;html=1;entryX=0;entryY=0.5;entryDx=0;entryDy=0;strokeColor=#000000;rounded=0;" parent="1" source="bOwzalCgTgJMlXmcAW9U-5" target="bOwzalCgTgJMlXmcAW9U-7" edge="1">
                    <mxGeometry relative="1" as="geometry">
                        <Array as="points">
                            <mxPoint x="20" y="875"/>
                            <mxPoint x="20" y="453"/>
                        </Array>
                    </mxGeometry>
                </mxCell>
                <mxCell id="WxSYuuznqqIj9oOgkVCh-51" value="Register&lt;br&gt;&amp;amp;&lt;br&gt;Config" style="edgeLabel;html=1;align=center;verticalAlign=middle;resizable=0;points=[];" parent="WxSYuuznqqIj9oOgkVCh-50" vertex="1" connectable="0">
                    <mxGeometry x="0.9087" y="-2" relative="1" as="geometry">
                        <mxPoint x="-16" y="-2" as="offset"/>
                    </mxGeometry>
                </mxCell>
                <mxCell id="bOwzalCgTgJMlXmcAW9U-5" value="&lt;div&gt;&lt;br&gt;&lt;/div&gt;&lt;div&gt;&lt;br&gt;&lt;/div&gt;&lt;div&gt;&lt;br&gt;&lt;/div&gt;&lt;div&gt;&lt;br&gt;&lt;/div&gt;&lt;div&gt;Devs&lt;br&gt;&lt;/div&gt;" style="shape=actor;whiteSpace=wrap;html=1;fillColor=#dae8fc;strokeColor=#6c8ebf;shadow=1;" parent="1" vertex="1">
                    <mxGeometry x="40" y="857.66" width="20" height="34.67" as="geometry"/>
                </mxCell>
                <mxCell id="bOwzalCgTgJMlXmcAW9U-13" value="&lt;div&gt;&lt;br&gt;&lt;/div&gt;&lt;div&gt;&lt;br&gt;&lt;/div&gt;&lt;div&gt;&lt;br&gt;&lt;/div&gt;&lt;div&gt;Users&lt;br&gt;&lt;/div&gt;" style="shape=actor;whiteSpace=wrap;html=1;fillColor=#e1d5e7;strokeColor=#9673a6;shadow=1;" parent="1" vertex="1">
                    <mxGeometry x="810" y="1050" width="20" height="30" as="geometry"/>
                </mxCell>
                <mxCell id="Rm6uRgKbICZrB_GlCouL-6" style="edgeStyle=orthogonalEdgeStyle;rounded=0;orthogonalLoop=1;jettySize=auto;html=1;entryX=0.5;entryY=1;entryDx=0;entryDy=0;" parent="1" source="bOwzalCgTgJMlXmcAW9U-3" edge="1">
                    <mxGeometry relative="1" as="geometry"/>
                </mxCell>
                <mxCell id="Rm6uRgKbICZrB_GlCouL-7" value="&lt;div&gt;Push&lt;/div&gt;&lt;div&gt;&amp;amp;&lt;br&gt;&lt;/div&gt;&lt;div&gt;Pull&lt;br&gt;&lt;/div&gt;" style="edgeLabel;html=1;align=center;verticalAlign=middle;resizable=0;points=[];" parent="Rm6uRgKbICZrB_GlCouL-6" connectable="0" vertex="1">
                    <mxGeometry x="0.1185" y="3" relative="1" as="geometry">
                        <mxPoint x="-20" as="offset"/>
                    </mxGeometry>
                </mxCell>
                <mxCell id="Rm6uRgKbICZrB_GlCouL-30" style="edgeStyle=orthogonalEdgeStyle;rounded=0;orthogonalLoop=1;jettySize=auto;html=1;" parent="1" source="bOwzalCgTgJMlXmcAW9U-3" target="bOwzalCgTgJMlXmcAW9U-7" edge="1">
                    <mxGeometry relative="1" as="geometry"/>
                </mxCell>
                <mxCell id="T4yp0sZZJBqy6boNkic5-27" value="Push &amp;amp; Pull" style="edgeLabel;html=1;align=center;verticalAlign=middle;resizable=0;points=[];" parent="Rm6uRgKbICZrB_GlCouL-30" vertex="1" connectable="0">
                    <mxGeometry x="-0.1889" y="-2" relative="1" as="geometry">
                        <mxPoint x="-36" y="-20" as="offset"/>
                    </mxGeometry>
                </mxCell>
                <mxCell id="SVfGcrombo2FbrhHBhek-36" value="" style="group;shadow=0;" parent="1" connectable="0" vertex="1">
                    <mxGeometry x="690" y="410" width="130" height="66.71" as="geometry"/>
                </mxCell>
                <mxCell id="SVfGcrombo2FbrhHBhek-33" value="" style="rounded=0;whiteSpace=wrap;html=1;align=left;verticalAlign=top;shadow=1;" parent="SVfGcrombo2FbrhHBhek-36" vertex="1">
                    <mxGeometry width="130" height="60" as="geometry"/>
                </mxCell>
                <mxCell id="5" value="" style="shape=image;verticalLabelPosition=bottom;labelBackgroundColor=default;verticalAlign=top;aspect=fixed;imageAspect=0;image=data:image/png,iVBORw0KGgoAAAANSUhEUgAAArwAAACuCAMAAADj5S7IAAAM5HpUWHRSYXcgcHJvZmlsZSB0eXBlIGV4aWYAAHjarZlpkhs5Dkb/8xRzBBLcj0MCZETfYI4/DylV2WVXz3RHj2QpValMLgC+BXI4//7jhn/xyGmUUGofbbYWeZRZpiw+jPh6zOc9xfK8P4+tUd5nv5wP67xvEk5ljvn1Z1+vY1qcrz9u+Jgj7a/nw3h/I+M9UPoc+Hlkn9k/28+L5Ly8zqfyHmi+V9Tm6F+28B5I3xc+S3m/yueyXgf/O3w50YmSVSbKIienHJ/38VpBfr0Wr8q75MR1MU8+1xzDc/jYEgH5sr2PY4w/B+hLkD8+hV+jn+/3wZf1viL/Esv2jhEfvv0i1V/O58/55cvEnyuSX76Ycf+2nffrXhv3ntfuVmlEtL0r6gl2+hiGCxmk5Oe2xrPzqnzuz3PyHHFFJeUWlQk3n2cSsnJDKsnSSjed56hJWWKRI52jiJIcPzdylylKllIu/kxXOhmzPMifygk5c1o+15Keeeczn6bBzJa4VBKDJW7502f4b1/+nWe4Vz1EyYNJ6tMrweJ1zTI8c/7OVSQk3Xfe6hPgj+c7/fGnwvJSLVzmYR5scMX9GmLX9KO28pPnzHWV4wtCKXR7D0CImLuymJTJQGwp19RS7CI9JeI4SNBi5ZKLbDKQahVjkVJybhK6DPG5uaen51qp0sRPw00kouaWO7kBUySrlEr99DKooVVzLbXWVnsdoc66Wm6l1dZab05yq+deeu2t9z767GvkUUYdbfQxxhxrysxwYJ1t9jnmnGtJWEy0GGtx/eLMlp132XW33ffYcy+lfLRo1aZdh05dJpYNmrBm3YZNWyeFA1Occuppp59x5lmXWrv5lltvu/2OO+/6zNo7q789/0bW0jtr8mTKr+ufWeNs6P1jiOR0Uj1nZExKIuPdM0BBi+csjlSKeOY8Z3EKoKjCIqvnJljyjJHCcpLUmz5z9yNzfylvoY6/lDf5X5kLnrr/R+YCqfs9b99kzVzn9MnYC4Ue04eYuWbJCLxi5O19ZDFa2FBPLa9UWUNd++icOe1yYjon77S03NjOrotZNxeX2cPNqddCukqDg4jobamSAc3stkxr5ZbSslBew4iznaNHn4nX6bl9LCL8tJp/dPx+ICWC6x7VM3efrd9mu49z6hJZKZ0aV0mSxyFBZ0LFp3iM5tRJNdhs7Pruwn252rWZOzHOSgpz63b07kp9tkgC72GTdx5IGsPRZwxdt2m8dkzz6vtQrYCw2yo78n7V9tmF7+ve8ty2qsw7B2JuZ6AklFIaLVzK0i9VnTiLcq+X683tMAwDbVurDtKxKJJOSVTLKNs8lVN6lpe3WlcNFncGGXlSgSflZRTPFcq57pHutj24XVnnTieyn5baOWcTAWunSNO0s55YQtTT2bpcELJFKxWvE9BR6Ic1xzXvmWUb4M5nHwRKDBToTm1aZwXGpR2IyFrxtaGjhNfY5WK2cgC8WVvGgsrNwm2lJzS6kqfOkODJF9DuyUAwBfCuzCyKOIMyEHoo1WimlKYaqR/Zo0Txbm37WoHxSxmpE4KFDPTie7qBRUteew49my/RdDBLHYFb2esWlIFg5vZ4xl4bFuCsRVXkti7wlcU6tReIDYfRFqqDXq6a6im7pSO4gVh2rwg31dlFx4FGgMiKI99V2Zjm02A7Yi37hNYsbTJV9HaIgGjDb6M3uGb1nteNF/oxNiXLRgduTDvyMY7tQnaKbdhb2ZpRNdl6qkUKEWvjprLgR3Pzo/FEipLiAfO54GHaHVyhM+21Yc910M6pI2BbaoIVrsxKgHNtxSZmUymk2eEthbgBUNvKyEoGCwzEWt3/XHBigzXJCnmLVcdAqYMYMlgV4koQl+m4ijofMgbVcRXE3gf3stq9C0KB15AyNSYLZ0NZcBl+V/cBZ6XZhazTQ456xlA0/BJnPw5lMU0uAa1eLpQcNVZKmmG3NXtT+Ase21Uh9zOJZDmAligpFe6WMenIisgTNAQRp5bqKpQm1M3etgXHMx7PFQpVAC0D0qFm10GlgIsJkDCWTAukJ8GfIIs49LmcrcgxNYzghJlKF4K6iO3VBU+D364LTao3e8CMqrwUWD0mdxmYYE4BspInjKEJLE0NcDVMYUOK4XvIB2iZtA5nRoo3Uwx9VQoYPoEJqbkKUSrY0AiTl6g3PhQWGlpzJpvPA6MEvCntloktcCtQYslYDRFnhuRhQBDvQaUXlDD3bNBR2WvsgE6yi6bVrf7W16ZR3KFIm7aT5sIATWpte8fFEqYQSSS5jb2J44C3KTv6tfQY4HlwfnZQ/TosWU0UQs7dDJKBQ0BNJxwDd4HhmAkkGHEE5ywMDdyBek2r9EiYL44c+kK0jeI8C9wfkTnJ/EGjOS29ULCG+sNYk9C1R99UN60oDv5CBLBM56zT+WFWKPA60juUd33Y0hUIU8bd2pgIzWFjddMs5oUs1ZChJ6zAnc0gCSdjgxQzuMQiUCkwI75GbT1zX3yK/qSBSBL8NOA7VgSREUxyvR3n0jqbpNUYVjPut2TQigzSXjZWjpEDH6DxzooATugE00GNh1kpgGwDQkcxECFRhbTSxUOd3qAPnA4AQdPsAL9kBlYgzykHJ0UE4K/djFYUT7CFqrQmWKgDTGlJjzM08cA5keqFZD8AgmcajStiTZfNLI6ktZHeGiqm3EVwKktY/SoZR6HdFik6XbBMOJ0MqVlH/wFRvjjUmNnvTR3Hs7Ct7QYQSJ8G1V8R2BragYXmwgbmPaZzMKvDMQJysnUyYtIiroxFJc4L/MzMcwVWixZv8CEMhapNIGDkQY4ljdSGqNV5I+hDKCgB6sc91nLYCx83tmSM4CLuGKJn3BuKhYhShg3OQDuc0KlHOAtOwDAL93fbgJ/loTmre1BZcm3BagRKEalh4J0H3lAv+CZXXd0OXFLC6ogMXLsjWSFWjRtKpkMitKWmfFbAGqhbBZAOVVjDLeaDRcEBPWg/HtnINC5DuN4+tlVkfGPbJ3RR4ROyrmF6Vtz/bBiYFrzevW/FKcA/pOzgt5iFEF9KlLJXdH/CoNrWpi6oQDrjJjmQPAzGTBB1Bran7QYiEC30cDIK4DieosbU8L6Hu8JeQAMg+8rwUTm2Fg5/eLeSQXx8poNUCwrQyDkpnRyePObBK49XGqFOqGG6LuPvENAb6sbhYKUiRl5hB4zDoUuh9pAa4Fga4mmjuoyVSa2hjViwV8+/EM4GIm6Hs3HdgKsnvnXruNEKFBfg46tMHxrGfALIUe/xa4obXbxfQSizEit4K55AIApwxXt4+8L+d2FiwwTgvOikcINOV8AXm9b4R7tFJeAsIOy9uZ3umUEDFhWyhENQOlZDDwOWb6TU8IpY21S0UFOXOoRA1duIfDF94hlTrjI6vJ6ACFVGUzXFu7UOOSSA2yA/qhDkPPbE1bBB8cm1FqHEcEAmCA/WiiGxB9AImkfacITkpOKViB6ljpsUMrndEJFARASl9NZw72nwF/ywMYHuInFtDY8TOlFBQ+AVkENdL3wTqBw9F3W5GCQ77ujsk+EXyANHjv6A28MJWguuoZ8L2DKdFAmED19dBWT4FjA8MefML75MSfSAGYnC/7US09gdsEfEK1FsJ1+rgWaQjpley87TpexaBdIUismksAn6KjzMnXGCN6kJYzwVosCukUiaY0XWMezY2J0qlabPz0ZD3bXiBAELXOiGvQHnhSYJfTvebCNE4q6rPZSNdkMMegLWdNKFYt5od+kAaUrhfEKMA4gNxCmkWGgfrxDgBlc3TpiZL4zBx17dHVCgfU/tUvk4DHe9BR9PGtppbR9jb0igbK9JbAYgxLXAqZgbVeErslTduqTHaIn3oCSKQqP7KZtmDJlDkS65iaSG7oI+vKPaOOveCCOVvii7gaum7UDaAtlAppSKH/77RIdmIHr8yaGhwm6qV9yAoZwbUX2WyRKwM00cwXhyiAOPGgD59javZKYmEuBnZd/v3qMh1XRuGB3LwjKfU7irhFji4cxnpGJRvdICezAPyYmbTMIso3IvXQ/tBKRwaduWeSxAMqYO6qBp4yrtUI2XTCTWkCDWL9GpYUZ45oE2uwpNF2xqQKAKOmTbCfoE6fXdp09x4kPsI8YWgsH0hIwHMw8UeHYzPP03CHe6iAwwHh2VxwrAKnS3BJhByuN1WCTIg5gahOMCKZhbhmfhinebNCilTy0ZYswVMvZwoKUr+vB+3bVI1QP8gRE3lyYIToK3B8Vdh8CxVMxSb+CZBkNBH0gJAzygC4n47ylsX6L3GgLMEo1OT+MMDEGIQoX4zxPSDlYp+y88/neMxQU7D9xofZ3IaSLp/h8LJb2vkYk1yVAtXbZ3ltFJAsUsNQJtTHRMWMj0jEC0EN/Tvv9BQ92WDDxxeO71zoxeuvqQPhxHZBZVizH8B77VjCpKTRhKAAABhGlDQ1BJQ0MgcHJvZmlsZQAAKJF9kT1Iw0AcxV9bS0UqDlYQEclQnSxIFXHUKhShQqgVWnUwufQLmjQkKS6OgmvBwY/FqoOLs64OroIg+AHi5Oik6CIl/i8ptIjx4Lgf7+497t4B/kaFqWbXBKBqlpFOJoRsblUIvSKIAYQQx4jETH1OFFPwHF/38PH1LsazvM/9OXqVvMkAn0A8y3TDIt4gnt60dM77xBFWkhTic+Jxgy5I/Mh12eU3zkWH/TwzYmTS88QRYqHYwXIHs5KhEk8RRxVVo3x/1mWF8xZntVJjrXvyF4bz2soy12kOI4lFLEGEABk1lFGBhRitGikm0rSf8PAPOX6RXDK5ymDkWEAVKiTHD/4Hv7s1C5NxNymcAIIvtv0xCoR2gWbdtr+Pbbt5AgSegSut7a82gJlP0uttLXoE9G0DF9dtTd4DLneAwSddMiRHCtD0FwrA+xl9Uw7ovwV61tzeWvs4fQAy1FXqBjg4BMaKlL3u8e7uzt7+PdPq7weEcnKup9xKTQAAAwBQTFRF////Rpf0Up/1/v7/+Pv+/v///P3/RZb0n8r4/f7/6vP99fr+WaH19vr+5/H+n8n5/f3/5fH+8ff+TZv0R5j06/T+dbP3SJj0+fz/+/z/3+39SZn0wd38ps/6qdD66PL98/j+wt38rdP6wdz80eX8u9r77PT+5fH9aK327vX+R5j1Spr1Tp311Oj9U5/1rtL7utr7yeL81Of8wNz7gbn4n8r63ez9X6X18ff/+fz+9vr/9fn/1uj9qtD5zeP83u382er96PP+4e79nsj5ocv5tdf77vb+vNr78Pb+iL34hLr4R5f0WKH1xN783u39+fv/yuH86vT+t9j7m8j5xt/8zOL84u794u/9q9D6yOH8jcD4ir/4Zqr2i773zOP8s9X6wNv7lMP58/j/ps76oMv4osz5UJ712+v9WqL1erX3xN/8stT69/r/pc35+/3/Rpf1/P7/Tpz1udj7UJ317PX+2On9sNP6rNH60ub8gbj4q9H64/D9utn7TJr1VZ/1XKT2rtL65/L9X6f2oMv6brH2pM360OT83Ov9j8H4VaD1Xqb2Spr0sdT66PL+2ur8xd/8tNb7a633WaP2SZn1Y6n2b7H2p8/6pMz6Zan2YKj2eLX31+j9ib74aa32o8z4z+X8VaH1dbL3crL3e7X3vdv7UZ31osz6hrz4lcX5ksP5vtv7x+D8l8X5jcH4mMb5cK/3U6D1grv49/r/mcf5fLf3r9T6r9P5TZz1WKP2erb3ttf6ps75aav3VqD14+/+i7/4Yqf29Pn/qM/59/v/hLz4pc343Oz8T5z1V6H1TJz1ksL56fP9Z6r2gLj46vP+oMr5fbf38Pf+Up71+fz/kMH5bq73Z6z2y+L7d7P3frn4cbH3ncn5h734W6P2ba73ba/3Up31wt76kML4XKX2gbr4ZKr2crD3zuT8uNj7g7r4nsr5Rpb0YKb2dbT3qM/65fD+wd379Pr/w9775PH+jMD55PD+6/T9vtz75vH9oMv5ps74V6H2UaD16fL96fL+TZz08qnAAwAAAAFiS0dEAIgFHUgAAAAJcEhZcwAACxMAAAsTAQCanBgAAAAHdElNRQfkBRUHMjVQql0+AAAgAElEQVR42u2de1hTV7r/E3OBNCa04ZKU9IcBAxgxzAQ8sVCkIYZEQBgVGC4iERUoRXYRCImiFXnOKIqVSxltrVLwcqDIgD74VAUcCRwPVdGCj45UWzstbaVV+zie0452pp1fINnJzs7eITHc7Kzvf2z2Ze2Vz37Xu9Z617sIBCAgICAgICAgICAgICAgICAgICAgICAgICAgICAgICAgICAgICAgICAgICAgICAgICAgICAgICAgICAgICAgICAgICAgICAgIKBfg7T+UpRe4IBaAXomlH62q99M72z6AdQK0DOhh2eITuZ6Jw7UCtCzAe8wG8ALBOAFAgLwAgEBeIEAvEBAAF4gIAAvEBCAFwjACwQE4AUCAvACAXiBgGasgutR7Dp1A3iBng0JUweOmCmnfA6oFaBnQgJ+oshMyzWhoFaAplEkGgktAoGCPkijEAiQloeSlgbqD2j60CX7q1CSymkUd/TBbCaVwBNLUEfFZFCDQNMmqqC5tcVMTaWaFyk7UAdbnjTTCeKedtTRHgGoQaBpU4j0+gJz/ctD2UsqRR3cOPylnJDw9SzU0RtSUINA0wdv3Gr0+NchNYPWgz6YFVUE1rABzXh4q0sZtMXog7MOChyYpIB6OaBrB/RswitPYq4F9AI9i/DSRs56lHqCBCVAzx68oaqDFQE3WmJ5oLqBnjF4ST/c7h69w8DxCOA6AD1b8NKP13J157pdmxcphyigyoGeHXhJe5sKx04mVtzIm/MiqHKgZwZeEq+gC76son9fHATqHOhZgZfq2fK26YKAYjnwe4GeFXjJyjbEVewbxSzg9gJNKrw9EwYv70+zEJPKxIs5wa+AWgeaUst7YgxeN9TR/nHhhUo8UF/BybjfTWD5IQZ96kcwOOReMGwyE+BNupRlrr4HVb2k32QdMztYuPuSnFA5L9D81MK2caPKln7RZQ4vcbc6acJKT9vw815+Em9qScoPLQl7LyIU+O7TrnxtmLe55oaXUAme3nPNDya8xyFcXY4+dfna8e7/w5NtKGvt2hY7Yeyu2HN905GodaqpXI3EecErdeDK6sifwbjJ9ItEQ4syugwILRLWwfGtz87Gcyh4YypkgvyJKbr7yrbTRCd2923PKQRJmpx20Yno1rBnxo2bUBhFJUn+As6ktkMUTtELSX+eQydNOaZUlHScUiwP6spFsjhIw72ehnG9UcI/FqLdZ6eB1ydm9RBth8fpsRvWH2VNXS1Gnhnrtrr1Z8+wSCNKflLs5s5ikZw6mU+huqcU5y0++nvO1Dr9G/ZubkLpaAlH4Is69oFa8yIlvOkD84O3FX8jiNehT10nIESMxKNPzUawuaOswgLe3a3aiXF5vD/TD38EyjynygqSoEynsdET4iLFDFsDRZYG99TJMn2CH0/mU0qO+2TK6n7yVU3tp8uKHahHqUVITmpCHzw7Qqblog/WtsgJos9rUEcbSgji8lrUwa9f55m+ypTAGAt4K474TQhrnC0b9Tcs/DJoquDN17Ya3mL25pKZBS/r+Obbzs7O638STqZV5KvX6x7ifOEhb0q9pkFFG9FcMavukuNWow6ODZUl60yL2cHA1QLCF8Ns1Kn9noSwrwLRpypM8ObHujpZqm0nY0KakgIY3tX8qapJSNBkeIlz62bYAr6iqjrnMaW8PIm18br+Gc4jl6GphfcGCqJ7q8LJjs6whX11DXUw0NcEL+SNBW+37y8QxyjI3Eu2w/Ka4H1/6uDNmKnw+m02cBX73KTVBg16eFv/EGUJ59cObz4mvIHR+4s7XeJb2uNdZPtLFYnZfk/1FZMBvEhdXWyA99GcyYOXMzfeAG/Svym83I9qv67JevuN+QEX/1lf2/Bpq9o76DHZbvO7AcA79fAGw/BKyb92eKG5WPBaiNjXpn7MAfACeGcSvISUPqIt9LKv1Q6Uiu2c5gU+L4B3UuENr2E72aY3qpckDtpV68DnBfBOKrxBny+wEV4n9qxPxXZ13IDbAOCdVHjFq/5hK7xOF0/+Lw3AC+CdMfBG+HTbyi4xrdO+EAUAL4B3UuGl89tshZdbHvQ7AC+Ad+bASxj8xO2ebYZ3QZWdM20A3n8neNtQw1bEVXcZmPCSMOH9wgJeQ2wDCl4FEl6yT7WbTfD+NUNl5wuBobJ/H3jXJmxahFJ7ELmkfbf5sW0LC8gUJergcHX7UkLi4W7U0ZwSgjjjEPrUSiS8tOymBbaY3sK2RJ6dLwSGyv594GX8T3E7SsH+kKAZday1OCiEwkcf3B/MIHh6xaOOeskJl5v/q9X84BPEThUkSOu/v96WeYrqvCJrUxTUEAadx2LxtAwO1Q63AQphaHksHo9BDrFj9QYJItNHL9MyyOh5E5vgJYVoeXQI1wcijb0Mj6elkyES7kvTyLpiUxH/JnF6dVfpXobeixnz+KuGl8YQbEdpkEOCXkYfFGhJBB4TdTBiMJ8Q6j4HdXTFiwTOYAT61A1w3VEonO2VrYe4Nji8ARlMK9PDFBrrVU1Kc1Xklsp0sYBEodgEL4X0vLtkR6WiamXw8qAkHs3W+bt8xg9BicEjyi2PRGGXyeaX2QSv1tO7QLQd530oJPKKvXcrfSM7XhIFJZHz8Uq1VtJ8NNy0KoJCoPsHpRyNrFp5NEHjz8F4mV8dvNReBkJktPCP2nYQ71QtT+7H9BSmFHg1DZRttYHd+v8TEfB+RZpfWHCxS3njlZxvvhk6cjI1PlnBd88fF16O/13f5PbU6IGGbxpyNjVe/4/i2L1Lx/1VaXRxStX+jKhNObrLTi2Mavk+UpREtgteskpZfmRoYXyiHKuTqSvV962roweGvvnmyMLGS7LchGweho2mipXnDwxF71fpI5954tjc/RmjVdDWMDTQmLG/OMUiJNECXgqZJ/Dbvt1dPsjAbXagpb/MkY8TVUIWbH+LpW8isODl8OTPPS7x3+4u4IVO5Mo2qj//0TQo1ru5ILL0vy6d+ssCJ1tcBvaZ/+bjrUPuvapamXH4xFinbyzW3cnt4rzzuUFMnlV4tSV3N0fNu6g7neg0dpVTwJmhdoVEbs1eUCB5dqzLqbIAp7HLxsp+8d0r6xKlLMhWeMm/3G1NG33kgtU3LUy61n95cuO8BU6mUr0xfDZ+TbYA7WPQ/LyqR0854SKhETgCsbfLgTPzDTVAHPvaTyUHySF8eHVOh4ApFqaLKitT7vIlJT/yNuRbkpXf68+vrOT/2eo6fp40PDZB83MoFrwhdLm7VPeU2ODgWNFd4c635DzORAH8ym8aXI9Nh/r6+lxdK9gxNk6tRe/EXbmSpP48sIJt/gnEcP+a1q4h/M4KvJr27kKu+eOJ7K1vHii4bNXsHj35piv6Yeyti86LeLbCW6Lud43Re0LlFmALP6h1tSxV4JGVf0O9fuiOA2OnscvyOARmx9nZ6FIR2ccO+5pnzjKDl8NMHOm5UJcp0ykzM7MnMiUu1LKKQ0uq6nQndEis5A4g7fhQd85PyiQseOWq4NJO/VN0z6nLUyv4/hO1woL3sc3zW9OnPo88jRab3d4In8auQoyhNuK/7l/Zp8l1xYaXJ7x9qtsVw+bH7Ko+33EVpw2lXX6Y2rYM63vjbmuID6fbAC/Hb+X5ro3wgxcOIttjSn6685HdGD7UPWL9jSjf7Wa/Oauq2tAXWFXSfL16F0Z0U0zgJ78lY8P7mLWzssCnU+Zs1PpOn8hHKne0f7A9uGf0v50F7rimt9ffd3R1kawuvYiGgpeeFB6s7Mlcb3qMs+z74gKRmDch/LIy/jHDySXO6ooa2Y5T/FBJ8V9w3Q72cMv1Cix4afLwln/iPjDgltITM/Qyv2TkCv6IdM315VfHg5c0KFQeRsQhnfJDwEKR88u34ddDTpUUSZZfHmx1qtUHsnCuyTrPw4RXEaTpyLvtjFamMjFJa74sPjtPD3heHK7by+OXjt3q9hYx1Qxe8Zzshz3rLR5z2/nCFg2zdwLglR9cMIO5davoy9r9yR6pFjvRAI3Hb8mqwIWXyM7qu4cBL+S+JroQ31+JqaiJF2PsmUwuyax2xXfQ3QI/rxrMtwZvPpnZHGVW3k8R+3dBRc2H6614URVpTySIX9xddh/+2AK34l1GPDKICe9i5f+TOWNI1lkVJjcbpggzsFcXhjvGLk8wLI1ThkFIeD8Mf7Snbj3WY9bL9initI7nlZFHB8xceN2yqhs7j4uLQnA8fNbr0a8RrfX37sH/NIP3OZ+Ga1avYm+Lft8ycYSqvNbqoo+YipwqhjV4efwPqpGTjTG1XqYBFMhd/flGqz2AirLzIggDXvwe7z3uJ9jwyuqccVSnFpkt+hUaSKwT4sP7BQxvkBm8dZv3ZeI9xrkzku/4ynh59PwZZ28L2xoahk5tOnhpyfcjiVL89oV3t3GXjfdEwrtdcXjjeEUILOejnkuSLLGImkdTExglp+DCC+3tiDK7w9bq/WGm27sXt413e+LsSxoIA1781yj7mI4JrxW5FB9nkrHgZY0L7x5zeJ1vW3uOTLlD4OgODvJNMw7eBX/0USjmJtzNfosHQVYicciaplkIB7fws/tp1W13qvu7P8tiE3HhpZEVA6Y+EZF7bVttv+6yrrT7y/pMho/4z9vZZn0KzgqXMtNN3frOLervutNWfah2+M2tpuNtTCo2vCSOnzA+jXgPucS0YZ/U+AjK4KNDXNN9uIHburuq29qq0+5/FIBws8uaSnrx4XXrW3Y/7dAd3cu8s6h+IzumYnZqOmc8eNfL6urqzHyIn47PMU3b2QTvYmx4zVity8u7YOZEyBbzBRTHcp8INr0x0+Dt3/ejIVmD9ckC/9ZjiGb24mGZSCrg8ZaWhHeeDcC3vIywb99AMFT/lZrPXMrj+Xl6t3+OqAq3M00vI2s2Qt2P+CDmz8tQiN1ZPN5VVeSq3abjN5I4Ot8VA15KhPqdQDPLeqI1G9Fu0lIakH2PEydLNXN0txe86t0yjHhuzCI1fEv3Jxbwzj8U7y32Y/FYV1UjH1RfdDrxgYZMsQ7v7dtPekr3qPOc4xFmMu8uPFVDIdkEr9c48N6+7byvuCpSufnJbcRjZD38ENKvzPKyo4W2TCtS6HkmnNy6VxcnigUb8kdzFMo90zuud5n344zwQnFRxh59zOk7LQX8pLFBcyp5RXbl5mgTEG53lKZMY6S13v/ZZyxgzZV1j1RvhY52IqG1j4N8428YPNl/DbjTMOClUCOOflkdgPjSiMNRuRJkn1CTYeqrFR66FPl+ydikB43hLnnJ+Ui9cfp8a1qkAXk0vG7DjepKyY+h+aORETymKmXLymDVIIVgDd4LxQ/fV4ml0ridQSlbvExmcQ9/LWXi4JWV+oqEYs+kEmmc5O7DPRdMRr8jiPfr6rARa2Q2vZF2ZzXR2FzeWRJk5twRwvIajhGx4C0qCISPs5flqOPMfl26qKnLWB3HhsKMrTpNlWH8xl3fKa80m9bN9//NprF8fsTqdXSMDhuFlV2VcxrJ2bXqlptas3iAzG5jazD7ipckBHn/x8HInmJUEBnLbXDtaro57m4I5vDK1Ir3mXR9BYTIxQnKTuO/OuB8IY7DK+vpEMUZl83SmXyFj9FJqatyLKmOPOr0DDO8JxNseqFsl89g3I95NEeE0FBzAcfPzoqxhJcm+gp2eLmzD95FZUyncX4/Ug27sDHncucYDW9pLex5BlR7vUrON58yfoV/+91dWbvezRudO0LBSyKveNhY44pwpytqFq5hkpHlpXsegD2WtwMz+Kj5U4jxQ2a1MZNm9xI/igW8xNOfK/17aXbBm1nMZ3IgwzWkfE6oOLgHxsqrUk6xw+e1Aq/sw9gSLWQcfaNRe935uUbj25Pi54jjMJgaOLPgDUi2JY8WhaIYhm1k34NKy4SzNBY/6qIFvPmDPcboy22pQq1FzXGuHm2AMeUeCIaPBq12NVjGe0O5TEuvhl6SqFRH3vQPoVjAy3m/qW0XcmqD25AcNmg+wSR1LjOG9LdqLAfpIKZPtXGnuiE+3QLei9XN7jaktEDCK4uULDW3Eht+Fqnhf/p4btBXs4Pw1hVr5L8zLxjEEhf8BD+nODvEoRm2j2YUu67VibYM/0H+8fBIEtdj5ctYeJO9PzENOhjgJd9thP3dgFXpHMwANZ82g4cQs8CFrjexa/fB7vXW2lJ/7AIVPS6CLKaHk3rFW86brS7pe+e8bwlqbpSW+BfYof6sXIPZ+Eu90uDhvUWdTAt4b/issCsYXYdNlZCFrmgqM3axwfbmJUZMhM97YY/GMkUxKVSsuGBwsDMrHdltmudSNqPgXfQHm3LakoNPGfs+6rWYczUk3t+3bUXBu3T/O0T4IwnGjt6F/L837qwVbQiav3wKNuKftYtxA4pJ6MCcN2Ua4cdliBGwe9zAhj/EoZt3Ek8JOw2ujSjf3cg3Mx6eDd44JETBG5P1xLZc5yZ41/doWJbUUH8fnAdPFEvsgBd3qKxU9ArGb0OhZisvwKO9QQ5EOWjV1TOquzb0Z5vWB2v318LNaNN7eG6TtHURCt4VJ40UKph4997xALaD3xSM9cw4O+fB9/lP8bgOuQnewPLUhnNm42P1SzR0ix8rfy+cjdrpTi4Dp/HnRDQagyhSaObwboxKtO3HNsHbeTQC8yliH9gkhjs+SeEsq8QJj6bvhJOtZn7hgN/AUByYSfB2rVtriwdPcl+dBYdzBb+M26oEeZjDy1HdMpjBBTmeuNmrIyJhI7c7Y8xHcN9iaJ1iur8bJNgOb0Xt7izk+Niik7+RYCAAPYRbEacWCd6EPylfXWsYMMsqdacg4XV7TbHCXng/zMbeN8EvoccwNOvNozoKb2ZkNs4c2vPyhz1wCuofn36DDPLNxpkUiPOlxKZX4YiHDJfsyrGyyJHywUUiEt7B4DTDZbUudPyb/5BjMJenGzzHBjZal8FD0IkhdsCLGkbpakrZgPm8ZMO3QZyvTnoORz/KfQcM42WuGUH5SHgLv/k9wV54C3jYXwnZs9gAb4F+FMsReDvD5bjYSZSG5yh3Pn18GUfy5cyBt2L3iG1pIHmxcIKJ/nVXrZxXDHfS9fBuz4P9iJxYfO+EwvqgBh6XChstDv+UwcwHLLlMe1p4iW+qxWTMq8nxBl+GfbExD18ZDQbLW3EkmIqEd3frVXvh7UnB8X6eF4zIDFCpem0ebcCGd72PFNcS0eRzn+jPUt98+okKqvt3Mwfef8TvtK3URZH9hks8+NbePXw1FwEvJan1NcNlq1+wQiFjD5zD57X0UQ81pVo/Fu5Wk2uDlcCzvH04WSdIr2QQ4RDO2d342gZvPMNti+Qg4b2j4NkLb5UQr5uk9dZPVdzO5TMctLydvu5WWvx0wxBFT/DSp4aXxlHbtIhsSiJyhvg2/gwRm2G3dOFz1hpyzyVbkfCKU+sN7XMr3VprlLIJhtd7tECxZfohZfY8BfT08LLTvEqwLqfKy+2rJm5aKYSEd4hPthdehSeeTWQsLzV4xfo5QAfgXSyyklgOUlUZotwLHNnvy/ef3JnBLvuQ16CNZWbK4Pa/kWytIV+RjFwGRNl7Uj8jQ7zoYm3QgCOEcwQtGxHo/IY1htgC7oNY6tPD60S843UVo7Cckig762l4nZnlzbF5d08jvHNL8DqGZP4e/SnJlY7CWyq0spkeVdqsh7dO6ecAvCKPwhnB7r2LGT/Y2vFMaoHnhldZ942VZvC+d0D/qm671lmDF5JegqcZSpk6eBWGmJqKhTcdgdeJeydSjtV32WRniP4JFzN4r7jT7IX34Xa8S8hBkfrAr8XBPAfh3WNtO7J8ZqzMMJl31QF4JU3nZgS8b1+JtbnfWdJuG7ws4wLML4Wj8OYc0w95zcq0Cm+cEd7iOTp4my/q4d16RWQ3vOxFN24Zp0qO5TRbDmqFZEfba3n/YAbvty8T7IXXe87kwfviQ8Mlua9agZd6uVIP73q1I/A+Llg0I5yGmkiBzTOFj53huMbGfGsXucNuQ1arZNRt+GqWIRbyiVV4VamGu3/UMZphqvmEfswi4EClnfAS+/ozSov7jVE1AdGxHHR5Q5LsdBsC2kbMfN5v19oN76Px4e1BwRtk4/QwhQTvw2Yd3jkJBni9HIGXnt01E4Z4tzVl2x5gFJFs7LAVWcNQ+rHB6gXu9yQRKK+mwo1Me6g1n1f0LRyeGDz6k8XurjA0+2vs67Bx6wcUJayfM7vgqQpiQDQfnf0m3z3V5DoRxxe7XiamTRm8YTC8Glx4BXOR8BIICYaHFKuswVsSbPB5i90dgJcmGJgBC4izolV2bNjqV2UaKrP2091dbTB6gWqmDl5p02zDZalWh8qU38CjDaJRyFPm6YfKYs7kcuyBt6Jfpimi6vomLmXGsLKPvtWg3pOihZ0U4nwbdOKOy1hNTRG8Ejg8bAfuhINAsc8MXpFh2aWPtZ+GKvbVw3sh0pEOG4HxpHba7S43x9eesGSWcZKiy8fahxt5yzBJUb9lNECVmQd7G0duWnkcrwU+bZFmtFe+4+wxw0oJFz97JimOrRLq03dpmoyRZcRjTRrUZojkeENwJ/Ftj/I/jaPU1j3ZDMLUwSs25G3ITMFt3S/DUTYGeMN79PERPY/kVlo3TbFhqOyoI0NlulZyYPqn1lbS7VmLRw4bMgxOLzvpiR8BQW06YThtWDQKq3wL/Jn2d+IP40C/DBmCIrnV2WPW55IhbJQdtYNjB7xv5hmmrqmSg8tg23tvQTsqeyKncxiGN/Ll0PHEMTjNUwSvp1pvR2VHk/AmJH/YJzODN6jUMI6gZOLPYtITDPFri2NZjsBLKsqYbnhriv3tK7I7HGnO3ZaIO0TP8DwC93H+KNH3xGCDvTGnCNeG+h19By7WqhfGTEvHMByY84RhB7ymBZgbJN/OMq1fy3jBPCfqGjg2irjE0+ZPeIrgTarKM8z17sW5IlQCr78wwBvna/AbvLJD8V4H2u4LR01qtASHTG9p2dvTOsK7KCPOzlSupjBk1/a9uANqLvDvW1Ou/ziYX128Z4jw8sXLIEUIOgnvoXHHZ6xJYwi74KHoU5INTwMvhV7ZaIzrdevOS0KOWuSrmuCaaFPanAJ0suAVmsN7+fV9cHg6dpIQSkSCszm8KxIvwOGO/njwMu76GAJzqpJCHIKXlt64cTod3nPXhfZGJG9Q5MCR2F8rtThBo7Fw4l9idZXe/Rr8rhsOMztbiR0DRJP/Bg5Fc7qi0c8iFx2AJyGHk/9Megp4CRTaS3cK4TWW3LJIpANJkhfDaX/cGrNDZxa8LAkceesrxaKMwgnbg4K3V2JYySlL3kHGphdiRsI5exQOJs6h+EWemUZ2F5SHa+1NPgFJjQHcFVeCWRiXk8iixgB4pdAmQ5Yv+utX4OWVARkqrMBv2mAu3MkjEpvW6i0k77taw2DX1ncj5Vgzq7QQBoOsX82IkzHHT3T4X3BL43poc+jziPpPGYa/ss/+lI2VypUCkRlk8xHiKYKX45cLR6LFyrEmt696Z6LgpZXsMRySbRFjZ2ZgwmHD671EjhleXYci7NT0TREHRot4didOIYWM1MBD/+eil2PE8/S+fx0eF3PqlhnWXlOLMhfAZrW2JRvDV9H+NgeuCvatLYaVQhx+NAw02yMSY/0MRS7KTV4pHLQCbz6v4LDRT6rwGEH2saXt24yzZ01CjIkQjmdz8cj7ZjZqinxeSujfDT2r9cUaHsa3bly0aYSXIE+BI807my+TsRq3dC+DnyzzjXM4Y9mK0v7pCi0LvBIrf5oiq0wrR8+lfsGkodtuUfl9ONLQKcq01rLyAewBsO+78FG2hAKVHD0Fpz9zC1wHD2SQXk5eFGNcQjbi2Wv+sVF5YcWNd2pvXRqzTXi5ymjP+VQbk0IEHn6IeGtW2JBxyfK2Vj46eS3Hv/J2TtfhVEUEwuibko5MKrwEKEgJr6aMlLBQu7tARUGmLAxGeMm/V8IHv09IYqAfxXG/C9/S2YvPojgKLySNdp0WdGM2XgkmP9XSfd57xt3biFs9cuWhVJJpiIx8tflAljG5yMVIUzdozp5zxpU5WasrXzbtHEQgQfTH+2rhNe5OrtVBRlZe3JFqrB/umXU76RAiUxNHwD94kU0kuhGvPCJbyRJJY+aWwalLiBUDlabsDKQX22vg0sbUnwx/C7EbCoXKSFL3c+cT53OHgxHu1RRZXp1HXplpzBES1IvcXYAECXaoEfkmYXgJ2uNexmVszXEMKvIHpr3ITDHmh8gs+LPjKf4pa0unZx1m1iqsJt8W5bNcTDnd+97ZVGXKfgwlbVnd/1cjo+eQUeBQ9qlA0+KGG9cfmcYiGSr1pkVcY+aa7tIi08/EazalDHNbdCQTkfBTntL+zZv6f9ansqylOIWSvExFvhYlQsQhaVKNGXncAqtXF2w3UsqJK43u1rvEC67zaVMOL4EjMdrRuuJYT0QgNG9vsBqZxNQIL+eHo98Z0/YpjyO3m6G68wt6jImlvN7TEhwXtLeJOPWOA/Gz86LBpy0yVXhpmXFpLrHicEay4vhdofD9lObSlgOITCqzFvKRz+C9dMq0GJ1dfyU+N1jEFwrDEwp6yu+Ymp+YsiZPZFeiRFZrqp+LaavzViaka4Sa9NiOj79dZLSnQwKKtczovTvbTZOZ287zTb8cL/hAH2KRsUd87kPd7XUvo0jOuAG3IRUeCurUw0vwSzcufcv8SXFX/LhoUMta+mOJJH2k0ywpmRFeUqikyuhNrFcH88WP/eQs3qBgjmfQI0SyMnVlEXUC4KVQXiqbcsch5qPyHQ7kqqKlfHvMLKZy962vUlP/+8G7Fcjvo+LAiNkPRSEU/6XCLEjr66HG1POf3DqDTGtDnFXON6tXzoqME2aFn/XHU6vKo04dykJ888QGP5LVtP6QpMmUsfRcfLbp7Yu2pJmNtWd9fSqqPPWrw8OIUlV8PgJNA7zQLwoEpJk+a9KFe1Wa5b9djM56vsMagZIAAAhySURBVMeUg2Gppgfx30x1s0ijUgnvPlLmIVNBxV4OIUyImAXvTK3pJbI/ig/iOeCuU3jHG5DZ+WMCNgbuCrxWiEzH6LTxcyV630ymshZJr5trYWBg4LU+5B48MbOiRea5oCicoJYFbGTpT/9V97QsV2RehsDGQet7UlDIO67PJhr7ZnmmqW3qC17VyFu5BRwbfZk+ZLJL15PHJ9/yCi3gJZCTfBHMZXYuXqzevLgnz2JjAAS8+YKUYmQO4LyexZvVi3s6MxEX5R31DJmgTa04l5umNq7XrdpLQneszPI1V8ZJjb7gQeQLFt7y49I746x8qolKsBgCIWtaasZ5JQ8FY7zdgFjCxnr49PnVxYj6lybfGuf29erHpOmAl0LO9nW2QQh4CZD7ch+rJ9/uVEi1hIkSlB5VOHW2l73LY3MEx8Ei03h//7Smwopxf22gyt3StlOZXg/OxVgJcdtdnoLRjaRLMmo34tdQTNY89XM6ywjJm6zAS+AEf/VXNzh6NyrEZEpp0tK2QCs/wMayKBVEmA54CTTt3pU96+2Cl0JgJpr5COhM6V7BcRO5u2vvlhtbp8zdXbZQRHd8/1sKJGy5zybiQbjxy3DMh9DolQsD2Tg7zce47vYSY+5p/SJzc5crHvTsax6vj0VnUgdbjPBiRWLRFQ+Mk/FHfkakj6D5pQ8swHuZGHbXd2bzs+5/6HYAXtz8Exxhh9kyIHgk5ufmHhkOhjL4H0qzWX4aL0yZiUe8bLHocghlAuGlROQOT5Xp7f8P1doJKTQ9qWMhzpZqWTm5EryGiRXUcwvnXWsOrnmMYxOgt2I/GMZ5o7Ql/MExM0qDlsDrMCJ/xnZ2jNl2B9Yif26qVpPXhhMidSJKsd1s4lhe3G+Ygjn4N1sryw+et02Q48KbXaCHV33cLP019Au/SoaxQ8ptZ6V3s2FUt8M83RGN55mgxkQ3vtP3PQGHMKGiJcXXsqfCZVg2oN6bP1GlXpGw5MgiiwzZATVDrc3u+J1ZjnTll4eXWZDS170wM52F3yTwNN9/m3bNYifBf9xYXSwx5uVSnhmrRW7XDuwPdIVa38Tdy8pA7fbLkXZcv7UMvdEC0TVtk+wmygkPFQ2NPcWtNs9mDAZfGpu3XZ/Hxw1eg36O1e8IGCkx/4KfF6hiq3qeoDDMKw4Ok+5Ujl3y3SN/1IQlh8lf8+EFi60Kk0cSxbznCRMs6HHL8L1JN74V70bx6RPZZPB2tLadCezbyuW6EYlubG7FxmvLDpWPN4JMESg+TTt3zTWAy3YjxrDZXNe+wDMezuOtRoLifjqwe1ehK5fLjhm9rMK18FxN9ErkvqfCjNe4bm4B91Pdsd+SNpjXX8F24x47pbC8vZ/i07LZha4Vo7cn6kpVURj42a1MlQWglKLW4YoYN+6uDL7NdoC8c0TXkMs6I/Hzu5HIGq/Rc/ISlqKHYPN5qjU+o7sVrx91Btavr7vw0+YtGgEEaYPzZM7rMzvDLMN3IT9+x+LOC3Uy+Jq6Cz3K10tCCRMvElks+2fFJC/4WbAwUur4/nHm7RNTklj6wdm2r7fNOlHz9Z2z5V6Vqh9Y44VZQnJp0MO88w+qa8/Mqt+d1jbQpAwXv8UYp2ikDVfF4R3tC2/N210/60zZXw5/+vEWvqccmYlfK3E5PLz7wfd4O55SoB86Bt49M+9PCUWW/wuRS8PW7I/yOPTumRMnhtNuDLQoRdkRdEtLyRGrHwzX3IkP4tk83pTPyA5WexU/SrIyykMShBVs7lGmP6aib0ui0uVMiUhRVbw4L69HvWdLAl9apIVIFMhftKdns28Yhi9CCuG5J4WlKCI/XLyvs0edO/KQ7+nO6qURJkP5Eln3pJrewIaPl/84CQWHtoeleCs6lMoOxdyUoMc2ftokbZImYe7oZQWKRzcl7jaGFUOC7PDY5gKlsqqgOZbvaZGEliOO7SioTLLSuvyYuCWyOQivbVgr5Ses8dWVakQx96bkagheO5nQ0TF3p13DjTz/bFU2k2MNd0grlajEAuxEhBS6e1JctkooVEn+J+k5luHrJPuJVZIkHs5sGcR7TneNJCxMlS2WMgdDCJMm8gu3DxW6TRK53MD+g5ERHMpkFJxEy6dSqRAEUan5NJKtj6DAl1HHLrO5b0ujwQ+j0jAyrNOouv9YuxspX3cGjYJfKv3tIaulIuXr/k+zqzZ1d6aN95pj51Cs/ndMJFMtj90V/xLMayaDgfyiyMN9k+MxxMw+teYFBo0ABDRJovklpE7Gwgq34fMd78mpoIKBJlP09JY71jcgt1vz36yO/sNdOahboMkW1X3k83ruvYkbYThdc3IkCSKBmgWafHEEwp4HuFOVdnq6Ff848OT17CIyqFagKVLJ3Pah+glgd3joUvIjaS+oUKAp7LeR/1dR3rbt2NPPF7sF7BpO82hpjqNDNAqoUKCp1POMQWHP4WsxT+X73iPGnK5t9EpnDpIhQC7QNCg0KbzAZVNZhf3DYn+MyhxZHubPA+ACTZ9CSirzVg/d6a53fWN8aN/gFp67X92wKdVFefMxBCoPaHpFoVEhlqd35qeHzpwOCAjgct3cYoj3iMR7+oxIOsW4ub3N5QZsDbi4sb72wUFnX5Xf7zgQFcykAc2MzpvcXywUKTY/yYg60lZb81H9rNMBb7/9dsDprFn1Z3bX3nnwSeP19s4q70RNmLjE/RVgc4FmmnojPIXpjwpyk5N78vZ/7OLi8rFsf973XurcgjUJ4UHZJYMAWqCZ60HQIIjD4ZDJ5F6jdH/oDo0GQNHADBoQEBAQEBAQEBAQEBAQEBAQEBAQEBAQEBAQEBAQEBAQEBAQEBAQEBAQEBAQEBAQEBAQEBAQEBAQEBAQEBAQEBAQEBAQEBAQ0L+r/j+eWX9THGdHegAAAABJRU5ErkJggg==;" vertex="1" parent="SVfGcrombo2FbrhHBhek-36">
                    <mxGeometry x="11" y="14.689999999999998" width="110" height="27.34" as="geometry"/>
                </mxCell>
                <mxCell id="Rm6uRgKbICZrB_GlCouL-5" value="" style="group;shadow=1;" parent="1" connectable="0" vertex="1">
                    <mxGeometry x="91.76" y="400" width="190" height="120" as="geometry"/>
                </mxCell>
                <mxCell id="bOwzalCgTgJMlXmcAW9U-7" value="&amp;nbsp;&amp;nbsp;&amp;nbsp;&amp;nbsp;&amp;nbsp;&amp;nbsp;&amp;nbsp;&amp;nbsp; Github" style="rounded=0;whiteSpace=wrap;html=1;align=left;verticalAlign=top;fontStyle=1;shadow=1;" parent="Rm6uRgKbICZrB_GlCouL-5" vertex="1">
                    <mxGeometry x="-2.76" y="-6.91" width="190" height="120" as="geometry"/>
                </mxCell>
                <mxCell id="T4yp0sZZJBqy6boNkic5-26" value="" style="shape=image;verticalLabelPosition=bottom;labelBackgroundColor=default;verticalAlign=top;aspect=fixed;imageAspect=0;image=https://raw.githubusercontent.com/walkxcode/dashboard-icons/9300374084f5a01421c7822c8757e4742bd27f9a/svg/github.svg;" parent="Rm6uRgKbICZrB_GlCouL-5" vertex="1">
                    <mxGeometry x="6.24" y="-4" width="20" height="20" as="geometry"/>
                </mxCell>
                <mxCell id="Rm6uRgKbICZrB_GlCouL-11" value="" style="group;shadow=0;" parent="1" connectable="0" vertex="1">
                    <mxGeometry x="480" y="420.09" width="164.46000000000004" height="70.00000000000006" as="geometry"/>
                </mxCell>
                <mxCell id="bOwzalCgTgJMlXmcAW9U-12" value="&lt;div&gt;&amp;nbsp;Github &lt;br&gt;&lt;/div&gt;&lt;div&gt;&amp;nbsp;Actions&lt;/div&gt;" style="rounded=0;whiteSpace=wrap;html=1;align=left;verticalAlign=top;shadow=1;" parent="Rm6uRgKbICZrB_GlCouL-11" vertex="1">
                    <mxGeometry width="160.00000000000003" height="66" as="geometry"/>
                </mxCell>
                <mxCell id="4" value="" style="shape=image;verticalLabelPosition=bottom;labelBackgroundColor=default;verticalAlign=top;aspect=fixed;imageAspect=0;image=data:image/png,iVBORw0KGgoAAAANSUhEUgAAAggAAAIICAYAAAAL/BZjAAAAAXNSR0IArs4c6QAAIABJREFUeF7snQmYXEXVv99zu2dNAiGs2WZJoqCALAEVUD+ED/VDhE/9gn9EQZQdBFmSmUlYmi2ZCTHsCAi4AC7BBRXBBTUquLAJSFiTTM9kgbAlIcts3ff8n7ozuCBklr63+3b3qefhwUeqTlW9Vd3z66pT5whWjIARMAJGwAgYASPwJgJiRIyAETACRsAIGAEj8GYCJhBsTxgBI2AEjIARMAL/QcAEgm0KI2AEjIARMAJGwASC7QEjYASMgBEwAkZgcAJ2gjA4I6thBIyAETACRqDsCJhAKLsltwkbASNgBIyAERicgAmEwRlZDSNgBIyAETACZUfABELZLblN2AgYASNgBIzA4ARMIAzOyGoYASNgBIyAESg7AiYQym7JbcJGwAgYASNgBAYnYAJhcEZWwwgYASNgBIxA2REwgVB2S24TNgJGwAgYASMwOAETCIMzshpGwAgYASNgBMqOgAmEsltym7ARMAJGwAgYgcEJmEAYnJHVMAJGwAgYASNQdgRMIJTdktuEjYARMAJGwAgMTsAEwuCMrIYRMAJGwAgYgbIjYAKh7JbcJmwEjIARMAJGYHACJhAGZ2Q1jIARMAJGwAiUHQETCGW35DZhI2AEjIARMAKDEzCBMDgjq2EEjIARMAJGoOwImEAouyW3CRsBI2AEjIARGJyACYTBGVkNI2AEjIARMAJlR8AEQtktuU3YCBgBI2AEjMDgBEwgDM7IahgBI2AEjIARKDsCJhDKbsltwkbACBgBI2AEBidgAmFwRlbDCBgBI2AEjEDZETCBUHZLbhM2AkbACBgBIzA4ARMIgzOyGkbACBgBI2AEyo6ACYSyW3KbsBEwAkbACBiBwQmYQBickdUwAkbACBgBI1B2BEwglN2S24SNgBEwAkbACAxOwATC4IyKq4aq7HoRFS9B5ZhqEj0+yeoKEr0+ySrwfMXTDKIJRJME6y8ZVCrQ4N8ZtLeCbDJDtqePbOXWZKp6yfZ00ZeGXlLiFxcQG60RMAJGwAiMhIAJhJFQi0mbXVM6uqeGsT0ZxnrCmIQwKgtbe8JOwE4o4/DYGtjaV8YKjAEqECpQKoDKgalkFHoF+nAiQNgMrEdZ9y//XoPwArDW99iY8NmoynpPWLt8Chs5UrIxwWLDMAJGwAgYgRAImEAIAWI+TEw/USvW1LFDIkm9B5MUxqsyUTwm4TMJYUdgO2As4EU0Jnd6sBF4BXgZWAWsEGVVVnhBhFXq09HZzgpuEic2rBgBI2AEjECREjCBEOOFq5un24jHnqrsllB2QahXmAD/EANvnAAUehZODKxTYY0oqwPhoDzrK0syPo+vfpzV3GknDIVeJOvfCBgBIzAcAiYQhkMr6rqqMnk+45PKBxQORNgLZYeBU4H+64HiKIqyAY+1qsFpw9MKf/A9Fq+cJc8XxxRslEbACBiB8iZgAiEG679rSiu7qvhEVviswP44XwGhcsBPIAYjzHkIzj+hx/k3qLBE4PZMHz9beZ64KworRsAIGAEjEEMCJhDyvigq028kuXYttVllOnCUeMxAA2fCciqvA79T4dsVWf7IaF5fega9IFpOEGyuRsAIGIG4EjCBkMeVeecC3a67j3rP4wDg/6HsDVTlcQhx7MoJgmdE+IGv/MIX0juM5eVHTjInxzgulo3JCBiB8iFgAiHqtU6p11BFnXrsLXAIyiEIU9D+GARW/o3Aqwj3qc+vVPnLmF6WLklJrzEyAkbACBiB/BOwP1JRMU9psrGGqT4cIspBwAeA7aPqrsTsrhN4BFgsyi+XN/MwYlcPJbbGNh0jYARiTsAEQgQLVH+FjpdejgE+jvJuYJwLWBhBVyVtUmCjwlLg96p8q6OFx8xHoaSX3CZnBIxAjAjYH60QF2PHy3VUTR9fUo8TBeqA0SYMQgHco7DCg7uyytc6W2R5KFbNiBEwAkbACLwtARMIIWyOGYs08WA7R3hKm8K0EEyaibcnsFqgtaebW1anxIWEtmIEjIARMAIREDCBkANUd2JQDe+RLF8BDgNqczBnTYdBQJQHfLgg28NjKy9krfkoDAOeVTUCRsAIDIGACYQhQPqPKin1GivYTRN8GuU4hMkjMWNtcibgXjjcnvX5ZvfW/O3l08TlibBiBIyAETACIRAwgTBMiFMv1x2yfuB8+IWBlwlRJUYa5sjKtrpLIPUs8O2sx50rNtNuKanLdi/YxI2AEQiRgAmEocJcpIm6Tvbz+jhehI9rf+ZEK3EhIKxTuF/gloYu7l6ckkxchmbjMAJGwAgUIwETCENYtZ3bdEyvcJT6nAq8C4hLFsUhjL6MqghZlFV4fG/TZi55OWVXDmW0+jZVI2AEQiZgAmEQoBNSul1lLZeqz9ECo+zZYsg7MBpzvQiPeMpJy5vl79F0YVaNgBEwAqVNwATC26zv9BO14rUpQZCjbynsUUTbwN3Ju+yJ//xH8HEJmMFXoUdcZkWlF6UHCf5/l0a62uWFUKgSwflVePh47n8rJHD/CAk0+N9FUVRYKT7n9/awaHWKLguyVBTLZoM0AkYgJgRMILzFQkycq9smkxwhPgsh1lkWnRjYoLBBYAOwEeUFVTo8YYUKK/B5wfd4RYW1WsHalWdL15b2nks93T2Ksb7PNn6WcSQYL8pkgUkq1KNMDJgooxHGKGwlkIzJfn6rYbwqcCMZbmrPsMIcGGO8UjY0I2AEYkXABMK/Lod7vpjgHX6SEwROQNgqZqvlfu2vV4JfxquDX8jwrCrPA2mFdGcL66L8pbxrSkdvqKROkjSgTPGUXXylXoQJEDz33DY4fYhX6VLlR57H1e1N8mC8hmajMQJGwAjEk4AJhDfWJaXJhhr2QZkJfJR+f4PCF0FVcb+CnwD+LspTvsfzeKRHb2JVwbMdpjQ5uYYdPI96r49pKrwLYTdgd/rDTcdFLPgi/FlhQXoWP7HASoXf2jYCI2AE4k3ABIJbnxmaqN+b//I8LlZl35i8UnBhhB8U5b6sx4MCKxPK6uXdbIjzMfmElNYmahmf9JnoK+8R4WCFD4iwbSxSXAvt7uqovYebsFTS8f52stEZASNQUAImEIAp8/UwX7kapb7Av3idK2GnCHeq8EPN0NHXx/pizTkw7WqtYiNbZSsYr1k+hvAFNHgmWujyEnDDpm4ut6eQhV4K698IGIG4Eih7gdA4X4/xfW6Vfk/9QpanEBbQxY/TKVlXyIFE2Xdjmx6iylkKhxTYudH5JVyfEC5Z3izro5yz2TYCRsAIFCOBshUIgbNdNcd5SitSkCRLfcBa4DGEr6W7uJsyif43/UateOV19sHnFIEPATuhVBXgA+RedFyDxxXpWayJ0rmzAHOzLo2AETACOREoS4EwYYFuV9nHlxDOAbbPieAwGwtk3CsEFR5A+W5FLfctPUN6hmmmNKoPOIYKfN5X/kvgnQMxGfI5v27ga5kMX115nqzKZ8fWlxEwAkYgzgTKTiA4cVCR5SRRTg9+uea3rAHuUeVnCos7W8SdIFhxQqGSA9TjcHEvSIRd8hyQqU/hm1RxYcdZ8oItiBEwAkbACEBZCQR3rbCpitMQvpJnceB+pd6jCW73evlT+xxxQsHKmwjseLmOqsqwn+cFabQ/BeyQL0gKGVHuUJ+WjjkmEvLF3foxAkYgvgTKSiDUteqXPTg/z9cKjyNc4Sm/W97ECnt/P8iHIaXetEq2zXq8X+Fs4INBmOf8lG6F71T4NC+dLS/np0vrxQgYASMQTwJlIxAa2vRYfK7Po0PiJoXvJXzmL+9lebk4IIa2zWdoomF/xmgPp0q/qHO5IvJRNotyq/Zwfim/JskHSOvDCBiB4iZQ+gJhhiYap3OoDz/Oy1NGIatKWpTz0z3cacIg9w/IlFbd3Ydrgfe5hFK5WxzUwgY85nYJ16yZKZsGrW0VjIARMAIlSKC0BUJKk/VVfEg8bkZpjHz9hNdQ/uBV0LT8HHku8v7KqIOpl+sO2SxnIRwNTMiDE+OLKC3JUXy3bF+ZlNH+sqkaASPwnwRKVyCk1Guo4b0CC1TZL+IIiS6r4tMifKOvgusHy5hoG3FkBLZP6ehRVXxCJbh2cKcJLk11ZEVgadbjrM5ZcndknZhhI2AEjEBMCZSsQGi8RHfWCuYCh0WcW8HFMPi9elxVUc1v7NdmxDvdXRntw3Tf53SEz+bh2uhxgWPbm+XxiGdm5o2AETACsSJQkgJh4lzdNpmgRZSTI87K6O6n75QEV4zbiqcfOUlcdEQreSAw9VKdnK3gsyhzgDFRdqlwP1mOtOePUVI220bACMSNQMkJhOknasUr0/i8ZLkCYasIgbuTg6u6fRa82MIr9nwxQtJvY3rSQq1J9nA4wpURx7XwVflutooT7Poo/+tsPRoBI1AYAiUnEBpbdQ+F3wNbR4jURzgr3SRXR9iHmR4KgZR6jVX8twrXA1OH0mQkdRQ2AvM6mplnORtGQtDaGAEjUGwESkogTEjpdlXV3KewRyQLIbh0zC8KfKW9WRZF0ocZHT6BlHpTaviw7zNPhL0UksM3MqQWz6nPWR1/45fcKdkhtbBKRsAIGIEiJVAyAmHnNh3TI1yOz0kRrYV7qfCsCBfUd3HX4jLJvBgRywjMqtTP48MCKTz2j+gZpNsDP/d8zl0+256xRrCIZtIIGIEYESgNgZDSZGMtX/R9viowOgK+7krhCfW5VHr4eTolLreClRgSqJuvB3g+lwIHRjS8TapcKdUsSJ8l6yLqw8waASNgBApOoCQEwuT5+sFElmsRdifsBFT91wrPqHJ+top7zEmt4Ht20AE0zNc9JcvVKkEehyiKSwt9WnoKd3OkXTVEAdhsGgEjUHgCRS8Qggh7GeYjHBVRvIMXRDhDu7jbTg4Kv2GHOoLGy/Q96nEDEgTJCr8If+7t4vDVKXklfONm0QgYASNQeALFLRD6oyUeK8p8he0iwOkLHFXfzY/M5yACulGaVJXJ85meUG4mGqdVd+3Ulm6S2VFOw2wbASNgBApFoIgFgkrjZeyuCa4BPhQBwB6EWbF4yphSb1dIrt+KRF8Wz801sQmtBH/b8WQfOZGMxWF4ix2QUq+ulkM9n6sQGlFC3e+qZDyPA9qb5MEI9p+ZNAJGwAgUlECoX5j5nImLy19bxSyRIJJe8EczxOIiJF6XbpamEG0Oy1RDSquTNWzXJ+zgKZNUebcok13wJ1+oFmWDKK/5QjvCU8CL2QrWrDyLtSYW/ol615RWbqriiwjnI4wPWyQg/CVTwcdXni2vDWuBrbIRMAJGIOYEilYg1F+u+0mG7yNMDpmxi5D43W6fWS/OlpdDtj2oOfdcszvLbnjsJ3AALtGU+8O25dIFPKfwB1EeyCZ4eMUslltAn35oAVOfmZ7wFQ0/LHO3Cud1NHKlOSwOur2tghEwAkVEoCgFwoxFmnhoOd8BjgyZtXvnfp8kmNl+Ln/P6y/xlCbrqtjDk2BOhwC7jsjpUliH8kcVfuLDvSuaZHXIjIrSXP1lOt7zuFz700WHV/pfuTymypc6WuRv4Rk2S0bACBiBwhIoSoFQ36afEuU2oDZkfEvUY9Z2W/PrvCZechkKp3OyD1+QfmFQk+O8FHhJ4Y8J4YaaLv64JCW9Odos+uaT5+vUhLIIZe+QJ7NZ4IbNCS5YM1Pc9ZQVI2AEjEDREyg6gbDj5TqqNstjCtNCpS+8JjA3UcO1+UzZ7Hwpaqq5xhP+N8gfEaYjndCH8oIq35IeFqZTFthn0mX6nmSCxcA2oe4f5Snf44zOJvlNqHbNmBEwAkagQASKTiA0zNUz8LgqVF5CFuVnmUo+m89ASANpqb8vysGhzuctjKnyJHCMHYND43w9Xn1uCjWolqAKC6vhomebZEPU62n2jYARMAJREygqgVB/hY6nh18PHMOHxkZhWaKCQ5efk7/4+pPbdEJC+SrwaaAitMlswZBC1oMr/ATXj97EqnK9dgiEmceVLsaFezEaIvvnBE5ob+KPefVfCXECZsoIGAEj8AaB4hEIKU021HAOGjxrHBPiEro74+PTzfK9EG1u0ZT7A1WZoAXlJI0md8SW+ndZCB8RuE49fpXezEukxDlnllFRaWjjfSg3hB1ESZWvVnRz8dKL5PUyAmpTNQJGoAQJFI1AaGzTnRW+jvKBMI+GVbi5o4tTyFN2xmlXa1W2K3ipcJm6uAaFKy+J8lOFO9I93J+v+Rduuv/e84SU1lZWcRL9cTS2DW1cygqFI+wqJzSiZsgIGIECESgOgZBSr76GU0W5CBgXGivhMS/LZ/KZunfKXH2netyiBEKnoEUgo7AE+JFUc2P7V2RNQQeU584bF2i9ZlgocLhCMsTuW9PN0hKiPTNlBIyAEcg7gaIQCA3ztAFhIQSe/mGNuRvh5HQXd+Tr13MQ1a+W0/BpHVGMg+i2xwaUR8VjYXsjPy+bgD8p9RprOEw1CNddFyLeFzOV7GrRFUMkaqaMgBHIO4Gw/thGOvCBuAfuvnj7EDv6kQdnLW+WzhBtbtFU3TzdRoSHBKbmq89h9OO88F91USSzGdpWnicupXHJl+knasWrU7hJ4XMS4imCwPntzXJpyQO0CRoBI1CyBGIvEN65QLfrzeC+aE8KcRXWaIJTOs7lrnx6mw8InR+GOI+oTP1N4fzuBIvLIfBPw1zdBWExwo4hAl1bJdTbk8cQiZopI2AE8kog5gJBpW4ee3vC9wnpV/fAvfttkqWlfU5+79wbWvUu4Ii8rvAIO1PYKMKtvnJTZS1L8xk8aoRDzqlZQ6tegJAKM1CVCMe3N8ktOQ3MGhsBI2AECkQg1gJh+o1a8eo6TgGuDPGLO63K2R0t8uN8Mg+85qtxeRG2zme/ufblnBhFuBafX6Rb6CjVBFBTU7pDppoHJNwInb/uSvDJcjiFyXWfWXsjYATiRyDWAmFKq27tC/cGGQ3DKX0qLFKfL3e2yNpwTA7NyuR5um9CeHBotWNXawPCParcVsrXDg1tejLKdSGmD3/BJYfqaJLfxW5FbUBGwAgYgUEIxFog1M/Tg0S4B6gKaSVdAqMvdjTLz0OyN2Qz9W36JVFuHnKDmFVUyAi0Az+WDNe3n0dnqZ0mNMzXndTnZwL7hIS/G7gh3cTZ+fR1CWnsZsYIGIEyJxBvgdCmXxfl+BDX6FfJWg4vxH16fZvOEQ2cLYu9bFZ4RuDidLP8pNgn86/jd1daa9dxgq9cG+Jz2j9ogi90zBQnrqwYASNgBIqGQGwFQhAzoJqXga1Coyl8Mt0kzlEw76WhVV0ch7Py3nGEHYpwx2aPs9fMlJci7CavpusW6Lsli0ugtVtIHXeKcm57i9wZkj0zYwSMgBHIC4HYCoTGNv0/VcL8Un0q3c0e+QqK9ObVa2jTG1FODGVVhXkohw287KgNxeZIjAiKslSES3qz3LOql7XFntdh5zYd063MEnCREHNO5DRwNbNwVDfnl2tyrJFsLWtjBIxA4QnEUyCoSn0rPxThkyEhUoQvpZvkGyHZG7aZMAWCJti/Sni+N8vZKJ9ygZdCDhU8vPkpLjHRj0nwjUySB/OZMnt4Ax1a7cZ5+hGVIJFT49BaDFrrlyKc2d4kzw5a0yoYASNgBGJCIJYCYSAV8iPATqFwUjroYc90StaFYm8ERsIWCB0z5c8u8VNmMwcCxyh8VMJMOjT8OSrwJPAdTfD9Yr5zn7RQJyZ7g9DeM8LwRVBYicdJHbPEOdxaMQJGwAgUBYFYCoTGVj1S4VZgVBgUBRa0N8vMMGyN1EYUAiEYS0q9qWOYmO3jUAiuMPYM8ZneSKa7CeUB4JuZKu4qytOERZpoWM7pwIXANiOB8K9t3DUD0FRRy3WFcJDNdfzW3ggYgfIkEEuB0NCq1yMcj1IRwrJsRjg43SR/CcHWiE1EJhAGRtSQ0mq/mqkenIByCkLliAcbQkOBlepiJ8CVHU3ydAgm82piIG7FjcBeYXSsyh34zOyYIy+EYc9sGAEjYASiJhA7geASGnke96C8P6TJL9Ysny30F3PUAuENVpMWao347JvIcGVYf9xyWIc+4HlV5koPP0ynxMUFKIoy8IrmNuD/QjmRUZ7J+sxYMUfcNYwVI2AEjEDsCcROINS36YcHAgpNyZmeoOJzfk8PV6xOyeac7eVgIF8C4Y0hBkmuspyL8kX6fRO8HIafU9OBI/bviXJ+Qw8rF6fEHbnHvjS0qjuJmYsyNtfBKvh4fKJjM78o9pceubKw9kbACBQHgdgJhLpW/bIHKWBcCAhf9oWjO5vk1yHYyslEvgWCG6z7FbyxmoNFOAOf/ZEQY0qMgIZz1vPgYi/DL5ZlWBX3P5SNbbqzEoT6Duc1g8eFyWrazA9hBJvHmhgBI5B3ArESCNNP1IrXpnKl9t+jh+F/8FsVTo/DHXghBMIbu2lim05KKscIHAnsXsjTBKBP4Ke+x62ymT8V8mXJoJ+2GZpomI4Ly/3RQesOoYLAz2rH8Nklp8nGIVS3KkbACBiBghKIlUCYdKlOrEhyo8LHc6bSH8Tnag8uXN4s63O2l6OBQgqEYOiLNFG3nP08j8/i82lghxynlEtzX2G5wA98uL3zEZ7hTsnmYjCqto2teq7C5SHZX92bZI/V58orIdkzM0bACBiByAjESiDUt+r+QhAHP3fPcWGd+DS193BzHI6yCy4QBrbQhAW6XaXPIficrOB4JyPbXYMYFtjoK48L3Jx+lNviKBKmtOruPjwREiMf4YBCv6gJaS5mxggYgRInECuBMBD/4ApgQq7cVYKgPWfEJdVuXASC4+qSEr20nrpEli8hnBzGW/8c1ssFWFqLcr94zIpbtMEDU5pM17AUpT6HOf6zqXBmukmuDsWWGTECRsAIREggVgKhoVXPBOZDCG/4lV9pkpPjEtEvTgLhX/fTwKnNTc6nMcJ9NiTTqrwqwvnJWm6NkyNfQ5t+E+XYIU1i8ErfTDfLcYNXsxpGwAgYgcISiI1A2DWlozdWcYEIYUQ89FX4xuguTo1Lgpy4CgS3/VzshGQfs1Q5XmBHCMVBdKQ7uwfh5+qxIJvgsThEYmycq59Xj2+PdEJvavd4ullctEsrRsAIGIFYE4iNQJjWppMy7vRAOSoEYs4pcW66WdxpRCxKnAVCAGiGJur25f2e8mWUDwPbh5GHYMTwhWWq3JCs4PvLzpEVI7YTQsMJX9XJFX2BU2UY/hrdvd1sW+i4HCFgMRNGwAiUOIHYCITJl+luCQ8XYvmDuTIPkuMoZ3S0yI9ztRVW+9gLhIGJNszXnTTLp0Q4Gti3oKcJiou8+GNJ8LX2WdwP4vwV8l9UpaGVDoTJoXTusVd6ljwWii0zYgSMgBGIiEBsBEL9XN1PPL4JvDOEuT6tytEdLfK3EGyFYqJYBIKbrAuw1F3F7hn4jEiQAGrrUCCM0IjAI+pzabqXnxbqRUpDm/4cDRJihVGOSjfL98IwZDaMgBEwAlERiI1AmDJP/9sXvh9SBMWHqOIj6bMKl975zQtWTALhjbG7vBjisaenzFY4uIBXDr4IT2Xhos4mfliIk4SGVm0DZoXxQRThvPYmuSwMW2bDCBgBIxAVgXgIBFWpbw2OtReFEOXPR7k73cL/FuIPydstVDEKhGAuqjJtHttlhS9ovwOp800oRHHXCw9pgq90zJQ/53sAdXP18154joq3ppvlS/meg/VnBIyAERgOgVgIBHekvbmaE7Q/SFKupU99buiYLWfkaijM9kUrEN6AoCqT5vHepHAxwgeA2jD5DMPWIg9mLm+WzmG0yblq3Xw9wPOdH0QIxWNxepY4R1ArRsAIGIHYEoiFQNg+paNHV9OkcF4IpLpFuaC9RcIKjxvCkKDoBcIAhUkpHZes5njgGIWdQ/LsHw7jLoWZFbXcnM9YCVPm6zt8H+dYmLswEtrTs5iKFMjpcji0ra4RMAJlSyAWAmFKq26tylwVTg1hJTYBx8fNCaxUBMIb69PYpu/1NYjCeIjApBDWbTgm/o7PkenZ8sxwGuVSt3GB1vsZfiMwNRc7rq3AK32V1MUhxkOuc7H2RsAIlC6BWAiEiXN128oEV7mXByGgfh2fw9Oz5fch2ArNRKkJBAdm2tW6Ve9mDvfg8xA8T60JDdiWDblEXC3pFnGOg3kpk9t0QtKlvFIOCKHDtZkMu688T1aFYMtMGAEjYAQiIRALgTD1ct3Bz3JrSFkc1/nKBzqbZUkkxEZotBQFgkPh8jq8so5posxAgquHSaj7kRxtUVgq3eyeTomLlRB5cXs0k+EWEQ4LobP12QQfWDFTXL4QK0bACBiBWBKI/It8KLN2v8485ftC4PyWa1mbFXZb0SSrczUUZvtSFQhvMNrxch1VnWUPgZS7dgiT3dvY8oFD083yyzz0hTvlSgpXDQSQyrXL17Meh62YJX/M1ZC1NwJGwAhERSAWAiEIs6zcDewRwkRfZUcmpY/Lzy/LoY631AXCPzi4qINtgW+CO/4fM1Q+I6z37XSzhJVEaYtDCNNPRpWNCP+vo1l+PsJ5WzMjYASMQOQEYiEQprRqnQ/3Au/OdcYKqzuaZWKudsJuXzYCYQBcwwLdRTNcIv0BllwkRi9spiir0j3U5SO64nZtOmY0zEFpynUeAht94diOJvlRrrasvREwAkYgKgKxEAiNl2q9VvBrlHfkOlEV2juaZEqudsJuX24CwfFruELHSjdHqgSpkveKwIlRpZrx7V+RNWGv15vtBVcoGZpcOuoQ+orlS5sQ5mUmjIARKCECsRAIDfO0AViMUB8C22fSzfKuEOyEaqIcBUIAcIYm6vdlD5TPChyJhpTw6I3VEfZLN8lfQl2stzA2IaW1VTWco8rFOfelbBaPk9ub5LacbZkBI2AEjEBEBGIhEOov10bJBlHqJuQ8T+WJdIuE4cuQ81D+1UDZCoQBCO4OP+PxQc/HhRj+eFhZIhNw6LJmcddTkZZJC7Um2cuZwLwQOtqsypc7WuTWEGyZCSNgBIxAJAQTb0rAAAAgAElEQVRKTyDA4+lm2TMSWjkYLXeB0I9OpWE+H8Ln65D7dVJg0efTHbOjv8sPXSAIZ3Q0yS05bClragSMgBGIlEAsBEJwxSC4wEZ1Icz2qXSz7BqCnVBNlL1AOFCTjR/jOF+5yBO2V0iGBPhj+Xjq6K4YKqo5W+CSnMftrhiEU9qb5ds52zIDRsAIGIGICMRCIAyEsb1PYFoI81yebpacw+GGMI5/M1GuAsEl4uquYvesBH9YPwIkwmQrGd7Xfp48GKbNt7LlnBRrskG65wtC6GsTygnpFvluCLbMhBEwAkYgEgKxEAgDzxx/AYThXLgq3Sz5zg0w6OKUnUBYpIlJy2hMCp/C5djQUBxQ/42zQCbhM2HpbHl50AXIscKu1+noTRuYAzTnaMqFmdwoyheWt8gPc7Vl7Y2AETACURGIhUCYeqlOzib5WRiBkhReGd3NxCUp6Y0K2kjslpNACIIKeXxEfY4DDgKqRsJssDYCS9ubJeensYP14/67m5PvXjAIOacRV9jowWfbm8XteStGwAgYgVgSiIVAcKGWE/ADlP1ypiS8lvB417KZ8lLOtkI0UBYCYYYm6qazn+eSbglHAONDRPgfpkS5tr1FvhxlH2/YnrRQxyV7WEh/TIdcywbNckTHHPldroasvREwAkYgKgKxEAiNl+mOmuSbKB8LYaLrRHh/e5M8G4Kt0EyUukAIRJ5yDC7WQX/I7PAjJ/7raggK7J+PGAiu22lzdfuMF7y+cMIn17KeLAem58hjuRqy9kbACBiBqAjEQiBMSOl2lVVci/CZnCeqvK7Kxzpmy59zthWigVIVCAemNNlewwc9aFHl/Qij85HNEXh8223Y95GTpC/EZXpbU/WX6XhJ8B3gwBD6WytJ9mo/VzpCsGUmjIARMAKREIiFQHAheemhFTgp11nGNc59KQoE9/Svsobz8DkToTbXtRtOe4ET25vF/aLPSwnZkfbVKqHx2SbZkJfBWydGwAgYgREQiIVA2LlNx/T4zEFyT4QDdAEt6Wa5agQ8ImtSMgJBVepaGSvKfl6CNlV2iwza2xt+NCkcsbRJVuar76nzdFpWeAgYm2ufQUKxJiYh4q5JrBgBI2AEYkkgFgKhIaXVVHEKwsIQKPUqXN3RLDNDsBWaiVIQCEHCoj7eI17gqOf8DWpCAzREQwqvenB2bTffy+dLlSltuo8PD4Z0ffKXdLPk7pA7RGZWzQgYASMwEgKxEAik1GuoDpzb7sjZuU3IAj9KN4mzF5tS1AIhpV5dFQ0Jj0+rcrTAriFGQhzOGrnToW9nhYtXNMnq4TTMtW7jPJ2hwqJc7bj2Ct/paJajw7BlNoyAETACURGIh0BwqYFb9aMQfAFvFcJk/zSqm48uScnGEGyFYqJoBYITBzV8KqF8QWF/YJtQgAzTiAuKpPCbDMxc2cST+T6eb5ivF+Bz0TCH/ZbVVbiko0nCiMgYxnDMhhEwAkbgLQnERiDUzdcDPB8Xm35KCGu1xPc5snO2PBWCrVBMFKNAmLpQp2V7OE+Fg6U/02a0TxffnrQPPIxwZrqRhzhS3ClRXktjq96p8H+hdOpxXHqWfDMUW2bECBgBIxARgdgIhMZW3UPhRuB9Oc9V6dAEp3bMkntythWSgWISCM4nRKr4nO8x21MmF+g64Z/klSe8SmYs38BSUuLEQt5LQ6s+DewSRscefHB5s7j05laMgBEwArElEBuBMJDR8avAp0Kg9ZoKF3Y0ybUh2ArFRDEIhOk3asWrr7CrJDhP4bCoQiQPCagLhKTBi5S7PDh1ebOsH1K7CCq5VzbdymsSRgZKIZusYdzSM+T1CIZqJo2AETACoRGIjUAIYt0T3PGemfPshD5Rbmrv5iukJJOzvRAMxFogqEr9Ahoky+ED/BtDmHIuJrpQnke4flQ338jna4W3GnRjq35C4ae5TOiNtgpLO/KUPyKM8ZoNI2AEypdAbAQCizTRuIyzVbgMqMh1SVS52/c4Kd/e7m837rgKhIlzdduk8CFP+BLw0QJfJ7jrg5Vu7RRu7ezh8TgIvIZ5elUYSZrc3hD4QXuzzMh1f1t7I2AEjEDUBOIjEIC6Vv2cRxALYfsQJv6oJji9Y2Y8Qi7HTiDcqBX1r7OPl+VohU8DO4XAfMQmFLIC94hyW18Vv1l5trw2YmOhNlRpaOXvwK5hmFWY09Esc8OwZTaMgBEwAlESiJVAqG/TDwNXSzjR+V4Wn3PaZ8ttUQIcqu04CQSXeKhPOAbhKCGIhBhJOuahsnHH7sCVWeWXK3tYXihHxLcab/3l2ihZXOKvnE+1nH1f+O/OJvnNUNlYPSNgBIxAoQjESiDUzdMpnvA14CMhAPFR2np7uHR1SjaHYC8nE3ERCA1t+n6Ui1HehzCm/9S7YMU5IX7f62WhN5bnlp4hPQUbydt0XD9PjxcJsjjmXoR1kmGX9jmyJndjZsEIGAEjEC2BQv5x+M+ZnagVDVOCp45fCOkP18+yHmetmCXLosU4uPVCC4QgnHUNF6CcG9av4cFnvcUaz/tw3phu7iq0E+KWRtnQpotQwvIZ+F2VcIQlacpx51hzI2AE8kIgXgLBRVScp03AbCSUiIppgWPbm+UPeaG5hU4KIhBcCGvYSir5kHpcDOxRYA4uOdEahJ+qR2vHTGkv8Hi22H3jZbqjn+ABgalhjFNhgXRzfjol3WHYMxtGwAgYgSgJxE4g1M3Vw7wE16LUhzBxX5UzK0bx9UIfX+dbIAycGOypyucEjgLGhcAzFxNrgYcQvrZvIz+7swDREIc7+Ib5ehQ+1wDbDrftW9TP4nF0uoEfFCISZAjjNxNGwAiUGYHYCYQJl+rkiiQ/Fpge0lrclfQ5celseTkkeyMyk0+B4BhWJvg/gaNV2BNIjGjQ4TTqU3hCYFFWuD0uz04Hm9quKa3cWM217gQKqBys/qD/XVihGf63Y448Omhdq2AEjIARiAGB2AkEZmiifjrfHPjVm/MfNoVXvAQHt8+UJwrJOy8CIaWV9VV8AuE4gQ8AWxdyzsDLgTDw+a7XyyPFdLTeMFd3weMbwPtDYSjclUhyxrJzZEUo9syIETACRiBiAvETCP3xEE7w4EqgNuf594fsbU43y/ycbeVgIGqB0NimO6tyFsqheExCC/o6wZF6EGFeZYL7nzuHV/OdfTGHpQqa1s/TL4rg4hXsmKst117g/J5uFsbhRU0Y8zEbRsAIlD6BWAqESfP1HUmfB4GxoSyB8HS6Sd4diq0RGolKIExaqDUVffyfKs3AOwr9QkGhS6EV5ZrOqbxejPftdfN0m4RwucIXw3hN406xUE7uaJEfjnD7WDMjYASMQN4JxFIgBL/g2vR+UQ4Ii4gIH2lvkl+HZW+4dsIWCNs9z8MvNtBY4XEhBM/wQgnkM9x5BfX7T2m6FR4Qj5npWfLYiOzEpFHjXP2gelwH7B7GkBTulyxfTs8pbi5hsDAbRsAIFA+B2AqEhlY9Bbg+RJT3brsNRzxykvSFaHPIpsIUCAKfEWGc756DKpOHPIhoKrrgRs/g8a2+DN9eNVtejaab/Fh1rz+0mlPFnYKEI7qyCjdsElpeaZIN+ZmF9WIEjIARyJ1AbAXCpEt1YjLJUxBKPAQUMiT4UKFyMzTO02tUOD33JQNVnhQJcgMUev1WI9wNfCPdyEPFeJ3w5vWYPF+nJnxuBg4MY60G4j60pJvEOTxaMQJGwAgUDYFC/4HZIqiGVr0LOCIsmirc1tHFFwuRIbBxnl6swvlhzaXAdnpU+LX43O7DrzpbxMU4KP6S0mR9NUcKQWjl3B1k+4k86MMXO5tlSfEDshkYASNQTgRiLRDq2/RTovwgtF/KQgfw/9JN8pd8L3LDfD0TP3iZUdxFeFaVmxIeP1s+yyVZEhcdsSTKzm06pqd/v4WRC8Qx6RP4dqKW0wodqKskFsgmYQSMQF4JxFoguKyDGeEPCLuEQkXoEbilvYsz832K0DBPP4ZwbyjzKIyRLoS7PJ8reqt4cuXZ4hItlVSpu1w/4WUDgZB7YKR+Mi+rcoq9XiipbWKTMQJlQyDeAuFqrcp2MUc1vKN5hSXic1p6tvw+n6vsns55gnPgizXzt2SivOALs6Z0873FKcnkk1s++2poVff6Irx8FcoTvePYb/VJhc8mmk+O1pcRMAKlQSDmf6xU6lvZT+CnIcXDD459Fa7pTnDBmpmyKZ/L2DBPH0d4Tz77zKEvHwJBc29SmLO0SVbmYCv2Teta9XMe3BbmQBXmdDSLC7ZkxQgYASNQdARiLhBgcptOSMBClM+ESHeJr3yls4ffkhL3hzAvpaFVZwFteekst06CxEqq3NDRIj/OzVT8W09aqBOTvcH1TyhxDwZmvN5X9u5skeXxJ2AjNAJGwAj8J4HYC4TpN2rFK6/xeRG+GmJkxSzw9WSWC/KZxMmFQwbuV2W7WG5GwcWIWILyfZTvpZvpKLYQycPl6vbXq2s5D3BpxquG2/7t6ruXEO3NcmJY9syOETACRiDfBGIvEByQurn67oTH1QoHhwjoJYHj2x/hHu4UJxgiLy4scrIvOA05OfLOhtmBKhvF43ZfuSOzDY+Wy7153Vw9QDxuFOHdIeavWO9V8N7l58hzw1wGq24EjIARiA2BohAILvXu5mrc8XyTwugQ6S2mik+mz5J1Idp8e1OqMqWNA3y4w+mevPQ5hE4EHs7CxRXd/HVZipdL6enilqbvHEdFaBPhGDS80wOUb6WbOa7UT1+GsLWsihEwAkVMoCgEguM7ZZ7u6ws3AXuGyNuFwb0gn45k27XpmNE+54gwRyEZ4lxGYmo9whXJLNcv7eXVfPpjjGSwobbRwAH2syIsAHYKzbbgnn8eVIhYG6HNwQwZASNgBIrqyZ2qNLRyJcJJYd4VA90evHd5s/w9Xztiylx9p3osVPgfwMtXv0E/byRWUv6sygWdf+Mv+bpiyes8B+msvk3f5cFVqhwS2rgEFfhOb5Yziz0nRWhMzJARMAJFS6BoThAc4fp5uhfCIoFpIRP/QyLBjGUz5aWQ7b6tuYZW/Sgwb+Ddfb5EQlaEp1W5o9vnlhdny8v5mm+c+glOcZRzBWaHfIrzkksR3dHNvWV1GhOnxbWxGAEjEBqBohIIoNLYynyFc0Mj0G/IZSS8YlM3l72cko0h235rcyn16qv4JB4pUXaLuk+FlaLc58Ikd8zmL+XiZ/BWXBva9H9RbgR2CI27kEW5LSvMWdEkq0Oza4aMgBEwAgUiUGQCAerm6RRP+CMwIVRmwgp8mtKPsihvR+4uOVAtHxGfOcD+oc7nn8Y2A79XuH1zNz/NmwCKaDK5mg32j8cP0VB9WUDpUDino4cf2+lBrqtk7Y2AEYgDgaITCA5aY6t+WeHqUAEKWVX+7AnntDfJg6Ha3pKx/pcNu2WFM0Q5ChgVSt/O1wBckJ6vC9zV3sjSUkjHnAubKa26tcJtKhwW4pNGN6Q+lO/0KeeY70EuK2RtjYARiBOBohQIE1JaW1XFr1Q4IGSYfap8L5llzrLzZEXItrdobuJc3bbCCxzmmgci+o3cL0HpRfiOJ1zX3cVTq1OWC4AZmmiYzlcFTgvZ78A5fi5TOKGjicXlfHWTz8+L9WUEjED0BIpSIDgs9fP0IOnPjhhW5r2AtoJz5JuTqeDqQmQsdL9yffiswkwRGob5S7dPhF+qcH56lrjEQ1YGCNTP1+PFZz6wTchQXG6Pmzqa5fSQ7Zo5I2AEjEBBCRStQJiU0nHJ6uAN+7ERPBXcgHJCuoc7C3WfPO3LWtU3gQNEOFyUfVQYL1CpkBh4nupySLjMii7h1HMIi/G5qxzCIw/nE3NgSpPp6iAC5xXAu4bTdih1FZZ7SQ5qP1c6hlLf6hgBI2AEioVA0QoEVGXyPD6Q8AJv9NC/+IEXRTm2vYf7CiUS/rGJ3PH4vmyvCcZ7yhiyVPnKJoS1CWX18mZZXywbLq/jXKSJhqXsg9CG8KEI4n50i3B6e5Pcktd5WWdGwAgYgTwQKF6BAGx/nY4etYHTEZpQxkbAa5knnLS8id/a3XIEdKM06QJrzWNnElwmyuGh+x30j/07yVV8cek14p7JWjECRsAIlBSBohYIbiUmz9epnnKluKiEGhy/h1uUhxSaO1rkt+EaNmtREgjShGtwrXBEyJE33xj20z7M6GyWJVHOw2wbASNgBApFoOgFAin1Gmo4HOWqKBIgCWTc80c/QUvnLHmgUAtl/Q6dwLgLdautavgWEojG0FI4/8sINqvPGY29fGtxSpwfiBUjYASMQMkRKH6BAASOaLVchs9Xwn7VEKx4f5S8P+Jxlr0OiPdnYEAc3A4cSr9DZ+hFhZu9DOe1z5E1oRs3g0bACBiBmBAoCYHgWG6f0tGjavgVyn5RsRUnEnxOb5/N3y2Vb1SUR2jXOa3OZ3xCuQ74RCTiwCVjUh5Wny+nZ8tfRzhSa2YEjIARKAoCJSMQHO0prbp7Fu4VmBgZfeXPWY8zVnTxaMFfN0Q2ySIz3P9a4R14XIRwRETXCg7Ki+pxfkcD3yj3qJRFtkNsuEbACIyAQEkJBDf/hnn6BSSIj7DtCHgMtcnjvsd5YzbzqyUp6R1qI6sXPoHgeqmS6SSYhfLxiBwS3cC7UL7uQ6qzRdaGPxOzaASMgBGIF4GSEwhBGOZq5iicBdREiHs5yuVVHnc82yQbIuzHTG+BQJA2W2kR4YCInjK+0fu9vnJ6Z4u4/BZWjIARMAIlT6DkBEKQEvpS6nz3/l2C5Ecjz2mwpeV3yZCUF1S5BZ+vdcyRF0p+t8RpgjM0Ub8vx4nP2cAuEQRB+tfZpvH4pDmoxmkD2FiMgBGImkAJCgRwTx8ba9gHWKgaekKnf65Jv9PaRpSfZhJcuGKWLIt6wcx+4Gvi8lVcBBwTQW6Ff0MssDHjc+iKFu43x1TbfUbACJQTgdIUCAMr2NCm/+tEAkpj5IsqPJrJcNzKOfJE5H2VcQd183RKQrgS+J+IrxRc4q6M5/Gl9lny7TJGblM3AkagTAmUtEBw+RoaWznNZTcEdsjDGq8Vj1m9GX68ajavWXjm8Ihv16ZjRhMkXboA2HOYWS5HMpBNKAtGbcWCJafJxpEYsDZGwAgYgWImUNoCwa1MSisbqpkDzIzYafGNfaAKd4hwXW8XT6xOyeZi3iAFH7uq1M9nF1H+H3BynoSey5B5e59w6aomWVlwBjYAI2AEjEABCJS+QBgIolRbRUqEU/MkErLAkyjfkgp+1L6RFRYzYfi7u26ebiNwqOdxLMqHo75SGBhhN8LPFC7saJKnhz9qa2EEjIARKA0CZSEQ3FINOLbNBs4AqvO0fK8CvxfhW+OWce8jN0lfnvot6m6m36gVL7/Ke8XjWOmPirhTniaURfilZGixaJl5Im7dGAEjEFsCZSMQ3Ao0zNed8JkFnA5U5GNVgmRPsBr4LT5t6dnyTD76LdY+Ji3UicleTlT4tAjTIoyK+J+IhD+R4Evpc3jWXiwU6w6ycRsBIxAWgbISCC5GwqRLmZBIciFwnEAyLJCD2XEe8aK8inB9opsblqXkpcHalNt/r2vVz3kEAu6dCJV5cET8B2JVnqzK8rHnznNiTrTc2Nt8jYARMAJvJlBmAqF/+vVX6HjpZh7CZ/J43dDfuaCqLBPhqwh3bbs1rz5yUplePaQ0uXMNNV0eB3pZLgH2KMBH1F0r/LWyjyOfO09WFaB/69IIGAEjEEsCZSkQApFwmY4nwaVC4B1fW4DV8RUeTQjfyCRYXJNlRbmEbG5IaXW2lomez/sEjnUZuyNJ0z34ojqHxN+S4Jz0uTxrJweDA7MaRsAIlA+BshUIbomnzdXts8IFKsEfqTEFWnZVYQnKXZ7yx74qlqycxIulmC3QvUpICrtm4b0DzofvLZA4c0u9CeEeyXCpOSQWaOdbt0bACMSaQFkLBLcyDSkdSy0n43NmHr3l32pTuKeRncBDwJ+yyp+26uHxYs8WuWtKKzdVMkWF/T1hfxX2RXlXvpxE3+bTF8Q5UOGqjlk8Yw6Jsf6OssEZASNQIAJlLxAc9x0v11E1GWaIBFkgpxVoLd7o1jnIrQPSwPPAYhF+2/4wS7lTnIgoitJ4me6oFRykPh8W2B2CcNcummVB99yAs+hlfR43WxCkothKNkgjYAQKRKCgX9YFmvNbdjvtaq3q7eYQz+fSAjnLvdW4fITXgbUozwncJ/DLum6eXpySTJz4uRci9ZfTQIaDxeMjquwtMHbg6qYyDmN1iZfwOK12FD+y8MlxWBEbgxEwAnEmYALhTavT2Kp7+HCtwP6RpYrOdUcIHcHJgnJfTwW/X302KwtxTL5zm47pVQ5U5b+RIE/COwt8dbAlsumszzErZssfc8Vv7Y2AETAC5UDABMJbrHLwwsHjcoQjBEbHeSMMHJm/gMffUZ70fZ4kyfIkvKQevZksfZUeme4+slUemdcFP+HhJzah3lYuYSH4ryPZUch2tUjXBhK9lSSqu0n0KclEggpRKtVjrPo0aoJ3ic/uCru565h8xpIY4Tp0OTGFx+z0TB4vhJAa4bhza5ZSb/p4Et0vID3jkMxrSHIcWvUaWj0efeQ+/GK6ssoNhrWOJwEVFuFNX4u3/km8zLb9149v7NPtwV98Idmy+czGcJFMILzNokxaqDWJXs4aeIbn/BK8GK7floa0WeEFT3jR91kLrPdgvXpsUJ9ez6NPlb6BuAwV4lOBFwQnck8+t8Zja5SxCjuKC3UsjM1n4KKcWQuKsgZlkQ9XdbbI8pxtxsqAyoQbqUmsY2xFltFZYVRCGKVCTVap9pTRIoz2lQoRKlRJikfWrbmn9AlsUmUDSbrx6c4qmzxlUzLBxnWw/pUuNln+kFgteHEOZpEm6paxVaKCrbIZRrs96mcYJRVUaZYa8XA/U6qDPepToYKokPGgN/ieSrDB79+rPeKx2YNNmW42VW0dXL2+vvQM6SlOMMUxahMIW1wnlfq5/I94QRbBg4BRxbGsNkqBh3yPmzTLDztbxAmk4i4udflcdiBJve8zGRgvwkRVJoqwg8B2CtsG4k4YjQ4eSjwIA65sxmM9yqsCr6jwsiqrRFiF8IKfYWU2QceqLlabYCjuLZSP0bsYJ4kqJqlHvdubKowXn0kI41XYDmU7+vepe1bufowM9jfInXL2KGz0YK0qryDBPl0jsFKU1T6sTkCn10XH0ovECQcrIREYbHFC6qaIzczQxJS9mJoVjhHhC8DEIp5NOQy9S4U7JMvN6Wk8XMzxJNyXrVSzs69MFxdlUqgHJiDsFHzRCtURnuq4X2avAS8KrFZYqcITkuWRqgRPlUtQr3L4wOQ6x53m6vY1CfZUZTrKLoFwhQnB6WP/yWMi1z7epr0PbFR4GXjB7VNclFqPR32PRzo2BVl0Y+bMHRGJiMyaQBgi2IYrdCw9/BdCE8r7ivDKYYgzLepqT6vwVS/D3e1zZE1RziSlyckV7JJI8nGU/3JBPyH41bVNQR1AhSwaPL91GUpXCvxJE9ydri9uEVaUeyQGg3bZcRU+pMqhCHu61+IozovA+WwV8jq2C+U1PF7G51n1+LUIP0/PkhdjgK3ohmACYThLtkgTE55im8oazlafmSL5S/Y0nGGWYd1u4Ec+zJ3SzbPxewI6+IrsmtLRG2uD845jkCAnhUtJ7p6HFvLL9u0G7o59e1F6EJYp3O5Vc0f7V4pUlA2+PFZjgMCU+foO9YMr18N92EmEKudXGOFJVi7sXdyYHhU2i/Jb4NZR3fyu2IPP5QJkuG1NIAyX2ED9xjZ9r8JVKHviPiQ66F3aCHuyZlsg0KewwhPmJlZy+9JrishhKaXeBKiuqmCaJjga5TiE7Yt4tdcp/BCfWzYleNKcHIt4Jf9l6NNP1Io1uzAm0cN/iXAywiFF/F3nBMNTotwkwk+9WtaYk+OW96kJhBw+x5MW6rhEH8eJcjSwcwHzCuQwi6Js6l5fdKryCy/J5e3niosLUSRFpf4ydtJKdpUsR3lwuPZfIZRK2aDwK4VvJeHx5VNYVcx+IKWyKMOdRxA4biNTSfIBT/kCzr+g/0SrJIrAUuerpD4/UUiXhCNzBCtjAiFXqIs0Ub+M93jC51T5GB7vKmKFnSuNaNu7e3CflS6ugXp8q6NJfhdth+Fan7RQJyb6eB8+nxLh0AG/gnA7iY+1blXu84Q7Mx4PrHiItMVdiM/ivN1IXO6UjVXsivJh8ThSCRxkk/Ef+YhH6F7sfM+Hn6vPYyYU/p2jCYQR76t/b+jyOVT5vF/gf0T5xEBUwZCsl7mZ/pgGzlP5HlXuziiLV812HvYSBHqKe3EJwbSKg/H4pCiHDOSkiPuwwxrf+iBQlc9PEr38fFlKXgrLsNkJkYB7Rjufd6rySVUOE8FlWq0IsYc4m3JXDy7vzS8U7hzdzcPmp9C/XCYQQt62A+GH9/KVwwWORII361ZGSkDoEueAqHzXF/62oosXi+Y9/iJNTGlnL1VOVAJh4PZCVE++Rko4H+38IGiVxx98+HpnI4vt2iEf2IfWh3uhpd18CuFogX2ArYbWsuRqdbucNwh34fE1e/lgAiGaHa4q01KM6atmqghHQhA/YadoOitZqy54j/ug3tCX5flVvawtGmHglmSGJuqnBynET5P+2BnO27u8i9CH8op43FGpXGyxFAq/HRrbdGeFS3D5VFyQrXi+msk3KJcOfqkP53c2c3exnFRGAclOEKKg+iabzpmxopdTFc4u8XvnMGiuF1gkFSxYfjbPF2Mc9sZLdGet4DZg3zCAlKKNwEkswQnpmbK4FOdXDHOqn69flCxXIGV7YjDYMvWp8M1uj/PWzCzPqzETCINtkRD/e3D9AEeq8hlgtwGx4N67l3PpA9ahvKjOWcjj+ytmybKiA6Iqda2M9dyJkXIRwo5FN4f8D/g1Fa6kkps7/sRL5sQY/QI4J8TNNTSqH+xR9z1kZcsEfFX+6iVI9TyLGIEAACAASURBVGzm/tUp2VxOwEwgFGC1nUNjtc97RTkc2BtocKFJS9xb+F9JO6egVyBIW/2kKvf0jePe1ScV54fvwJQmO0bxbs1w2sCXrjuqtTI0Al0Id/vK1dtvw18fOUmcYLQSAQHnLEsVHxWPcxX2ijAEcgSjL7BJoUN8rvOrub3jLHmhwKPJW/cmEPKG+i06UpX6BTR4GfZRCZyD9lDY1fkrlKJY0H5R8IwHj/vKo77Pg1VjeL6Yg5U4cdBezUcFzgAOLKW34nn8aLjXKA96wjXLl7GIm0wkhMteZXIb4z3liwJfcj9IwrVfHtYENvrC95IeVy2bKU+Ww6xNIMRkld84+vOFqfjsgrK3wHQV3inF6ziURYIEKo8KPOwrT4vPsqoky0rBQW3GIk08uIxTRDgFsfgXOX+UlBUK364YxfylZ1hWvpx5Dhiov0QbpYIUBM+vXU4PKyMn4L7T/uRnmd85m5+XugOjCYSRb5TIWrooZn0bGOfDtl4Fde7pkfjs44KWDLyGiGN8/n4eEvgTPKbwsHg8rH08n6zm5a4NvFpK93cTUlpbUUPKhUh2qZYj2wzlZ9h5kN+pWWZ3zCmfo9yolnlaq+7aBzcIQVyDkomEGBWvYdh9BqUt3cPtpZwx0gTCMHZEQaqm1Js2joqqBBVru6iuzDIN5ZsDoZ0LMqR/dCpkVWn3hMd85W8q/DWR4cnKJJt7uuhLv5u+UnzvXjdPt/GEhRA4edUUdhFKsvde4F5fObuzRZaX5AzzMKnG+fpBVb6BMsVi3oQO3F2LvegLrZU13FjM16RbImMCIfR9E73BhlZ9ANg/lJ76oxR2ASqgLsG6+zfg/mfwj0KPuONfwb0uWC4eyzyfpV4tT5TVUbDzGZnLTpJgLsJRaAxjG/Sv5z/Wzq3rwD9vbBf3mQ/+cVdX2h+4KY7fAy640t0oTeleniuqGBihfDBHbsT5xaSrOVjhWoFpI7cUaUv3veLLP79n3hwV1e1Jd1Lq/u32aDxPTYXXFC7s9vjGmpniTr9KqsTxi6GkAEcxmZAFQpevNHnKKx70qtDrCxtFWCseayuzvPbsLDYWYzyCUNm/4VCaZY7C52IS+Mh9qW4EXh/4t/uCcgGmXiTBSyhrVdngCb2qZMXD0yyVCqNF2EY1uBoZjzBWYBTCaJStBv4dh4iPTuj81IMLlnezxETC4Du6IaXVOKdZ4VLV4Cl1wYtAxgcX32SDavDdskngFV94QZTXUNYhbFalT5zAFSpEqUQZq8I4JXgyvIPAGLdPVRkTxG4QqmOS92YtcNGoMdyy5DRxn8eSKSYQinApQxYISpb90rPlr0WIIm9DnnCpTq6s4DyUYwssDnqA1UAaWKHKcx48l4F00qezvY9Xh3UnOkMTE/dibGUVkzRDoyjTfGFnUeoGvN0nFTRLaf+JyE/waUnPlmfytuBF2FHg6FzNRxUuwj1jLFxxwnUd0En/88BOH54WYZkI6douVi25kE3D+dHh/LL8zeyoHvWaYQrCzjiHbv6xT3co8CnDeoQUO3BD+jjpLhz6cHs2gRAuz7xYC1UguBH7NKVny/y8DL4IO5nSqlv7ynyEY4DCBLaSIGbEg8AjkuVphefoJZ1Ohf9l5P7QbKhikie8w73OUJ+9B5L3vKNAX8LBdYMPZ5lPwtt/gOra9GBR2tzrpwJ9zJx4fVyFBz2fx0nwrMLzkeQ0UJWGi9haa5kiPu8UYTfVIHKpm/u2BZm/sE6VyypquaZUfBJMIBRkJ+XWadgCQeE3Hc3iYrFbeROB4Mi2iqsKJA6cs97D4pLHCH8Rn46abl7Ma6a5RZqY3M6OCahT2FuUIwT2d9cUed4s7rrhZ5rlFHvd8J/kp16uu2Wz3IawR76P3Qfim/xCPO6mj2czNXSufJ11+bwScq+KqmqY7GeZSoKDRDkMyL+gFV5Sn0s6HuVrpRAZ1ARCnr/lwugubIEAdGW6mbQyJa+FMb6SsZFSr6GGS9Egh0b+ki31JzV6COXaRCX39wivrDxbnCNpQYs7WdhYwbYqTPcSnIYGgaHyeaLiBNN3krWcWVbOsYOs+rQ2nZRV7tH+8O35/E5/FY9FWeVWP0v7qmmsK/irJVXZeT6je7JMRDgCOBWPyXkTTf1XYu0os9Mt8v2CfmBD6DyfmymE4ZoJRyACgeDc3j/f2Sy3G+F/EmhoVRcAaa5zlsojl2cELkzU8pNYH1O63BPzOchTLgXen0c+m1S5sqOdiyziImzXpmNGw09QPpzHNXBi9U4VWjua5Ok89jvsrqZdrVtlNnMqQlOeP8eP+R6nd84S9+KsaIsJhCJcuigEgsuH0PEoh5fCsVjOS7pIE43tHKTKVcC7crY3uAF3d7sS5brkKK6PtTD4j7moNMznSOdEOHCkWzv4dHOsoazwPFq2Gcuics7dsH1KR4+q5mLg5Mjjcbhfxv0vZB5Tn9kds+XPOa5iXptPm6vb93mcLzDDBTZTSEY6AEFF+ZGnNC9rcc/D5c3POCPtPizjJhDCIplHO5EIBHjNE/Zvb5Jn8ziV+HWlKtPaeHdGWIDykYid8lzSqhXAL324prNZlsQPyFBGpNK4gDrNBH+oPglBYJ6KobTMoc5ffTi38xH+XI6idtJCrUn2Bk6zFwATcuA4lKbu+eyTKny7YiW3LL1GnKAtuuL8ibSSgyTBCSgfRBgX8dWDezZ+lXQxN50S96qj6IoJhKJbsmiuGAD3oZ+bbhb3i6Rsy4QFul1lhvOAkyK+X3e8H8DjpmQ195bCnfqEG7W2cj0fwucE4H8i/lXr3sv/QCs5s5yy6wUfzBmaaNg7+APnonlG/ZzxBZQ7Jckt7fUsKbiPQQjfTFNatU6VGSrBPt05BJNbMrHW+TClW8RFvy26YgKh6JYsMoGgCg9k/j975x0nV1X+//dzZ7YnJKRQQ3Y2RFBU/AoqKCBFBSkCPxVQARVEOkgg2ZICA0K2JPRmAAGRokGUqiAiWFBUkC7FZHc2jZJG6raZ+/xe5+5EQkiZcu7Mnd17Xq/9I6+c85znfJ4z937uOU8Rvr2wQRaUICx5q7znqVq2dDzH42JCPkfnLXDTAswd7u0Cs2q7efWpuCR9nKvAolXGtDG+3OWElHK+mORL/rUuFZo7G+TH/k0RPMnGKTEJl6vydR+rvpoj8ddFucLp4cG5cXk3eEjkrpE5TXDL2M+Jcj7KIX46dyrMicDX2xvl5dw1Ls7IkCAUB/e8ZvXjisEoZMKVBKYmGmVWXgqW6OBxbfoRV3kE9cKjfGmqLHWg0Yny4NxJA+uhuz5gxjmsdzVfdBxm+vyVtowI30hMkqd8MVjAhJpIkjWVnAdc5GcCK4En1GVKspKXghBB448ZVGLN1OJwuirnCPjmP6Pw17VDOXRxiWVaDAmCPzvPV6l+EQSPIygPJVOcuWCqLPR1EQEUHmtRk2/gSN/uJfuTHX0r1sWzA+vUYBPGjKsztpKPOcLNKJ/3y+QCc8qFPQZCCfEtYTR+uu7W5/Bn8TEZkDjcKS5ntzewMptsh1vSPaj/v2urDu2GEwUu8zHSwRUh3lFip10hQQjqrt2MXj4SBDPr2ypM7Kzn7sHwcPBg7g/ZO8FR7vBlOwgplJdFOK2jnn8NGlzTYI6dqbs5Sa5Q+JJfR+LiMLMjRuNAuCPf1B70Tg+qeNTHkEaTInhWspymgXtqsHF0TSrn1Bq+p+KdzGzvy5WDspCod9pVMmntQ4LgyxvBX6E+EwSj/N19QsNg8UXYqU13jqR4AqHWB8uZ5D5Pa4QpnWv4RyGzy/mwlpxFjm3RjwvEvQx3psiO/faWK5w4r0GesC86ABJVpa6VM02FRj+08bIhKjemKrhqwfmDM2GalwisghNEaKS/CqbV96NCUoT7kmWcWSoYWwXAj40byvwwAgUgCEsRLqjp4p6CpvUtgrG9cLE+WlAvRK/cpgreAwH+rC5TOyfzTKnGQtvCpK5Vd3X7Eysdbf0kwWSfhF9Hujh3oDnUGfxj0/WjOPwWqLNlj/XkLDVZO8vLuO7NibLEB/mlI3K2Rmo7+Fb6usGPD4aFCFMSXdyVVVG1IiEYEoQiAZ/PtAUgCEa9Z5LKiQuaZE4+ugZ9bKxZv4pwfTp237a6/8bh/EQ9fx7s5GAdsOYkwYHLwfMct9sUE5I3JfE8dwyk3Aix27RS32GmwKk+5JcwpZdnuSlmhjUu0tsxrtG6Sr6DiRTBK4lus7kq/DYinN9eL/+1KdgPWSFB8ANVn2UWgiCkv35nJhrFZMgbkG3H6TqyrN/L/njbD16BBaqcmOjhz4P1WmFTm8bzSUhxiw+Oi15Bp5TDBfPrZe5A2bTjmvXLKeFG6T/2tt1uTQnT5jeIKSEetjQCe87SsiXLOFH6c00MswzMClNBt6aX24J+QhsSBMuWL4S4QhAEbx3Kyohw6NxG+Vsh1lXoOepa9UiFq1Drx7YrIw6HzV3L30NysHGrpk8S7vMhBHKFwLkd47hrIDgsfjyuQ9ZUcTnKSbZJLMof+4Zy7MKzZWmhf3ulMJ+pEFlexamYUu/2M4P+0VV+GPTy5SFBKIWduoGOBSMI/fO+E3X55JzJsrgEodqkyl7GxJQX1mSObW02k2DmjMGaSyJjIE0IZDmHiXCP7WRKqjwcEc5qb5R5GesT0I6xFjVXMaYmiO2Mf4tc5RPzmmR5QJceCLV2nqHbpFI0AydbVkhF+F5HF/cE2RchJAiWrV4IcQUmCGZJv3bg5PZGWVGI9fk+h6rUtnCgONyKWoxc6C/TfGeynIml4qXsO9abmcAkU3LXcoELkyynZe524dh53TxSyic46fj8aaJcYLkmyDKF73Y2yiPFtH+pzD2uWT/rOlyNspdNOwj8ta+co4L8rAgJQqns0vX0LAJBWKnQunYo15RaJrCNmdc8eHtcpnglYO01V+FvkuKcxBReDJ0SMwN2TJt+JOrSAnzN5jGuwn1rhJOWNMiqzDQJWi8vrPGzCrNQ/s+WdgKrVZi5povLF8dltS25A1qOiWyYy7fElH6HsbbWqpByhK93NMiDtmTalhMSBNuIFkBeEQiCWVWHiWPv6eZXi+KytgDL9G0KL2QswoM2UyorLHCEySOG84vBXII4e6N55aIPweUqy8foq9TlkFIrS7wOP6/yYCVnCh55slUZ00V4OOlywUCPTsp+H25+hPdRAZegXhG3Kovyn0pszcGcJiZMN3AtJAiBM8mWFSoSQTDFnP4jwtSaLn4bdO/bzaFY16pnq3r3us6W0c6gh9CDcle3S+PbA8xXI4PV593FqwK5nGnAuTbrCyj8tLNRTslbwSII2KlVd4i6zFZhH4vTJwQaOrr5dZDvvS2u16qo2Ez9KCl+ibK7RcF9rsOB8+rlaYsyrYkKCYI1KAsnqEgEwSzQRXnFVc6c11uqHvoqta08K8oeFi32puty8rzJwfyRW1ynb6LqZmqtJnkA+JTFSd6TSj7acZ68Y1FmQUTF2vSruNwPVFiasAfhZ5TTkJgg71mSObjExNWJVfE9lFstL/yORKN8z7JMK+JCgmAFxsIKKSJBMAv1ysC6Lt+cN1n+U9iV5z/b2Bbd14E/WTs9gB6gNTGOSwZCWN2WEDbx4atWMUxS9LxRz2p7dSW8q4ZjcfnFlnTI5v8VLuhsFBPLXlKttlXvEOVEi0q/7ionzGuS5yzKDKYoVRl9AzXDVlA1bCTv2bzyM/t/2XJ+q/Bli4tfLEk+2zFVTDG3QLWQIATKHJkpU2SC0K+k8g5Rjkqs4blSOq6sa9GfGQ/uzJDOoJfS2TeUPQdqLLnJT98dZdtkGd8Vl6MQz2HO3IkborgY4QlV7hoylD+9upi1+UUNqMRaMDk39s4A+Uy7PJ8Yx2dLibylr1zeArbKdJFb6GfqgVyVaBSbTrmWVLMgRlW2nUl1tbKHpjgZ4SvADqaWQjrh22s4/MaJcJdTRuecc8WQ+pxbbat+TJTnLZ7udClM6mwUk9E1UC0kCIEyR2bKBIIg9Kv6tipnr+3hsVLwiB7brFs7Qoe1zGiCqlLf2SgmG+PAaiYUdDrbEeU7KOcJjNnUAgWSKI9qhJnJKP/MpxLg2Fb9kqM8DJYKOikriXJwKVXQi7WqOca+3daGMg60EZcvtU+WN23JDIocU4XRXcPursMFKMds4WTwLTEZKZWftXezIB8yW9uqd4p6GVhtNHN1+3C0hmPzJS82lFlfRkgQbCNaAHkBIgjmO3I+wuWpLu6dfzFvBTm8L9ai3wLusWUiFeYmU+y1cPIAy0QXV2dcOeNd8eLvv4Vk9CVr0hy/KnBpTzcP5xzpot5Vw29RvmrJTj0CMzoaxThBBr+Z9bfyR+AAW8qqMKOzQeptyQuKnHSmw4NVmSrmZEuJZKDbGuA+E7LYUc+buV6R7dSiX4zAr4GRGcyZSZfX1eH4znr5dyadC9UnJAiFQtriPIEiCP01URdrfzKl69u7eTUfZm4Rpg+Jssz6cV1+NG+yXOOnzoWXrbJTG+Mc1yvN/HWE6qx0UF4Sh4kdXTyZ69XT2Ol6RMThHoUhWc298c7mKuTJCuHoN0ogJ8IOl+pO5VFMER9bzolvS5S9OyYG7347H9uaMFCp4GsI0xQ+kWVp5h4Rft7TRdOieG7VK8dcoSOivVyJvevKpapc2NkkN+SDi+2xIUGwjWgB5AWNIKSX3AX8S6Gls1F+VwAYsppi27huU1XJU8DHshq46c5z+4QDFjbIAkvyAiGm7irdVrsxpMckLsol3tucJDwSiXDK3Enybi6Lqr1Mt5eId8R+cC7jNzLmTVy+m5gs/7AkzzcxdS36XYWfWZzA+B5MsCiv+KLiGo3VcDj9KZA/miU58PQXWKXKuYkmye0qpz950tEi3AIMzxcUc03nwm3SzbmJuHTnK8/W+JAg2EKygHICShAMAublsFiEeyMpLglS/YbaFj1U4DZgWxumUpgp3UwL0o8533WNa9FhrvALlIOA8jzk9ahyfGeTmGJMWTfjGLm6ilNEudZStMlSFS7sbAjW19nGgIm16F3glRrOvyndrvCZeY3yav7CgiOhrlkPxuEWNX4xat71OTbhtUQdn8zVgbWuVXfV/j1qnCJttCdFOKOjQd6wIcyGjNzBtTF7KCMnBAJMENZfzzzX5YJ54/lNrj/AnMDZxKC6Vp2m6qVWrrEgt0scDumo569B9rnIZp2mLkJyDQ8i7J/NuM30/UWiUb6dq6xYq+6NeoTOfCHm14QUyi2Jbs4M6vWXWeC2M7SmKoW5g94lvwWnRwu/rRnCca+eNXBSKsem6/4IjyKWnFgdDkjUiwl7zrqliWyDKHFLRPa/Cj8K0glsSBCy3hbFH1AiBMEAtQbhQUe5obeb/yy4iOW5OgXlhbo5kqzEfJl909IP+UlXOSXopVozwkxV6i5jrEa9zJJHQEaOXpmIfjfRyHa5EiiTSdBxaRGxkwtA4JFe4fQgXwnVTtfPi8Ov0iF6mWC8uT6uCueMGs7NNvMA5KtUruPNy7irmoPV5TaFUbnK2XCcCJd3NMjEXOXFWvQoE0IKxHKVsW6cKqvFYVKinllFeU5uZAEhQcjXqkUYX0IEwUNHYYkID2mKXyUjvLSwi0WF/JKrnaF1pLhDYF8L5lJ1uawyQlspOL1tdr1xdeqq+IjCRSj/z1poYf+kWtPNVq/mWhBotkZiHZyDcpml9MvPuy7nBDnbZaxZT0e8e/W877SBt1JJjpw/VZ61sOeLKsJEK1RUcZiqV5diZ8vKPJRolCNzlblTm+4ccbnR1jWDKDOqe7gk599NrgvZxLiQIFgGtBDiSo0grIfJUuAxcfiTm+JffT28kXM4XBZA1zbrQSJcZ8lBcZlg7gm5NygsPwso3u9qTg7a2MU1IWLwdUsv4Q+oEnXZJh8/lFiLHgKew6SNI/e3cJiQqJdf5oRXAQbVteg1CqfaiGAwJyYkOSuI2fmygdILZUxHKwC75eKQuLn5BJ7oaJScsyKak421VVyu6tktH78dT02B+4hyQVCiTkKCkM1uDUjfEiYI5hegmOQ1wn9weRnlGeDviSbe8OuFm048Y74+trNgwn+JcHZHg/zTgqyiiai7VGu1jGYUc0SaXShjZlr31XQzJJ+iXmObdZwj3teZjWgGU4ugMdHFNYU8vcoMKhhzhVZF+zwHURM9YuO5fMmabmaUQgKzTWGUfvkeqf13/NbJQf85F/ckmiQvp9C6Nj1FXa8U9OhM7b2Zfv8kxWmJKfKCBVl5i7CxEfNWIhSQHQLWCIJ5Wff/SIq1D0yJ02UiLHZd5onDXwWeXdvFi+9cZNL4mkyp+bfaVp0iylRLR+izU8KE+Q2yKH/NiiPBi1ZQ7kC8F2+lT1q8mGgUk5Y555Z2Arte4KQMk+Bsdi4TebJGuGRJAPMhGDIkcIdYqN4osNoVTu+s525bv6GcjZjHwHFteoTbXwZ8nCXStDFtzks0ivG/ybnFZuhe5grT0knXIpTjE01iQrKL3or1Yij6wktZAWsEwdRTgHk4XhYyWzXnc4XWhEianPGGNHQjzEd5CXhDoN2FBalyTFz9MqBrwUp6MvkSNF9mkV5mCJyVq2L/G9fvDX95YhyTgxCZkct6PHIAD4JXRjiTzHO5TGO+gVsTDdKY2+D3R9W16ETFI3fD8pWFcE8U6ucEMHfFuBbdV4UbVb2kP/k2U3vgjFy98/Od3Mb42sv0QHHMNZ61TIUfUksVN5oiNneqzM9HZy8CaC2PA5/LR44Zq+YZ43JMZ5Op5GnnAykfnUKCkA96RRpriyCYHO3i8k0c7/7sBBt3aEWCpFDTGnIyNdEo5ti7xJqXwnhbUvwsfXLgm/7GKTUCB7U3ysv5ThKboUfhci3KTvnKGizjFf6AcG5ng7xWcms2EUcVXqXE31gLZdw0CHmF4q4vNtaiJoW7qQWRN+l2hLOqurgln+s5W3YPCYItJAsoxypBcPhabC2vJCppA0xN8hEFXEppTSXMFWVCR6M8lLficXXGj2BITzejI30MRahICW6Z0N1bzrLoSpZaS8IUV2fMVoyL9NIsYDy283am2sz61wpcVS602IjyqLtcP6V9Xv0MWxkw8zZd0AUo3Fnmcn4+DqLr1mjKGy9dwUg3yQiEKidFmQq9EWF1byVLFoxhha3TNO+0r5tDHYervSRIfjal04Fj2pvkXzamibWqiQRqsuJgqlxW3UNLECIZQoJgY3cUWIZtgpColxfShU9MWNnpNmJ6CwxJoaZ73hFObW/IL3Rs11Yd2qN8wUtKpHweZWcVRkj/FYupa/GSCH+RJE9V9/F6Xl8ScXViQ9hFk0wTvFDGXNInZ4qvuRp6KCU0za+XuZkO2ly/HafryKjDowKfsSFvEMgw+Q+u7BxOE6eJua7LrRkCW01dX4r9xexT4f9U2UH6E429hzIP+Ic6/Cnq8Ne5k1icz5G4V+J6mVdbIY6wq89+UQtFuUS3447ESXbSGte26vGizLKRiE3gpyll0rwmWZ6b8eyNCgmCPSwLJskPgmCU915cLt8AJiDeXahTsEWVwkTKXyTFifmEjo25VHcsizBBxfNW/8hmnK/WoDwrDj+t7uKXuZEElTFXsHOkl4sFjvYpWmGd5XpV+L26xOf18Hwm/iEZmfwYjdTuwaMifMlHR7WMVCmRTmuBHycaxUTt5NxizfpVhDPpzx2y9UYF9Zc7X2gyG2qEK+dNlP/kMqEXwdHDkabwkm/RCu8rZpyLr06Wc8uC88VcGVppdW26n7pemfKtLAi8P+pyqo0ToHx1CQlCvggWYbxfBMEsxZwkRKvYx1EmK+wrEC3CEoM5pfDomi6OyTV0LHalxujxvLJNKeNMq/XNU7i58zmauVdS2QBjih4R4VqBw3w9Oeh33vyjlDGpYxUvWyMH6cXWNusdjvBtDfdiJuZfLDClo1FuzqTzxvrUNuvxYl7Wwi4Zfsn3KZjw3wsSDWLCljNvcY3WVnGkqBcmaPJd+PZO8hK2weV9LjfbLtGeDsl9zlKSq6c0xXc6p8hbmQPpT0/fjOGPuqFUg4CfBMFDOK7RsRWMdRwuRck5n/4As5YJufxNooFv5hI6FovrcCq5Pu3IlFXEiEnBinBN53NcmClJiF2pw+lhNnAA+Buhosrf3Qgnzl9Lh21ykN7vV9AfheKn78TA2K4m+kdMut7cEkLF2nR/UvwcydIptP804XUi/KBzkvw9UzBrZ+qhkuRmhB0yJCOZit6wn6mQeHHNUK7zozbF+It0q2QV7WAl6uL5PuHIIKQFDwlCrtutiON8JwjrrS3WomcA5gHtV7x8EZHMfGpTjlXh54lGOTnzUe/3rGvRsxQuzuMBYiokzuzs4cItvYRNKGMKHraUWnpLy33egQPbG2XFljrm+v+1zTpNhClZnLrkOlXJj1OYA5zX2SiPZLuYtG+MCYE1BbtyejcovCYRTkpM2nJp7doZepCk+G1B7OrQlKjP79plS3jGWtRcX2y/pX4Z/P+bDnylvVGMn0dRW06boKgah5P7f4KwAcbpynqtAnuoUOMz0w+qhXtFuKmjQc7JVkEva2GEnyDe1UI+7T1VrljVzdXLLpaVHxKkKrEWas1pA/3XCnmHXG1GWeMA93RKON7vpFGxZjU+MeYIelCT1Aw3zuuOck57k/whw/7/6xZr1u8jXr2D3Eui92dK/YcLk8Z188xTcUluqMf4a7Qi1cUh2l+t0++oKUNcW/L1ycgEy7oWfUPtpAXvMCXXE02SyGReP/uEBMFPdH2SXcgThHVL2LFVx5Sl+CEOxyCMD0BiJZ/Q3aTYHuDGRKNMyHbiulY9Uk3FN6Uu27Eb6f8uylXJCmZ9wMnKRCuUswuOd0ph0idn6uOQi0rdqvxRjaf1ZF7Lx3s9k8nr2vQsdZnhqx9FJoqUQh/lddfh7HkN8kQ26sbiWqlVXCvKSRaIpSEJf0a5KNbL0+uTBBOtULGcIxSvKJXJkOhne9v8VqI1/HEAJAAAIABJREFUXDXnXDG/X19brFVfQvlkvpMILHD7+GLnNOnIV1a+40OCkC+CRRhfDIJglul5G/fyReOXIMLhNsuuFgHGbKfsVuH6zmxLw5qv+lbOBVotvrTfVrg2spzr21tlBWaOZnZVp0ChjPC4poh39vHClq47sgV5Y/3T11yXhwQhAzRzJAhpJ7uf2KpKmE7g/ueUMG1+vfzFaJ4OZTwK8TJjmrwWfr5/FnqFviq4KTFB3ssAuby7xFr1eZS80ot7SgiL1GHfzkkhQcjbKINRQLEIwjqsjXe8E2E/VzlRxMt6NhiOfk2xnxsTDdmdIJjj1L41TPG8wu02k3b6+sQ4LovNZSeT2hi80Ek/8xwYb/Xfk+LCQpEDA1ldq56t6iXy8nNtdq1TLGk5EoSdWvUzEfUqnu5lUXXj2PtPjTChrIJ/J9dwNMKFBSAHbwNX9rn81Ha0wuawqW3RVwQ+njd+xtHU5YvhFUPeSA5OAcUmCB7qcXXqhrCTunwBF1PH3iT8yco7v8SsZ3wQbulokKxqOqRrQZiSypN9WO97ONykym6ifMXiCcXGVRWeVDirs4s3CnFy8D9C2qLnC1w2SIhovtvkDUlxTscUMbUBMm51rfo5VzGFsewmpOr3SXhDhLtV+b7hez6fHBifg+mFPDlYb5/+V2B8xqBvoqNCuxPloCCUfPbziCdfnMLxm0AgEARhnW6zNTJ+DiNSEb6qcD7wSRuV9wJofJOD4K5Eo5h01Jk34xtQSb3nZOdP1UyTfdE4I/rpkGiOPf+tSY7onMLbfvscbAiuzTS2mRuuZHu2C5yXbTrwsS36cQduAL7o08pNmGEhThobotVcXQifgw/g1H+VaPIW5O7g+b7ANxw4OIxi8GknDnSxgSII64FtyvOuquJIR5mYPkY0R8ID41Sh/0vo/kQD38g2D0Jdq56oirlDt1EvvtDbO6XCM2VrOWzOxiInCqBNrE2vwvWy+g2MveQjZsbBTR3qE/Vi6ldk3MY269aO46UK/qZPRDZjXXLqqHSLw4UdDWKcWQvePPzECzHNOyrDlLzvK+foBeeL8aMoagtPEIoKf26TB5UgvL8albrp7IvDcQpfMP5JCiMHQFbGx6LVHDvn3I2EGG7GlLVtuoekuM67himtZjy/n3KVM+c1iUkCU5QWa9a7EY71/ZSkKKuzPulSlKmJJjEOh1m1WLM2IZgS3TbSBWc1dz6dTYZER2grFjkwuo+brru4Dv+wkUlR4QlxOCFRL8aXoqgtJAhFhT+3yYNPENLrmq2RnRLEIsq+XlEi47ks1KmyfSmSBVWeVvhuti/LdPRHPJ0N0BS7KYVmCi/9XhymdUzk5WxPTawt0JT/reT3CAeU5JetNSAyFtStcFlno1ya8Yh0x7rLdHeNcBvCp0sIay9aoaabG4pZ/bC2WQ8S4X5gaLa4b9hf4L6IyxlhLYZ8kRyk40uGIKxnH+PNr6v4SNJhV1OtzXj7mqQiaaeeYT47LtnaKS8S4bRMssRtOOGYy3T3aJTrUPYpgSJYJmLjMRUu7lxbmFDGTRmo7jLdViNetr09bBlxgMsxkQPXRKtpyPoePq5ObRWno5ikaENKACdTlfHqvgp+arPwUi7rjk3Xk3C8KJDqXMZ/YIxwE+U0FCo8c3P6hicIeVuz8AJKkSCsj5LxVVixFaMjPWwjLtuow84i/WRB+72AxyBUB/ArJqHK+Z1N8pusrR5XZ2wFBzkOt6JZ5rnPerK8BhhnzD9IhPqONbxSyGiFjWm9U7N+NiL83BQbzWtVg2mwcA/C+bkcUY+/RrdKrqUJaAg4aV8syowgkAOztWLNOh3hAiv1QpSLu6LMeGeSrCn2tg0JQrEtkMP8pU4QNlyyIQw9I6jUHio1RaUKVaTYxvzuNMIOooxSYSTKcMz/KRWqlIuz5XLUokQVasGTl18TTMKVixINYlIZZ9/McXkN+4rLvaqMyl6A/yNU+CsO3+2cSKJo1wrrLbOuWY9R4UpgRwurXw5mXRiP+qC14Wa/o1ZyPTyVSnHO/CnySi6LNIWH+iqZKuI5GwfxHdElcGF1Nz8p5rXC+tjGWtR8NBxp43RQlNNGjOC2504Tk868qC2Ixi8qIKUw+UAjCH5iPv4crUjuQBviZTPMt5lIhqtGjqAhnx+viTlX9Y7NR+arkM3xIjxbDge90SCrbMrNR1Zts5okU+ZrNu+7XVV+7jo0+l07Ipf11k7Xz4t49Tp2z2X8+mNMwSZVzpiXQz2GdXK81MuV/FjwvooD9Z4wxKWjQUxUUCDaDjN1VEWSRxX2zFchhaTj8o2OyWKKZhW9BcrwRUejRBQICUJ2hoo1q3nBXOhdW+TffuPAeXnFKB+jkdgefAXx7ixN4hgnf7XyktAn8GcNiOf0+i8pKr3QuxPzfkn1h6m29m7NjxedJmvzQsuHwTtfrjul+rjTUh4C42B6eqKeO/I5Bdplpo7qTXpVNH8IBMG5doXApR2NMtMHE+Qssq5Fv+jCrQI75yxk3UClUyKc2JFOT523vDwFhAQhTwCLMTwkCNmhXtui3xG8VL35H1MLL6hyVmej/C07LT7Y21yrrK7iCFEuSeeMKBZJMIWX/iDKpMRk3ih0EqTNYRibrh/F8ZL3HJgP1umxXarUdzZxfZDWuG5dZj+sqcTkLjjaEmFsc2B6vmW4x1yhO0Z7mQReFkTjTFys9pYIl0equC5r50ufNa5t1rNFMFFKeZ8IivC0KGe0N8rLPqudkfiQIGQEU7A6hQQhO3vUtel+KDeo8onsRm6090oXzprXzd35OvCZY1yp5muucqEou1l6MWSzRHMX/xgp4ok+Xsp3PdlMnEnfuul6pDpclT5lyWTIpvsI89VlQmeT3JefIP9G1zbrTBFMKu+8Mw6aWHpVTs02JHdjqxvXomNdMOmuf6BFiG4wyZ+AqwVuzpfw2LZeOpX61Q6cpBC1IP8XfcKkhQ1i1lz0FhKEopsgewVCgpAdZmMu1R2jEe5C2D+7kRvvbbIiSg+XJuL5V4nz7norOBRoE1NGu3DNOEA9agovBZEceF/UVUxAvfLVNkpX/0uEszsa5J+Fgzi7mWLN+n0cLkfzz8ansFQdjppXz99snJiYk4SyXs5XMOXOC/ne8E4O+sq4rdihjBuzZm2rfkxcbrT0bFFTBruvm8sWxYNxDVZIQ2f3awl7bxKBkCBkuTlma6S2g9sc5duWWP4zjsv32ifLm1lqstHu6RTV+zvq3UHnH22RgVJivjBdzk708mbQTg6M+t5XqzAT5ZgMlpNJlwckxWkdU+SdTDoXo4/JuInLA2LCfPNvapw7q7u4+tW4mHodeTfPJ8HlAtyChUCuUOXHEeGWoJ0crAOzrkWPVbwomx3yBhjeU2FiZwO32iB1FvQpKBO0oW8ow8RCtejT9KcwzqspLBCHryXq5YW8BJXA4LpWnaTqlVzO2xsepRfhyEQ3j1t7ufbnSfi0I150g68kQeBf6nBkop53gvIg2nALmWshE3WAeiGq+bY+lBsTjZyXj9Nevkpsabw5TaKSZ7FRMthMJvwlupYjbNbQ8K7FKpmmeLkSfP3AVLigrJrrg+ZzsM6O287QmqoUUy3mjHjNUc5tzyP6ZEt7LNv/99XA2SoT9s8MgZAgZIbT+r1izXoAwt3A9tmP3sgI4abeLibYPgoc26L7OnAXeMmUbP8+TRKkp9d0c/jiuKy2goMPQsy9blkfZ6t6jqU22ruqNHU2ya02hPkpo7ZFb5L+qIG8m4IbibJ3+0T5V97C1hNg8iS4VUxx8UKH8/aX2IhuXQiTEw1i/E8C28a16CdTcIPAvpaUfEz7OKNzmnRYkpe3GNsPoLwVCgVsGYGQIGwZow17mIdaspK/2Igz92QLb2svX7D+Y45rtLaSQ1DaxKSlVmtlnE365CdwOSvRJInsESzciHTI3y9snJKltf6PwHc6GuXFwq0it5lqm/UbIvwqt9EbHXV7opsfWDvpSk9hUmAToV7hB5ajGxYrtHQ2yhUWMbAvyvxOqzhOlJuspFeGPhVmdXYxgbgk7Sucm8SQIOSGW1FHhQQhN/hjLWoq3J2W2+gPjzL3o51NcqEteevkmOROfdtzuAgX4fBxCyShC/h9EqYtaOCVIB+zGwxizfpthNutpK0F14vU6ObribgEMYPiB7bPzjN0m2SSuSLWaiGsdF0+P2+y/Mf2Pt2xVcdE1YtuONkGSTBXniYRWXeUnwQhzfDm8DJ2SiW5CeEoS7i+ayppJhrkNkvyrIgJCYIVGAsrJCQIueFd26KHCzyc2+iNjlokSb7QMVU6Lcr0RJniVn1rOAzxstmZEMhcf6umZPOjOMQTa4MXyrghbmbdybX80eLpgUkaFE80SKttG/klr65VH1D10vZaaarc2tnDD22fIhjlTHRDpJfzBM7O57rBIwdwpSq3zWsSkxI70G3cdD3Cdbwry/x9msyPW3klpRznB5HLB8hcHzr5zBmOzROBkCDkBuCurTq0R3ndksdxvxJKa6JJGnPTaPOjvGRKlXxJ8JIFxXKYI6XCYymlcUE3r/rxgshBp80O8bzChTtRyizJfi+VYr9c6xJY0iErMbEWNV+lpnSwnaa8k3I4Yn6DGAdI682ruBnlR6o0SG5ZQb1rhVIhBwbAWIsaZ2ITnmyjpRBm13TxfVsRJzaUMjJCgmALyQLKCQlC7mDHmvVqS3UZ1imxMOqw/5x6mZu7VpsZae46o3xOyrgXzTqU6imUkxKNdAb9WsEgkD49MBE1H7WGpfKnRA9fDtK97pbWlo5maLflUGvy+4twa6KLM/wiiR75hgsUpko2fjPKWhymdDncHPRrhXV2i83QA0jxmKUrMCN2LcKZiQb52Zb2RqH/PyQIhUbcwnwhQcgdxHT6XnMfa2Xv/+/hW8/pfr6ExzbrOMfhPpT/y2j1yj01PcH7Itmc7rFmnYBg1TlNHX7QWR/86IUNcalt1mtNYqeMbJ1Zpw5HOdXPELo9Z2nZ0uWcoibpVwYZF1XpEuHbiUZ5ILMlFL9Xeo0vWSWxwtuuy25BvFqx8pAsvtkGlwYhQcjP3rEWNXfcNvL79yuidKpwVmcDv/WTJMTadDtRL/zv6+lcCVXgHcWbDGy9Yr5EoB3hJyOHc3c+FSfzQzj70WNb9OMOmBdF/gVv1k2vLK7pYVxQSgJng0pti5o8J48LVgqMmalNiOu9UZdz50yWxdnokk1f7wW6kn1IcT6wR/qO3mTCNLVGzFF6Ny6rFJ7CobmzQV7LRn5R+87WSKyDiSgtVvVQrk40yXlWZVoSFhIES0AWUkxIEPJDO9aq31PlFrGTO917+CrcnxTO8z2H+jEaGbsHtUT5QsTlowqjVTGJgN5CeCHp8szCybI0P4QKO3r8NbpVcq2X88AUBLKRVnndAtoSjWIqeZZc8+71IxiPdlv33AaDt0WZVt3DHX7fdZskQkNSfCqpmDLWY9REZSjvCbQL/K26m9f81sG20ce16mdSymzpr8Bqq62VCJ/vmCTmVCJwLSQIgTPJlhUKCcKWMdpcj9oZWidJ7reWE6F/ssUiXNJXxk8XnC8mrDBsGSBwQFyjiWq+get9leXiiLnRWQSWkOJLHVOC+eDdEjSeP8YaTkpfuZiTIlvtqWSEHy2YxMtBzaJpa6E25YyfrqOTjkdiv2PR98Co+ECikf8XVFuEBMHmLiqQrJAg5Af0DnGtLqtggnmhW62gKLwgwrkda3naL2ew/FYevNF1LfopxfM7MIW0IrY0VLi1r5tzbGe6tKVfJnLqZujumuJGiyGfZtpuEW7RcqYlJuRfbCyTdZR6n3RBtVNEvLTK21pcTzfKoYkmecqiTKuiQoJgFc7CCAsJQr44q4ydzhccx8uCZnIM2GopgUfV4ZREvbxtS+hAleMlm0kRpz/Rjs2rheVuhGPnreGPpUzUDJEtr6Ae8eoelFvcBysEJnU0ys0WZQ5MUeo9Kw5yIlydflZYe2cKPCJwfFALURmDWlvswNwdwVxVSBDyt4tJvdxXxTTBc6YyDlRWmkDSlIP2KzeCFSUDIMRcLXRW8H0VrgFsHqEbj827cJnUOUXeCsBS81IhXZvjWsgweiXz2ZaXCfv8t5ScBDNfm7WedTO11k1yvfT7glh7TgAmgdlxiW4eCjKJDQmCta1UOEEhQbCD9bhW/ZKr3gvK5imCeUG5kQjHtse4n2PFeI+HbX0EVCXWxl6qPCww0jI476pwRmcDvwnqvW5W652lZbHlmCyQZ1o+ZUFhjivsP79BFmWl0yDpnE6sNhVhEmrxY1pQlPsjSX40d6rMDzKcIUEIsnU2oVtIEOwYzXhaV6ZoFTjFh4fvWpQThvTwSKl5a9tBdxNS4urUVfEZhdmWSjmvP5HJHPmLVBkNC86Xhb6uo4DCYzN0L3W9qBtTl8P2M/v3rnLGvCYxiZnClkbAK+Wc5GwVLrUY7eRJV2GJ8VVKxJgd9A8I25st3GAFQCAkCPZATseb3yTCbj48fNtFmDBiOL8rpZwE9tDdUJJK7Qz2lpSXOjqzhE/ZKZNQZWJnk9yX3bCA956tkbp2LlG4wDaRNUfdAvemlItCktC/Dzxy4PLDdL4Dm74xht0lVbjXURrbG2VewHeedTYa9PUOCP1CgmDPjOnMaMY72cTLW30YAK7A867LhaNG8vjgJgkqtdPZWxwuQ/iihQqVG24C86K7Q7upT8QHnnd+3aVaq1EvkdSn7O3+/0laCdzlQEspvLR8WP//RI6O65CaKk5GMVVabV9/mXk6VLmgs9GEWYv6uRYbssMTBBsoFlhGSBDsAj7mUt0xGvWqPFr/qjWpmB14EeGS6i4eHZTXDXF1YtXsh+s9dPe17JHff2wL7RHhuHafChLZ3XG5Sau7TI91o9ydVa2DTKcS3hPlvp4yLl50QbDvxTNdUrb9YlfqcHo5DeUchB18OFE0jom3R7uon3OxGFIW+BYShMCb6MMKhgTBvtHGtupXRPmdWIzFX09LF+g//t6ZB4N+72gVXUMOKvgiwuUKu9u+z12nqzl+7xzH1QMZ23QxKxOa+12rNnpfmCmN/fuuLn74Tlze9WmOQIod26xbOw4/QjkbYYQP5MCs+7+4HJmYLKaibEm0kCCUhJk+qGRIEPwxWl2LXqdwlj/Sva/ctRHlu+0D7Y58M4Dt3Kb7uC6/UBjjF67AvxLP8XnuHfgRI7VX6vb08E/xF8/ny7s5+M24LPHRZoERna5EOcUc/ftFYM1iRTilo0F+GpiFZ6BISBAyACloXUKC4I9F0vnvfwd82p8ZvKpKrghtOFydWMu7QY6Bzh0DlTFXsHW0l2PAS0+7Ve6ytjBSeUeS7N8xTd7wbY4ACfZSU1dxvCrXZVIxMVfVVWknwjlr1/LnxXFZnaucII8zWM6tpjaitKEm3bFvPnkuDg8l1vL1Uvu9hwQhyDt4E7qFBMEno83WyLgEh6ZcbvTzC814MgOP4dDaF+XZgVS7wXP6XMLHiXBuuviSn8+YFca5NNEos3zaEYEU62WgdLkY5SQfHGvXX/M7Klzr9HFnR5L5pfZy25zxzJVCBL5swhiBXXw1tPBCCg4vxXwTfv54fcV8MAsPCYJ/1h/XosNc4TzUy7Do35dvf+nblwV+2gv3L6xnYSl4NW8O+e2m6+iqCF91lVNF2Av1SlH71XpRbnehcV6TLPdrkmDKValt49PicmXa6dNmhr8PLllZifCwCLdHqvjznHPFONqVbNvzVC1bNo7dFL6VTvG9jZ+LUWWh43BmR4M86Oc8fskOCYJfyPooNyQIPoILeNUeU0wHvu6Hx/0G2i9W+DNwW2cDvy1JkjBbI2PnsLfjcLLCwQI7WE5L+0HI+jPRPS4RJnVM5OWSxCzPLfzxuJavquJIR70qmDvnKW6zw00kjsAbCA86yk9KNRRyTFxHRCs4FuHbCHui1PiJG7DS5FLoinLNO5Nkjc9z+SI+JAi+wOqv0JAg+IsvcXXGVbCnK1yH8FmfPJrXX0QKZQEOj0WFtjn1MtfnFVoTv+N1OrJstXed8C2EWtR6LomN6fofhfq6bh57Ki7mumZQNq+YUyVno0xBfD3tWofvGoXXUW4YFuWXL5XQS29sm+7jpJiE8AVglI/+Bh5WhlQh3gnXRaV4tbDO4CFBKMFHS0gQCmC0uDpjqznMcbnFconXTSqf/lJ7B+VOSXFjx1TpLMBKc5pix+k6MupwkvSHhW3n8134/3RUWIJycV0PPxnM5GAdIGOu0KpoLz/xMfTxQ/tDwTgtvmRCV1Nl/C7IPjQ7tepnTNZCga+Ad2JgraT4Jn84/SdcT0XhnDkN/KeUT7hCgpDT47G4g0KCUDj869r0VHW9gk62syxuaRGLVPkpSW7rS/HOIugurpOYSixORV8VoyIpvi4RzhUYV4DTlfVx6lLhus/V0XRvWATrf7ikScKjvvsjfHjHmpOvv6nQqsrfhvawpuiJwGZrZFQH1UPhY6r8CDgqTQy29Huz8/+GHLi8JsIZHY1irg5LuoUEoQTNFxKEwhot1qxxhAk+Oy1ufFHC28CDKL92XDrcXt5NmLvNuJjkS/42Vdm1jSFdLqMjEXZ0XY4UvHAwX++8N7oooQflnt5uzloUl7X+Lrz0pBsH0coI96HeEbr/X8nrQaTgOvCcK/zShT9VwNvJLpYk4tJdECTjGh1fztZaxrbJFLuLcBzKAUX6vXaKy6SOJrm3IGv3eZKQIPgMsB/iQ4LgB6qblpmOPb8E5XRg68LOnp5N6UX4typPq/CCmNTCsGDrrXnLao2H2RrZqYNtoyYRjxJzXT4pDvsAewNVRVk7GM/5e1zl/MEXsZA54nUt+inFi2z4YqFJgqdl/9G6ycD4tCjPSITXcOnscVm0cDLL7JXfVhkdp2ZoNdsnlbGOMl6Fz4iyr8IuAv5FdWzOHIIp3Twt0cAd9taauf396BkSBD9Q9VlmSBB8Bngj4sdcoSOivUwCTisaSXhfLxN61o7SgZLAIaEu8yXKIjfJ4vIalsw5h1WbvftUldEXUzMkykgpY7Qq26ezHcYA81eXPikwhKiYz4kehTtJMa1zirxVeMuX0IwmmiTB3o7yY48kaGFPEjZAKgW8jTAHl4SXahzmObAAl7ddWFw2lGVbDJuMa3SXIQzv7WWUOGyjDjuSYqy3Rx1iqHeaZf5d6CvADTfGPIFpHd3cWZDTvQJty2L+8Au0xIE3TUgQimFTlVgb2+J695pBIAnrQFCEFSjvAStUWS3iOZGtRVgpsEaVXhVSpsiPCFHtD+8ahlCNSw3CEM8LXtkaYViRXyzrG9fUBrhDHVo6J5IoZWevQu1Yk6hq2Qr2VpdLEfYJkC17AZOv4j2FVQKrvb1p/sQLB+xyoM8VVFwvf0a5wlAxf0KN9jsYDlVhmJh92v/voLR2gYuqu5lddB8My4iEBMEyoIUQFxKEQqC8sTnSKYT7mIh6NRv8TKSU3yLNg1ZJmfvh/qgr78/83sUcwWr/PXWQf//dKHf0prh00RQWhOQgi+0Q12htNbuLy/XAXgG3s9mf5rRh3T7tv6wwf0IkQARnUwaY64WZ9vBAwXwustgK+XYN8gMi37UN2PEhQSiuaT2fhAqmIjQG4GizuGD4M7txSPyZI9S3N4pJpxy2HBDY+XLdKdnHA+JjbZEc1BpIQ9oRLkg08MBA8TnY0DghQSjB7RoShGAYLR0CeQnCNgUO9wsGAH5oId5VyY10cclA/CLzA7LNyYxdqcPp4Xb68wBUF3r+ATqfq/Aipnx7k/xxgK7RW1ZIEErQuiFBCI7RxrbpEY7LNOD/CpCWOTgLt6+JOWI2FRmvTXQzayA5etmHKjuJpr5ICqYKXorhHUIymx1+G/Req/CkA1M6GuXFvCSVwOCQIJSAkTZUMSQIATLa+2mZTXGnwwLtlxAg2DZQxTgjPiVwRUeDPB5cNUtXM0MSVDlOhTOBTxQlDLJ04Vun+SLwspxe0TFF3in95Wx5BSFB2DJGgesREoSAmSSuTm0NteLyXVVO8bNUdMBWbkOdxcDdUbh5zjheJ8yQaAPTjcowtRuiFXzBEa92xsGh/0zGUJvTredMDQpH+M1g8osJCULGeyQ4HUOCEBxbrK+J+UrDYT/X5RJCx7DNG8kk1YE5CNN7HR5edAFLw0iFAuzr2Rqpm8cY7eMkhKbwWmyLmHeZKpbmdCtSxYtbzNuwRXGl1SEkCKVlL0/bkCAE2GjmAfxfRhFhmgunS4HT3gYYmQ1Ve8BxmLT1HBLP3SR9JaT3gFB1/DVakezi055DqHr+M2H7MAIrTPKjFdX8bNmWEo8NUPRCglCChg0JQmkYbWyrfsVR2oCPIZSHzmH0orzlOkyb1yA/Lw0rDmwtx83SYe5yL1z3B8CI0DfBO9nqQvmrC2fMa5L2gb0DtnTQN5hXX6JrDwlC6RhuzKW6YzTKqQrfEBg/SO99zQnBfISHU8I18yfRHl4nBGcPm+yLS95jX+BsU88AGD3oItz6qzCuUuEVcbi5Zi13D7SsiLnsuPAEIRfUijwmJAhFNkCW03sP4OV8FviOwIHARylWQZksdc+7u3j1Iv6E8stkBX9acL505S0zFOALAjtO15HRCEc7cLQqnwdG+jJR8ISaMuL/RnnUdbhn/lo6wjDbfiOFBCF4m3WLGoUEYYsQBbLDtjO0psZl75TLoSIcOqCJgtAJPCbwSG+KpxdOlqWBNEqo1IcQGNeiY1PKl0U4Il0ZcqAShT4V/inwkLr8fkgPr4anBh/cDiFBKMEHREgQStBo66k8/iLdqreCT4pwgMCxKuwmEC3tVXnauwhzcfm1wu/7ynhp0URZMgDWNfiWEFcnVsFYhT1FOFLhcBk4JwrmFOuvKvwyovzTqebNwRadkOmGDglCpkgFqF9IEAJkjJxVUdkhTlVZDduK65Xm/R5wQIme6rkqvODAbZriDxURFr5Rz+rQzyDnzRGcgbPI2S6kAAAgAElEQVQ1MmYBw8r7GOcq3wBvn24fHAWz0mSFwkPicJf28eKoUSx57rQwgmZzCIYEIav9FYzOIUEIhh1saxGbrh8lwhko3wR2sC3fB3kmDOyBFNw8r5GnB2rBGh9wK12R/ScLx+DwA5T9gMqgL0aF11S5XVL8vHOKvBV0fYOkX0gQgmSNDHUJCUKGQJVot11bdWi38kWBr2GcxcTzKh8iUKXFuYowmeTMsexqYJlx6BLlYVd5bF6TLC9RmEO180Egrs7YYcScXs9P4VCUXdNpxk1BKEMaivFuMdEyaxBWCcxz4SkX7p//LM9zr5iS0mHLEoFiGDFLFcPuGyIQEoTBsyeMv0Kykj3E4bMufFJcxorDSFW2xvyJLxX6usGrqrhcYanAIhFecZVnu7t57p24vDt4LBCudIsIqErtpcSkjL1U2UNgV4TtFEY4wnBXGe6Dj40hratQ3kNYBizx/F+UF3D4B2t5PawGukXLbbFDSBC2CFHwOoQEIXg2KYhG5j74TbYrK2ec67KTKDuZqwgVRogyAmE4MBSo8Ur7CpWqRL1sjoKDi4qQVDBfUz3e1xasRVmNgzkJWK7KMoS3BBaoy3yidHSuYT5xSRZkjeEkJY+AidapEK82SUxcdlIYA2zrwNbA1q4wTJQhZo+qUC0u5QgR3j8dM/szhdCnSpeYPdq/V1eaPWoIgbosEWGhKgsiMC8Jc8LTLPtbJyQI9jH1XWJIEHyHuGQmGH+OVrA9W6kwLBlhq4jrPXSrSFGVilDuCBF1iSg4oh5BSImSUqFXFJNnvluSrMVhpRtlZTLKijBXQcmYv2QUNddmKRjWG2Erp5ehCFXePlUqHaFMlYjbTxLM3YTr7VFImv2pZo8qXU6K1Wr2KawY18Oqp0LS6rv9Q4LgO8T2JwgJgn1MQ4khAiECIQIhAh9EICQIJbgjQoJQgkYLVQ4RCBEIESgxBEKCUGIGM+qGBKEEjRaqHCIQIhAiUGIIhAShxAwWEoQSNFiocohAiECIQAkiEBKEEjRaeIJQgkYLVQ4RCBEIESgxBEKCUGIGC08QStBgocohAiECIQIliEBIEErQaOEJQgkaLVQ5RCBEIESgxBAICUKJGSw8QShBg4UqhwiECIQIlCACIUEoQaOFJwglaLRQ5RCBEIEQgRJDICQIJWaw8AShBA0WqhwiECIQIlCCCIQEoQSNFp4glKDRQpVDBEIEQgRKDIGQIJSYwcIThBI0WKhyiECIQIhACSIQEoQSNFp4glCCRgtVDhEIEQgRKDEEQoJQYgYLTxBK0GChyiECIQIhAiWIQEgQStBo4QlCCRotVDlEIEQgRKDEEAgJQokZLDxBKEGDhSqHCIQIhAiUIAIhQShBo4UnCCVotFDlEIEQgRCBEkMgJAglZrDwBKEEDVZglfecpWUrFlHlDKW81yWa7CWiZYiUodEkKfPnOvQ61XTPOYdeRLTAKobTDXIE4nF1VhxMBSupGiZEe5VI0iXiwRLFjXaR0hqSK5bRs81ouuMHSnKQQ1aU5YcEoSiw5zdprFX/jLJfflIA5S2Fwzub5Pm8ZYUCCorAx+Na3j2UbZM9jHFgtAij1GGkqwwXqFGoRqgUlyhCRCEiggskVUkBPcBagTXACoGlrrJEhcUoi9wK3lpwvnQVdFHhZAMOgYue0a16lzFGI2wHjHaUUS6McJShKlSrUiMOZQIRNXvV8SBIYfao0CdKl8JaYLUq7zkRFrsuS4jwTnIVCzuTLL33WDH7OWw+IBASBB9A9VtkrEWfAA6yMM+7rnLYvCZ5zoKsUISPCMTiWqnV7CYpdlf4hAh1wCiU4QhDgBpgiEKledhmoYohDd2GKKj5E1bjskIclorSqfCqurzUXcZL70wSQybCFiKwUQRUVaY8wTauy6dE2R34KMqOwNYibKXKkDR5NXu1HMjs/SOYE64kiiGsq80+FVgFLAfeEeG/muKVZIoXa45gblzE7OmwWUAgMwNZmCgUYQ+BWIv+FjjUgsTljnJIe5P8y4KsUIRlBHaeodskk+yHcIjAFxSGiVCNUp1+wPZ/b/nTzEO5F7yHsvcFBzwr8FhPkicXTWFBeDXhD/ClJHW2auS5P7Cbk+QrCF9RZZf0Hq1BqPIuDPxt5vSgW5UuEdaI8BbwpAqPVbzHc/FjxezbsOWIQEgQcgSumMNiLXo/cJQFHboRDkw0yDMWZIUiLCBgTgqo5BARTnZdDpL+04GgNXM98XeE23uHc++i08QQiLANEgTMScHUPzLWTXG8KCcYUkB2p1aFQupthfsRbmk5JDwlzQX0kCDkglqRx9S16p2qHJ+3GoIqfKmzgacgdFTLG88cBIy/RitSqxjuRtgZ5dsifAPYPgdRxRqyUoUHRLg7pbwU6WJZIm78G8L9VCyD2J7XEIKGBxlSFmUEUfZV+J7CfiiVtufyUd5/RLkTeKRLWPD5law4NvRd2CLcIUHYIkTB6xBr1qsRzrWhmTp8s/Nf3M+9oaOPDTwzlbFDXKsrahivSb6AcKTC/mIcC0u39YjyrCv82hH+Wg6vvdEg5p44bCWKQFzV6X2C0bh8Ql0OBo4G77SgVJv5IHpHlMdweDiZ4vmaf9IRj4c+C5syaEgQSnCrx1r0QuBiG6ornD1qa2567jTpsyEvlLEFBGZp2djl7OUoXzZ3tsCnwburHSitD+FVhcdFeaKmm6dfjYf3wKVm3ImP6TZR4Uvienv0IJSdkHSMQaktZuP6Lhfhr6R4POLwx8ghvBY6N34YqJAglOBmr23WM0W43orqQitdxBNx6bYiLxSycQRmayTWyWdIcRxwILBb2tFwoCJmPMn/i/Anx+Vedzv+mjgp3GNBN3b8Nzq8t4Yj1OX/IewF7IBmGG0Q9MVtXD/jP/MP4NGIy32XHkp76Hz7PlAhQSjBTR1rUeOgaBwV82/KPV1RfhiGsOUP5aYk1F2qtUQ51RWOFOUjQIV/swVOcp9CJ/CYuFyXaOKN8AEcOBtx6rNaNmopB6hyNvBZ8PIWDJb3g4qwAuUVhNuS3dzbdlR4PWZ26WDZAMH7ReahUd3l+int44U8RPxvqMKzEfhye6OssCEvlPE+AmkHxKM0wmQvJlwoH+BfY5szv7nCWiBweXU3N78aFxNCGbYAIFD/Wx0TidKA651ujQhoRILvSCmo9If1/sVNMan1cHnZ90kDPkFIEAJuoI2pF7tSh9PLMhsvGxFWRVLsPGeyLC5BKAKp8gFxjXYMY7T00KLihYJlk7gokGuyqpTwZDTF2RW9zAmJglVksxI24W9aVbWSgxBmqPKxrAYP/M49KJdWVHIdB7BysPonhAShRDd6XYu+qzDahvoK+3Q2yt9syBrcMlR2nsHolMuhqlwqMGZw47Hp1SssFWiLCnfP6WIRoSd5wbaKuU4Yvpzx0RTnKpw8wH1h8sHVJGH6izo0u138fTBeO4QEIZ/tU8SxsRZ9DLzQIxutIdEobTYEDVYZpjbC6mo+IcoPVTlBCGSCo6CZxziIPYzDDcko/wxrP/hvnqY/6Ejp4ysqnJ/2NfB/0tKewbhodohyUyrCPVVPs2AwhUWGBKFEN29dq16qyhRL6v8u0SiHWZI16MSYnAbRKg5zlHPA8/weTE6IedlbISlg7npnrenmrsVhSGReeG7mzEamPkbMxSOwJ4JXIyF8/meItgjvqfI7J8UVlx0uz2Y4rOS7hRukRE1oM5JBYXl3hJ3CSIbsN8OYK7Qq2usRg1PBK6DkZ32E7BUsnRGLgF+uFi5aEiZYsmo1kwmx8TF2jwhTVb28BsOsTjB4hJmS08+jtDQfKr8eDMsOCUKJWrnuMt1WI15hEls2/GqiUcy1RdgyRCBNDn6CcjTCVhkOC7ttGoEuhGei8N05DbIgBMoOAlMe173dFDcDuwJldqQOUimmsqSyxETjlFdwefxAMaRhwDZbL5cBC1CQFxZr0TdspT5VuL6zUUwMdNgyQGC76Tq60uFXwBcz6B52yQIBc+XgRPjO3EnyShbDwq4bQaDxD/pVSXIfpZ3GO3i2NaWnHa6v6OWi+NcGbrGykCAEb+tlrFGsRW8Dvp/xgM13bF/TzafCO+AtoDlbI3XtfEKFa1H2Ca8ULO2+D4oxpaZfdIWJQ7v4SxgKmT3GEx/TmjKXE0SYqaHDbPYAZjZiLcptTpLmS49gkcjAK1AWEoTMNkIge9W26SniekeHeTeF1Q58p6NRHspb2AAVsOcsLVu8gs85Lj9OnxwELb+BebGaUsxrTMIXBZOMyPy5Krji4ph8+gpRESrS1fhqwKvKFyzfCVNpVPm3AxdrN4+HqcAz/1GZSAVN8n2BemCbzEcWpqdCSsBEsKwV6Hah1xGSqpj03Gj/XnSkP7GY2ZtVCjUSwOsRbx3C7Q7M/PHBJAYaSQgJQmF+E77MUtusnxYxpZot3H8LJtPdbYk6ziQsg/phe8U1WlfN51W5GPWuFYJADrq1PzvhAoS3UExujCWiLCHCCnFZnVK6HBMpECGlKSKOQySlVIrDEHHZSpVR6jASZVuTXldgR4GdAvTV+bwpTBbr5pGn4gP7vtfGQ8ILY0xyippqr8oONmRakLEM6BRYpMLbuCwWYYnCMoRVLqwpgx4T0WIu9CNKxHUpkwjVKENFGG72qQijVL0U0KYcuiketS0aCJ8K8zu823W5qO2wgeU7ExIEC7u/WCJqr9TtpZdfouxnRQfhBYXvdDbIa1bkDSAhtW26h7hcibAPxcuMaMrVmoftCwLPIfzHdVmoLm9HylgSrWT5nHPFnCBk12Zp2filDO+LeA/hbVQZI8ouAnsq7AEeeSjaCYMIr6gyMXSi3bxZzbVCVDldTI6DIpIDhT5ROjB71OHfOLST5C0VFnd3sWT40bllJow/q9VdyxkVSTEqBduLUusIn1TYE/hk+iQsu71vr3evCrMlwnnNX5al9sQWV1JIEIqLf16z79qqQ3tgCkpDXoLeH7wMl4sTk+UaS/IGhJidL9edUn3MRvhsMciBgivC0ygPuw5Pk+KtqLC0vYGVvhQ+UpXRF1MzJMrIZBmjHficwOG4Xlpec+Rb8KYwx3E4uaNe/lLwyUtkwqbf6WkIlxTxWsGcCDwk8GjK4dVIiiWrXJZde1gOpDUDzONPanTVaoZXRRnpOozF9RJAHa7wMbEX3ZWBJv/rYq7z7qvo4sz4/5P3shkY1L4hQQiqZTLRK65ObTlHi8PdlpLzmDvs+yXFGR1T5J1MVBjofUzdC+3hjwL/ZzGkNFPYVgK/dqLc4KzijQqh+9W4uQoqrDOU8b3oTlKxahW1DpwCfCtd7S/TddjpJ8yNKkfNaZRX7QgcOFJMtIKT5N5iXA0pvBaJcJOm+GV5Hyt266Ln2AJfU5pcDxc/RUVPF0NTwn4R4UxgX0vPxWw2So/AbatczvOLGGWjTL59Q4KQL4JFHh+7TP+PCLOAz1lSZZ6jnN/exK8L/SKypL81MeNadJgr3O7lOShQ8zILKksVHlHl8nm9vB60OgV1M7XWTXEWyrel3wmuvFDwKDxNH9/tnEZisO9Pg7l5MU79A3u5KZ4oVCijV/VQ6UZ4E7g+NYRftO0brPLIs57Vss7lHKQu9SifQRliHHQLsU9N1kVc2lYpV5Q6SQgJQiF2jI9zjLlCR0T6uFjUY8w2fgAmEcis3h6mLYrLEh9VD7RoQw5SMFXwcK0ugLKmMMw8hMdTLrfM7+G5oBGDDTEYN113cR1+AByZziJZiBTT5hj3FymhaX6DmOyLg7ipNDzK7g7cCXyiQECsUXjJgbvKhXvjh8i7BZo3p2lMYaqR73EISU4DPqOwbYGuHxIqTF2T4lelTBJCgpDTtgvQIFWJzeB7uMwERlrSzBQnOb2jhz8E/SVlab0fEGNqK1RUcIIKF6Zz1vsxzfoy3waekhS3dvTxRKlhPrZZ93QcTkW94mFjLRHVzWG+XOEK6ea6RHxg3PXmssGmPqZ1LrSpclQBMiQmjbMoKR5KlXFL61dkXi46F2tM/CGt7injOJTjvdNWYWgBdPmHq0xsX8Xf7y3wlYuttYUEwRaSRZRTN0N3J8kNajzs7TTji3ATFTQmJgyyB/BsjYydy4GOMBNhd0wtN/9aN/CMKHdFlAfmTJbF/k3lr2TjqyE9HKzC8aIcVIC78ARKY00PvxmMiZS8cMYUF2j/yaHftRXeUnggItxz6cH8pVRj/Y1TYzLJR1Iu3/CIgrKLr9cOJq+Dw4OpFOeUavijnw8/f59IofT/IRCLayWVtACnW3PKUZa6DsfNaxBztzlomrlf1yTXAqa6pZ+5DlaI8PM+h5uHreH1AfGSi2t0TAWxqOM9fM8FRvi5cUQwVfVO6GgQk3J80DRzbD5qMd9QYQYwxseFm8RFJsT0SlEemX4oS0qVHKyPUf0DOjRawWdUaUS8Uy8/m8nvcFXLV6XRz0n8kh0SBL+QLbDccW16hOtyffqI19bsTyYa+JIvoXS2NLQoZ/w1WpFcQxOC+TH7eZ++XKBBK7g3MYEVA83Z7uPX65DVq9hfzCkUPibrEVK4/CrRJCaqYtC0+sf1Y5EUPzN36j5G1qRUeTISoWllkpdL+R59YxsjHldnzf5sU9bL+cAEVaI+bqDVAt+a/lV5xMc5fBEdEgRfYC28UHNvXl7JIwj72zwWV+UHnU1ya+FXVPgZY626N8qf/PTKN/H85cKR/x0EyajGNuvWDvwK4SA/rakOP+isHxx7dMLftKpyhZewyzjd+dZEuKG8nAviB4q5BhvQrfFRNVcOPzGZGn1c6Ht9wq4zA+7UueH6Q4Lg444otOjaNj1ZUlyLWPW6X+G4fK59spiQpgHbxs3SYe57PIV6+Q78aCbD4Z9SwkmDyft+x+t0ZNlq2oDjAFP3wX5TVorD5wbDVcPkx/VwTZkQZJ9CSwWTBbCl+RAxTs+Dos2erZEXhvJlNX5H8FHw6TRB+Fn3Cs648ljpKhVgQ4JQKpbKQM8xcR0RrfRqM5i0o/aacG+y7P+3dyZgUhVX+/+d293TM8OqgCguDIsaoyau2b74T0iUxS2L65ddTcQNFWWZGVQaBWYG3I0acfs0ixETNTFBQAxJNBoTd4MLIgygqFGRfaZ7uu/5P3VnUPbppXq6e6h6Hh4TuHXq1Fu3731v1Tnv4Zy3LxEj89vpmhEC+ujjQIEuX+eEawT+mFImLquRxZ0OwHYmtHeD9gsrlyr82GKmzeajCg9QxtmdOaj2kod172g5c9teYlZvo0DbABaLR33ZKu6NnSomnbRk2pdnLq9YQWT3cCqVLA+ten/BqQdm5P9M1dCLc/mG73OFSKApkw9tj49UGVX+DPfHYhIUpir25ghCsa9Qhv5V1eu5wC0Zdmvv8tUIsXAFt2al9d+e9QL/e/8GHSLK/UAf664Y0RTlPl+5emckBxvx7D9F9xCPkSqcL+RlK/djU69haTV3d8aYmSCffyXX4nOB7Xu0jRwsEKgra+Hh2AliKi2WRPt6bH74mXD0C6FoaGh5j56f795r12YvFHlR4omny4TnF5y627p0J2LiEuJfCjLBrlAYIraDlFurVZq4jnMnD5U30/WrkNc5glBI9PMwthFOCif4C/B5i+ZN2uOrwKWN1eYLpmOlfi3OYytTe07VXuEQM6Q1l9x21kKzwK8FrlxcXVp54/nAfL+rtXe8hQtFGJuHwjq+wl894bzOeNRQO0ePUeXXeSGx8JbAFaVGDqpi88tX+P4JvniXaCh0uBcKRbr13pVe/fZsFvUXqi9/81OJh9565T9PEBtiCkWm0VTG/ZnDQyF+DnwxjQ4ZXRKoLCr1ZVFuKIX4DkcQMlre0ri4ql5PN+VHbSqGGQlgT5jtw7jOVO2xf4OeJcrUvBS4Ef6YCHPBiktleWncOfn3so3AGgGqi/IwmqldUdelmWs7RdpoG0Cxh7RnvCLIWjjOOokVPhKhuizOb0pp58CQg/d8/5SEcrkPAzfiEimP0m+/fYlWBOKnzaiu0KT/DBsSv3jz+7v9Pa17TlXGz+FzngYF2vZLq0+6FwlGqfbfGuaC+qPl3+l2K9R1jiAUCvk8jhtEj3s8hPI1y8O0AD9PljG5M8QjDKzXfVS4WTV48Nr+LbzQ1Mzw92PFLUVr+f5Iy9xe12pFJMkM9flBWh0yuEiVfwCjltbICxl0K+pLa+fqD9QPAj33sO6oz9joOm4sqZiD2PxwBP1eMqXXaqvWxie/3VAkwu4DB9ClR89PoFIlBbpWk6m/JRN+fePpvZ4xZSx2iKWqVM/jEEnxR9taE4E/HhPLe3Fd7IjiPs6x/VC0fv86g1kgEFOvqpwTIKjyaLuOQEJgjDZze2OshFOgTCXMKD8RCR68tiSqg8VSZXE0zhcX7sS1LNq7a02tC4XfK0EKpM3nUIv6VEe6cnNniJcZM0d3iyi3At+xjFNKhNumDpPz21urovr3UbOi5btU/iiuqVu2pV0QEIRBmxOETf1XZYMmU3/SJNPWNTe//v6P+m7Y3pFpTNVLzGOEprg3D6JfC0T53tQR8nJR4buFMzZ/mMU8z53OtyAoLEQ9EqjaWT1bV2WdKBd0SXBfqW7lVtVpFcK1bQ9em/fH++px5tJxMsum0U5ny9QQqeMLeNwNHGB5fs/4PmcuqxUTN1Oyzbygmh/jNFGmo+xpcSImWO7xaJQTS+EcfOO8u079e59Ec8vZiZRehWybVLbuIAzcbAdhm7ipv95P+g9KkjsS4eSbS1/p/f62aqBMnKXdEx4XQxA309XiGhhTE6J7c3XswOLNGHEEwfKKF40584VczjAhkA0elAe/PlZhVO+ezHxupJijh9JpMzXU/y2+bb6grO4eKGvUY9qGJm74ICZpR0+XDnB2PQ2OGuJ8XyVIMbW2fW7iZdTj/D6LuPu5GSV2b24Cce087atJ6hB+YlP8DFON0eOsKUPFSFWXRCuPzRuYSnFRix8IRG1X5bR1ByENgtA2a/W1SdEHNZV8xMf755JXei7fkihcNksHpbwgTsmUfbeW/ijwhgjHTBlWvDFKjiCUxM8jOydNLIJ41LSVgrYvUqOY4LvxjXEeICZpRglnNxebvdoC5a4DfmTLrnkpCcyUJLVLLpOltux2djuDp2qfpMcE4KdWhZSEp5MRji/VWBlVlQmP8Q31uRPob/E+eFeV2vXKfaUin1wWm/fZVJLxPnxXdcdf8RsJQuUmMQhpYKeoGo2C+dqSvDu1bvX8xjMGfKIgadaiei5HeXADGmSH2XpvmoDFi+tGyI1p+FiQS2xNtCDOu0HbR2Dv6XpQKBV8KX/Z4o29cWAT6POGL0ztNoD7F5SIuMrABj0ipcwWu7EHC0QYvaSp9Mo1t38X5fcKU41UU8zACNTYq56ZUOX0pTXyUH69z491U1AoFOUylDEWKw4mFe4Qnyvqji2FyqEqZZfP/2yL+pNV1RRVajeeqvWIYRAZEoRgERVT20PfSDbHz298o/ffN91JiM3UsnhPLsBnItDd4qov+qiFz88oUu0JRxAsrnRRmpqpoapGfojPNXkItDFT9lGWC0zWOL8qhcDFqnqts6yauB7hxnAFkzpDYFyH38fmyGcJIwWmoHwafp67I3Mbq2VY7mY63sKEP2t/PxSoJlpLsxPhRYGLSqVkc7eaefut87hdCWqkpLW137qDkB1B2HjqoC3JX1duiJ/z8o92X7/pysfma894Mw8H9W4sNSNShXJa/Qh5wJJJq2YcQbAKZ5Eaa81quA84NY8erhYYG6rk3qJ+SbZi8bblM+/nQvBdJ4aU/d01eJRGk3syG/h69la26CmoJ+y/eFxpqNZt6v2EOfp9X/mVNSxgvfhcO2UEE0uhZPOuk/+296qmlvm+akbxUxuDFCt77JIddOaNqCyLh1OHLDu+58dbGhk/R7/iwZMWd7rMEPPrhkteC5plB4a9s5Rsx3f9OgiBqmm6u/o8ITA4j0NuQJjgKXcvrpbVeRwna9NVdXoawm+zNrBFR4V1KBftLBUvbeG2LTv9p+qXxeNxoMLWOALXLqmWS23Z6wg7QfzBXOaocoyN8YKvVPinhji94ZgiV/SMzSwrb+n1pQT+/b6ye6bzz5kgtB41qBfS3Rae0P3DbY1fM1t/jnCeRZJgPq6+MXW4PJ/pfPN9vdtByDfCRWS/reaA2Unomze3hBaB23y4Zek4Xi8qXXyze1DBbCw9eA2GCk/1CDH05bGy2XZk3vDt5Iar6tUoBloLHhVYJHBEsRLWbS3nhMe1v5/kdZRyK8utNBl566nD5WYr9vJlJDazayixy7E+Ok01u8DMT48YstxBCHRMFC9Mn+0RhNrZuoeCyQDpZwmKuAj1U4dJzJI9a2YcQbAGZWkY6l+vYwQutxxos63Jz1W4sWUX5q8YWRxqYftcpwO9OAss1gFIqXDq0vFiyu+6ZgGB/g16gChP2Eo/NTs8HnxvSbU8YsG9DjFRM1dr8ZlicbCXosLQ2LDiVfXsGXuo59qWbqf6vj9ekQGtxSUzb58EKfbMH0EwXtU8qldhsm8sBNW2Fcv6qyY5qf542epYI3MU7PXIahHsDe8sdTQC/WLaO1pOTOFsIJK38YUUyiKEe1IbuGf5JFmRt7HSNFzVoBei3JDm5e1fpjyRjDLs7UtKp757+5Mq/BVV0/QWfExV0tyb0ILPnY01Ysde7h7t0EJb2eFXVK2KR51dN1xuz7PrWZvvGZvfc1088dOUyihF98nakCnIEAQpDs4qi2HjuKrgRba/g2Cuu/wxPTiV4iG1pTGjLA55/GzyMDGF9oqmOYJQNEvRQY6oyj51HBAK0aCm+IsFBrxdz1sLk6wC/q4+DUsTPLMttbIOmblR7pvGLJThNsZTk70BJy6tlj/bsOdsfIrA3g16hKc8aqUsdOs9+Eyzz4nv1RZ/at/4x/RgL4WpI2FF/VThNb8rX5z2VVlblPdYbH55WTx+eYtytiK9c/XREIS+QRbD9ncQWowGoGIAACAASURBVOMQt26f/H0aBCE2X7vGm5mAUJ2rz2391yDU1Q2Tekv2rJhxBMEKjCVmxJzFV3IUyvUoh3SA9ymBj324IfIO0xfdJPEOGHOzIfpfpQMkEgTADbAxtsC/U8qwZTXFtSVoY26FthGU4Pa4XrBWzGmJCCOXjJfHCj239saveVQvQYKUZCvNg9FThsv1GRubqaHyFQu+nBCGhoTl0Uj5H9adO/i/GdvZUYdYzIvEvzyjRYN13q46YiZjpkMQ2rWXBkEwRyC1j/INlaBOg41YBHOmcl9ZlJGxIcWjwuoIQrt3S+e9oGqanobSQJYBQVki87rRIFjfzOMfwIaO2lEwJbBNJUorZ9ti6jExtmsTN5VqLYos165jurVqd5yMH5Q4zv3FoQRfZ43VxfV1tiWYJnuhdg6mhoeVXS5gpcBBU4fLuxkt3N1LyqNrm0bFfepNQL/pK8ILYdWRLas+eIHYkFxVU6VnbH6Ptc2Ju1KtRaistYAgDByklT12yf7dZghC2Y6PGIzDE+bo3r5ytcX08afV5/z6Y4unEmn2IFpbUmeoYAi07iSMwg+kbvt0oB8bgNkKd5Hi+aUtbLNQik1/+tfpNBEusJRC935KOH75+NLRsreJZUfYqpqihxAKFEC/YGE8I+b1S+KcU8xCXqb2gt/CUyIMtDBnk8R+TzTBebEMVPoqb3q+X4tWXNLi+1ulhgr81xOqUy3hRxiz/zZTANv1+5SZoejgXQcl/FSDoscD4Xb7pHuBaioSjb7Rb/8DKiKVXbLfKTQEIU6fhd/bdprjRndi8zXcnGCUmIBSsZCaKyzDZ3TdiOIJenYEId2br7NeF9OyqgpGo4wHsg/9zQ6fD4Qg33tWCP79VpzF+dhR6Dtdu1Qk+Q0SlMC2cc8/GBYuWjRejOCSa3lAwNTLCLUwSRRTjjjnNROY5ynnvlUji/LgrhWT1XN1qLTummSc/7/VbgS0eMKPDlnNA6eeKqk0HJSym97YP5VMjk+ZCrDbC2BWfE/1Ft8L386q/f+T0e/17NsikV57HeanQpelxEgnS1rqiGn4bi752BP5Y4+eve7ove9+FymcnGa/rS8zBCHRPkEwHavn6DdEMbUUDsx6vI0dhWbzsXboWm5Ic81yHrI9Azn/8NobwP178SMw+EaNtqznQhFqCkASDEBmK/RpH54Ke/xtzQZeslkNcZ+r9bNeMigrbONrNCVKjca5qZi/Rov/rmvHw5h6A6KcqcI0S/fkq55w4eLxYuJQirLVzNEx+FyB0C1nB5WFfpiTG46RV9KxVXbtggOTwuU+nAha0Q4nSwj83RPvhpTf9XEu2bup3TFi88Ph5uavppTLFflqq3TyxlDBTF9Dm/cTkdcF/YVP6P/2++oXI5rg1lwIgjk/DKVJEMb+WXcPhfiFwLfaxSCNCwRuLoMrYsNlZRqX5/2STFcm7w65AQqDQJ+btWvXtZyjBCRh18J4gREbWgyBVsHfQ8pjNnYV+k/TY/G5wZKK5DuexzmLx8mfCoTRTjPsgGl6lPpBuXJTQS+npvCRB5csqRYTVFaUrWaO3oHyYyvb7sp9IlyaTvzBXtcur3hP1lycRC9LpyBSG3hJlMUe3i1+Ivp/VA/aoXJquHrON1K+P11b19JKhgamuJLI/JCv16W6lP+F2JDm/R5Z07sjCcIpMzU0uBuTgYtsHDMI/NmHi+uHF8dOlyMIRfmoKIxTg2/U7skmzhRlgkLOKUfZzkIgqRJIGK9S4VVzDOGHmDdwHQv/mkVZ6ap6HSnCZFULcxL+5imjFlen92WWLQauHxh5cJTbUPNVm2MzuhwwoXEAV5PelnuOA2bWfeI/tXtiFfdbC1D0GbsObkqnpHNlw/P94mXR+pTqDzPzOpAdXO153kM+idGMPtSkNG/VotWzhsZTchcSRPvbeuc0eSL3+164jmho8cbAyYAgNHOrSvZHDMEOQkt6RwxmstVz9DRRrrWUzfCy53HWlKHFEd9ka7Eyvq9ch+JE4MCYlq2Pcj6C+Zoo1E7CtsDxFYzY0l8R/hr2eOat9byazhlo/3q9yvyOxUZAlHJPi3LpO7XyUXGuYOfyakC9mvPdc9XC2ony8xRcUYypqTWz9LN43AV80cIKriTEz+qOSS/Yrd9tKyrf27DyCr81DimrJiKvlbUkvhUfd+ibmxqoqJ1zelOL/xuLxMCkVDSH8Scnl6yr54FTN4uvKARBqJ2jB6kG5O6zWYG3eaeVCqfVD5d5FmzlbMIRhJwh7IQGztZI/0H8TFofGDkpm+UTHYUmgYXAEmApwrvqY17cH4mwQVMk1CPkmcIqdtKpEih1jTVMAtmW1kqO01UZ/xjdtYVuZWEqWnwqNUTCixOX7qyNvsXa2BnSnOMgGXc/+1mN9FrV6pefokLClEWU5pYwTRJn7VsbWPNAnr7K+9fpeQhXCvTK2PEtOgj8njCXLhkjS3O1taP+MVWPv1K5dh3l0QgRacFrCSGSxAt3QVIeZj/DC0vrf83/F58vqM9E7BRTewHl/LoR8nS68wxf88pXUogRT/tS9kccujIEF6Va4o+w8h0/QtkZSdVJirUS3i3gNUZD3gXx+qGmFPZWzRAEvym3HQQTGhFKpr+DEJuv5Yk4c1QCbZnc3qmC+j7fq3iGmbGYGDG2grbcJlNQ193g+UVAZUAdJ6sEdRsOsvoFkF/H82n9fVVq81G5sWaW9tEwh0qK4xG+KsK+vtJFIKXwoQfP+DBPwvxlXYK30tk6zhUIk8aVbKJ/UjhKhKHAl1H6IZQhNKEBKfsHHrM8n39PGcrbtotzVdXrMOAXQFWu80H4m6+cv6xaTIyL9Xb2bRrZbW/2SYU42BSIUmUwpiKhR3lrUF6g6RA1+KkSlU//d1mbip8nFrbgsz3HLr/2paPiGr5c8b8Bkm2cwCoPvZdVHzVr84YzVOkTvDK3pNPbkzPcdFU2vUb42IO5EZGJ8Wkj3tje4hWCIBhfbMaPiHBJ2QpuLcTHwJa4OoJg/THRuQwOmqb/k/KDnQTzgshdtKa04XlDlAuX1Mg2v16ym1qwa3CQ5/Mz9flfkR3GSZjdg6dVuT2q/HnSsbImuzHb7zX6Ka0oX80QU7NDJCg7XLmDXmsUHhaPGdEIz8SGSK5COp8MNaBB9/d9ficSkNTcmvKqeJyxZLz8KzdDW/eOPaKVTRFO9uAUEb6qau2rOXNXhTubNjDm+u/INmMCdmQwcs2CQ5OqtSqclPVHgapPIg4b1nrEm02cQuZz+LSH6WyCIe/xJXU70497b0fGCkUQah/VsSpcaaUQnHJ1qhtXFoM8tiMIudy6O0nfgVN1v6THuSavGi2quIQOXQFT4tVLcdaSCfKyrYGrH9UjBS5DMF/K6RAwU1tgiQrTy1u4NxMRnHR9HjVLo108jkeZiPBZSS/q3KS+/cuHSeXD+EvMbJpbaAfGtOv6csx5rI2z+fc0xfeWTpD5Flz7xMSYe7VLpA+X4fFDlD1t2s7UloJJw50eHc6EbNeg/LrXqhK+P85X3xR0y3YnAZJJaFpniEJ2JEFJifCsJ3pNqtKbw6Rj2yXEnxCEXHQQzKQzOGIIdhAe0+8aDQtVuma6Ztu4/pdRuLgYUh0dQbCwmp3ehKrsXkfvijCnqs8YK9u9pQnaX9teMJlJ125nrpfN0QEpDVKkzNdaOuRg0++qd3zlZw3HyqM2oTRyv5fN4UhfuEOVgzLc8jY7B3/z4aKG4Za28VVlQAOPKIwAAtnfHNp6PE5uHCezc7CxWdc2eeR6TJyLnZdDrq6tFZg0dbjkVs/h+sV9veS6i32V0Rnfm5vOQH1INMOajyGVjl7Tp51FeFDRiXTdsJDYqYl0gLFCEEwMQir9GATjV/U8PVJSPIbSIx0/27nmTy3CWVcXQXluRxAsrObOYsJkOKyt5EjPD4rJHGnhgV1S0Jmz3VAlJy26MPdiUybwb5cPONOTID1qR9v3O8LoxegwDs/2S3FbhsfM0S4RDYRmfpAhOQjMmS9YT7gqAVdfPUyMrkXOrX+D3o7yEwtZKKrKSUtreNhWkGn1XD1FfGZgLxAvV7zeNx+0dcPFCIPl1HrUvbzL+rB3QRI1R4xdcjKWbGklCYYstNvUD+PVJJvW3cItp5p7KO0ziv1+s6a3H8pSKGmTco6hlLQrtbzpNCY8rnv6LRhRqpzVaAWeTHqcNm2omKytgjZHEAoKf2kOXnWd9pRmpiOcrq0Pjp3hPjJb5r9rrJbTbKzaZbN0UMrjDuDrOdo708bLYKMPE+bqEb6PiX7PXiNfeUeFr9sSe6mq1wbgYggC/XJrwk8aB/ArG1oIE2dp94THwwpfz4ZM5TaRbfcWWKrCmLph8jsr9qe/1MUjfKGPqTKpvT6J0s9UBNFc76dg/WpoWr/5kcOnMQqm6utST7wLUtccm9XOWE4EoQ0wwyLDfmYEYfRMrSjvznIrxeCUVzyP46YME2OvoG1neLAXFODOPHjVVP22eowVOBgsyMMWM1hCi8I9S8fLz3J102xLT5jD1xUeyfnLDJ6YOoyvidhJu6yZo9PR4Bgpp+YrP2wYIb/KyUhb56o6rUG4wkoAGJzTaxfuem6ktOTqW80c/TatOvx752rLVn+FN9XnIqtHTze+GfXiTee3HTfslZOv5shhQ1tcQmqTWFbVdeJ588PopJZuz75ALJZVDEuhCILBpOZRXY6QGz6tlTPflCTHTDkuv+m46ayjIwjpoOSu2TYCqtL/aqq8FD/VVi3y/bZb5KX0MUwg3NU4Xs7NdSrB8cKHnOfB9bnaEkhEfPrYymioma3PAYfl6hfCbXXD5Jyc7ZiAl3q9CKizUYlThFGhCm63cUw0YbZO8g2ZkqyPiGzAs5kNEV7z4YL6YfIXq8Znaii0+JUzfU9qFM2+UqJxyuwYmOwGE7yYiCvoe57or8pEb22++kSjaZJ1KyhBmKOvoXwma+c/7dioypD6EdJowVZOJhxByAk+19kg0CemXSsq+KLnB/KmJyEdWjq6oxbB7CDcu7RafprrgEZYJR43YkuMy9WW6R8q4zOTvyHbzQ3PZIya2WqEpnJX0BRm1Q2T4zIZe3vXGrEkEa62QRBQLiHOrbkW2jIa/Pv2YIYqZxTZEdsCIww2ZZj83Qb2m9tQCU1/9UQ/mbhbvVDOZ+2YuISmdeu95g2X+uHUTOqP/zhXnw1BSIb8W1HJqZpjWDM7YjB+18zWl4DP5ToHhHdCcNTkYZITWcrZjyK7sW3Mx9koIAIDpmjfVIQjvRQ/aiutXF5Ad6wOrWD2Q++xRRAScSYrXGrDyTAcdJWlrIGaObrKSiS2MrduhJjUzZxbVb2aXRsTGFuRqzGDuTRzS64EwegeJCLcrvC9XH2y3H+BL5zXkA+CEIt53trDx2ikfKJ27VlJONoafbRpCOGmn5zbEkfadLLm39WPe5783C+LXMPoz+acHVRIglA9W18UC4XFgBUh4auOIFj+ZThzRYBATL1+Xdk1muJQWl+A31AlUgSe5epCC8rdjTUyMldDsQVaFl8enPNPydWW6d8i9LWVElU9WxcK7JuzX8Kv64bJD3K2Y44YGvRClHobBMEXLiqr4LZcjxhmztTQC925HfhJMX1oKbzmwflTh9vVeuDsZyNe1/eu8lWNbHk3IlHo2hPKrHwDbBDlsYhweaL6c2mVp97efVVggmAKyx1g4Z5fpsrX3BGDBSSdieJFYPCNGk02M0SVy1C+aCFNrZCTNXUY7mqsyT0GIRZTL/5FjlfhYQvR7411wyW3M+FNUK2drb+28VUsMCbnXPw2vwbU6xgFU3Ar97eRcG6XJu5aEJO08up3dMPVzFETF3ERmvvOhq0bW+ENfC6sP9ae2me/s2+rfK9rvzpfORvdZA3CEei+qy2SYDYjXlfV84l/7q/pFGHbFmYBQRD/VsjxiIEsjhjm6FsoA3NeS+Utz+ebLkgxZySdgVJA4PDbNPLRSr4JnKfCoWJyhU1gV66FTTpy8hLURPjt0vF2voqD6n0hfosGGSDZNUEFrpw6TGLZGdi6V1tk/gO5pDmqsjYS5airviHmTDbnNqBOJ6sw1kaaoypnDYhzbzZlw7ecyIS5+h1VblAtniwGJChcdkndMHk4Z+BjMY/Vh+/hQbWveuY29TpCEei2SytJkNxD2gT5SEQu96PJ+7ZXPnpH8yoUQTB1S+LxoNpsn5xxh1f9BCMaTpRlFmzlZCL3Fc1peNd550JAZZ+rOUxa+JbRqwcGAbvbePB3CI7KHxvjnEQs91oD4x/THmGfMb4GL77MVBQ/nezylM9Xph0rb9uaf/UTuou3nj8qwfpk00xZ7nvL4VJbUrFV9XoLYIJDcz2qUvE4bclYfmejqFTtPO2rSUwq5zeKSDTMnOOPrxsuv8xm8T7poypc+tC+nh8e68P3d3i844VbjxvKK62QBKOY4Knc7qvcQstB/8lkNyEgCOS4gxCw48x2EMbM0d3KlNfUQoCvCP+UBCdPOUHeyWkNLXR2BMECiM5EhgjE1BvUjT39BF9S4QjgEIyWgrB7Me8qCDweCXP6wjHyYYYz3ubltbPVpBNep8pXkYxlhNcgXF43TEwevrUWfAklMPn910FWOd3/UWVU+XD+bkvhsX+9/l7g2xZews3qcdLScTLLFmDVc/Q0UW61oaBnyadVIlwxdZjclJO9Sx/+rJfyJvqq3wFpn5h5HnTpARVdQXJVxG7zXHgSlWtIhOYRO3BdOvOxQhAUwpIZQRj/mB7spXgCrEgtz5EwP556tBhVzII2RxAKCr8bvCqm5VJBfzTQUNhf4XCEw9GgvG/7D6aOhfCf+JzRWCuv2xg2NlPL4j0Zjs9UJSiKlO7v0cjP3kaYqXVHi0lLtNrM7oaX5FyESzLcMm2UVpnl+23JLJs4lpYNzJPsdzQ+/SiGD1U4fdl4edwWYEaaOgxjRIOy6NkXNrLkkAYxq9TVDZeJ2ZqMjP7DES0+Rr3SqHym/7Y3JKGiG1R2B88KFEYsaQnIHajczYSD231h2iAIRqYhkiFBqHlUj0W4H6wUa7o/0cIF15xg50Mk2/vA9Ev3gZTLGK6vQyAtBMzLIN5Er4jSK+nTXzwOEeFIVQ4X6FcE9+sCgfOWVNvLMTeaCIlm/kcJpKtN5scOm5iXHNwi8Ispw3jPloLiloOOnq27lis/QIJsi/aUAk3C2psiTEw28+dp35K17c0j3X8fWK/7+PBHLKSPCbzph/jx0rFipKStNUOoQsqF6lOdQ10Na/6IcEtZL8bGjpANmRoNj3746JQv01WDXb3MmyEJ5V1TdO0BErLCEoCPPfTPvudNpOZzi3fk1CcEIQcdhIAgeJntIFTP0fPE52rEQsCqcJPvcXnDMbI68wWw28MRBLt4Omu2EIipN3hXItGVRFZ3pyzczG54HIJwSFuVwcGAid7PXZ8/TZ9VeFuEcY3j5L40u6R1WUzVW/sndo2UMVIUoxq4VaBTUMYX/iJJ6so+4OnYGZJO1Zu0xt/eRWaHI9WdA1JCtWoggrV1fQZlg3jc6ftcW17O27EhucdnbOrPgGl6FD53KZj1zq0pT0uYc5aMtVeue6NDo5/SivK1QcnuK3MKPM1thht7P+iHGN1wTGZBbqGLH/m27/vT2rDO7t0g/NfzIldJ734bfCSmaHvkMt0ZJ0FfjXj+mS01hxu1z222gCD4/q0quWUxZEoQah7VGxCMXkfOu56i1Db14PrrviJN6YKTr+uyuwny5Y2z6xDIBIGYegPL2SsFewn0UaWPCL3FFJASouoTVY8uonwFO/nJ61Guaqxhmq1qgFtON9hRaAl2FA7Hpy/CBpRlXoS5U75ZOG12s6MQFUZ4sK8q3URYqSkWRCuYFxsiaZ0PZ7K0G6+tmqo/RmhA6JtN/y36PJJqYfTyy+UtC7a2aaItyHOEwkkiHKpKd3Oh0RMGkgKG2DULmK/7ZgXzEmhC6WbIr6Uz7KcFLpg6XJ5Pb54qoYsfHu77cr22yqVn01Igi8MaOit50/HmLJ7Q1Be/m9KgWmn/bAxus49IPOQzMpVseYDYEVvtkAQEIZUjQTBv+Qx2EEzacuJLzPJhaAbHhNuHRPhJtIxf2ybb2ayBIwjZoOb6lAwCX49peEmUqSKBaFP656nbm6Hyi/Vxxn4Qy99LsWTAzbejqlJVzxQkqOSYu4qicEekgtpFF8oH+XZ9o/3Y3Vre5TBC61cS39ED//LH9NBkKqjumXsdDHjbh3Mahsuf05rnqFndPUnEfGX0VsqI2zKwpXoirEJkboVGLm266djNMmrCU176ZlK5CdHPbDMAeWtbW6szbu1DwhO50/e9a0h9uJTYkE+qPhWCIFQ/qlUipoQ4n08L7x1ftN4XTmkYJllVs7Qw/mYmHEGwjaizV3QItBX7MbUPeuTsnDDbS3HR4lpZmLMtZ2CHCFTFtCfl3IZwioXsFh/hynAF9bmqKOZj2cY8qLtFKvkNBHohuTVTedTn4vJyZqTzFdr1nAd321DmTfE1SCVNv2mwKgsRuYey8hu5epgJnt2qRaa9dFhLQq9BOAq1FsgZB5lPSK8jnnxy426CFYJgYhBC6ccg1MzVY/Exqbi575Qo5rnyk7oRduNk0l/Uza90BCFb5Fy/kkGgf52eJEbLXyz8gE2gm3CuzUj4kgGygx3tP00PE5+bgS9ZGHqNUXdcUi1GHrnomin+NLg79wKn2ciGMEGs8RYuTysSPjazzPu47Ke+r1ehaRbqEhIg/0D1RhLhucw4YccBkVc+/3k8z2R6nIBaixvyEfmPp3qHn2y+h0lfWvMJQchFSdEcMWRAEGrnaA1KtdJ6nJRLM6nUKlxQN8xOplQuvpi+jiDkiqDrX/QIDKzTI33hNmg/SyCNycSNvG5jM3faEExKY7yd9pKqej3d6ES0iWnlhIOCiTu4aGl1mtvuOY2WXefaORpTUz7axNDk3v4dUn44eUSaVT4v/v0eXsq71Fd+RvsvuiY8+S0tyetJVb3GjCNa2nU3ph6h/+zviT/exz/Vrjy1vI/oH/D0sv2qBmsQg5ALQTA7COH0dhCClOBUsHtg7tXcjzDhbglTUwwaCI4gtHtXuws6AwL71OkuXmuO8jE25qPmLDtF7aLajjvLtuF3KdnoF9PKaAW1qtTYePAqPBmC8xZXS07FgPKJYc0sPVmFW02grYVxmkU4ccpQ5qWdCnvxQz09n4v91nTNbat7qqY8z7vED5f/iuuGm/LMW9Zs3L7rsZhXUfGdfvGEf4UPP0ibJGwrTmHLUQRD3F+rjEYn7N633xmfZDGk03dTW23Xp0sQqh/VIwVuRjgy5zVTfPW4YmUj02aMlPZJV84Dtm/A7SC0j5G7ohMgUNWgt6KcZSMNCXg9FOKUt8bKfzoBNEU5hQENur8qRiVyqCUHZ4ab+NmiSbLGkj3rZsY+ovuGIzxm5SzbbA8r08vKuSI2JLOUWO/Ch8/3U/7PP5ngpzUWlhMOf5vrT0gzO2I7EN34ZpRV629E9AwsV3oNhULJvrv1XR2NlvfKdoFMaEUi7PVZ8b3u7Sqm1jyqZ+FxNUrPbMfbpN9/1eeS+mPl1xZsWTHhCIIVGJ2RYkegql5NmWZTMjjnH7KCT4gfLu3P/ZwqqWKfe8n5pyr96xghXnAmn/WDfpN5mzTC6xtrpLaYsTB6GIm5/EPVSsyFmeqr+Hy97tjMd7pC5z94esr8XoRuKElUn8JPjOYX/9toBcOZGuKNlxpQPTsoH22phUIhevfqQ2VlZdYWVZVEpH2CUDNPe2mSyQLnZD3Y5h1fwGNU3VD5hyV7OZtxBCFnCJ2BUkCgapoegvJHbFXeE/64Dn7w4Xh7qoGlgGNH+Lh/g3ZrhomiQWpq7k15RzwuXjJefpe7sfxaqJ2jU9uOVXIeyGgv+MrJ00bIgxkbi6lXtvKhzyZ8jkT0vySbn+LW75sjBXtNVbyrXhzrIxegdgSVAoLQuzcVORAEc2iSDkEYN0u/5HncIXCgBVDMUc0fjJBXscQfmDk5gmBhZZ2J4kegrebDPFX+x5K3a0Q4Zsl4+Zcle85MGwJVU/UzeEFe+f5WQBFeVI/vLh0rphRyUbeaufo1fP5q0cnHq3ozYuQRxXGmvdW8YgvKQhL/YQoxdT8+m+u8Q55H7959ciMItE8QjKBZPM45CNOsHJMoTepxffnTXBaLialBURTNEYSiWAbnREcg0L9BJ4syweJYv2msFlMK1zWLCFTV6XiEqTaCE4EUyu8a4/ygFLJOYjO1a3N33pTWMug2WlxCfGvqMTLHhrG82Ig9W4lERqDJCYh3CKbUdJatdQch/wRhwhzd21d+DxaCE1vn+rbCxfXDxdgsmpb1QhTNDJwjDoE0Edi7QY8IKf9O8/J0LlufEr6+fLw8m87F7pr2ERh8o3ZPrucVhH3avzqtKzaox6il4+SutK4ugouqZ+utFs+1zT7xXz7qxfAZxbqLYDA3gYsfr/t/YKpIBseBWb2brBAEc8RQtuMYhNq5+lNtFUfKufZC2y33XCrOidO+JSuK4Bb8xIWsFqGYJuB8cQikjcApGup/BK+IckDafdq5UOH3S6tzKAxjy5FOYqeqXquD3YMsXxBbwqDChyIc3DhO3isViKrn6OGi2CSdawjz/bqj5U9FjcEpM0McvN/nSKV+BZLVcYMVgmCOGOJenxUjt53F0BZM+h+19Rwxypdwe91QLkg7JbWDFtIRhA4C2g1THAjsU6/jvOArxVpb43scu2xc8UQeW5tZBxsaPFX7JEMstJQyttH7mY3VYtQJS6rVzNYFNs7kg0krRmZ6VrSF02InZF4CusOBm/xqf1qaTYlvE/yXUcloSwQhlYhv2H3FyH5bpzmqSu1czlDlTou4rBXhtKlFUn9h03k5gmBxlZ2p4keg/xTdQ0K8ZqUug5muBGfcf0o2c+bbMVlZ/AgUp4cmiFTLmSYwyqKHJgX1uMbqIj5/385kgaccNAAAF8lJREFUax/VGhWmWAwkNzsotdEov0ynPoPFNcjOVM3zfYgEL+GjMynUZYUgqL6K8D+NZ+yyakvnL5ujA5LKUxZjRMwz5JVogi8VI3lzBCG729f1KmEE+tfrL8UoudlrH6Bc0WsJdz43o0ijxe3NNS+W+k/VY8ULXgi2gvOMn690aeaIBTFJ5MXpPBqtfVQ/5wtzbL2ITMqjKH8JhRk1+RgxBLn424QX9yTkTwI9OV1C30oQdss+i8GoGapeL17PCY1nbC4wNWaOdoloIP1t5KitNYUx9cPlGmsGLRpyBMEimM5UaSBQNU2H42Nyw3MuIdw2Y5PD/ITAhUuq5aXSQKF4vBxYr/v4wg2iHK8QtuWZKKOW1MinioC2DHeAndGzdddy5VqEH1sbTlmLx7RUMzdM+1aJ6HdMfGkvSI3GV4NDu6JZhiD06pM1QWhR35+fapFx74zs+TIim8lIT5itJ/nCzSh9ra0JfFDmccikocUVnLhxfo4gWFxpZ6o0EGg7ZrjHVm2GYNbCepSbfGXashqxKyhTGrBm5WWgTxHlfJWg5kK7L4B0BxFYJPDNxdWyLN0+xXTdzJkaeqEH30GZAexi0bfXBc4r+yd/K6Z8+x3OL/av3fFD56A6CmTXHV0bEIRMdxAERXW57+svgd8uTy1+g5GbF6Cqmaf7SZIbtfXII6O4iB35q3BD/XC52OL6WjXlCIJVOJ2xUkDg8Ns08uEqfiTKrRbTlMzU/yvKBf3jPPTXmCRLAYvC+qiyzxSO9kLchLCfrcyFNsI2KVxB3aILxRTxKck2dpYOioS4TpUTrE3ABCzCvGQ5P54+pHQyOxj3ejcvuu4MX8XIpW935y/THQRF16rv35BK6a9bkv7bH5zXZ/2WOwdBxcYkl4lwnkL2Gs5bL+JqUnyh7jhZaG19LRtyBMEyoM5caSAwsF4PTpnKefaUFTdOfGHK49jl48SUF3ZtBwhU1WkVHqaI1nDLQL1jXqpLa+QFy3Y71Fwspl7iC5yvXlBDxOaLCRGmTx0m4zp0QjYGu+L5k/CZCbrN0srp7iCo6uqUn7rlnRVrryQ2oHl7rp0yU0P7duc0hZuAHe5eZDw94fZogouLMThx41wcQch4VV2HzoDA4Bs1mmziYpSJFmMRWqERHozCT95wdRq2e6uYegtxmIBiXlI2n0MpEa5P+UzpDEc9l8/WA5OtL6ev28RJhKSvnH7YGh4+tdQKjl3x/Ah8fwZIP3QToiDCjgmCbkBlecr3/5DSppvfHbnn8h2Vq1ZVqXmcI7wkMxQOsfzc+68X4qQpR/OPLXcsLI+TkzmbP8ycHHGdHQIdjUD/Oj0Uj5sEvmJ1e9tkngvTfJ+GzvCSsr0uhpy1NHEWynSx/GVsSnGrcN7S8TLftt+FsGdEeeJzGCNCjdopKfzJNFT50IMfvLmWeQ+UEkmYOTPEf/Y7Gj81BdXPs0lga+sRQ9/NsxhU14Is8NF5Lcnm+947Zw+TxbFZAOK21rZ6tg724GqFb1lee0NibysrY2JsiLRbUtry2BmZcwQhI7jcxZ0JgQNjWraunHGijEXobnNuCkkxeexlXN84WrbKp7Y5VinZMphviPIT9WiwLIhkYDBbxb/wlSs7EzG7bJYO8j3+z4f/Ebu7LQaz/6SESyqf5vGSCVo0Xt/2bITlchSql0FQgK3M/HUkUkaf3fcgEomgyirQf4vKY3FNzXrv7F5GfCqtNnGW7pUIMR3FiGzZfk8uUhhVN4w5xaacuCU4tieeFvjuIodAsSCw9zQd5PncK/DlPDwIPkKYvr6Jmz+IybpimXPB/Jipof5v8WMRrgL6WfdDeVmFc5dWy1PWbRfS4KfqfeaowWosApBU5Z8i1NYN50nYPLWvkNNud+yYhml59jDPC40R8U4Ih0Ll3Xr0pEvXrmvV17/76j3sk3xyxbu9FpJBhcTaedrXT3G1+HwPYZuxDu36tv0LmhVuI8mk+uOLP9vJEYQcVtp17QQIxNSrquRH+Nxs/eEbpE+xwhw3NHnc+f5YWd8JEMtuCjEN96/gNGmN+RicBzJmsL2mSzNTSlEYqT1Qx/1Bu4WiPAAMa+/aLP7dCEn9PZWiZtqxPFfMZ+JbzS0W82g5ds/Kiu6HVVZWfi1SXr4eDT2Bxt/Y9cOP310QOzAjkSxDDkgyWVuF1MqzwLK9Li95Ic6Zcoz8s70Li+HfHUEohlVwPhQUAbPtvT7KIwhDrTvSShJWIkxu8rh9ZyQJJq105cf8rwpXokGVxnw8d17CY3gpFWXK9F4b/2c92AsF1UijmfZt73qFlMCzPoxsGMZWIkHt9S/4vxui35+y8Fp00cpJLcRiJp0zo2aOFeIh6kQxyo35IAeGxE5btIYppRLzkY8fakaL4i52CBQDAvvU6UBPeD5dSdcsfI6bjImoxy07U3ZDv5hWRqKc7gkNCr2zwC2dLi0+nLSsWh5J5+JSvqbmUb0MIWZTrGczPJSFGub08qN5KSaS8Uu2FLENshXmMCg4+vI5NQ/HCgEsIjzlt3B8KRwtbFxHRxBK8Y52PucFgQENeoEq06ynPbZ5GwQuwrUS5pYll7KspLZys0B80HTdLZXk+0hwrNAjCxPpdPFVuHPpeEaW1Pl5OjPbxjXVf9JdJBzIhH8tTzsxZtS3JcQ5kRaemHSsrMnS1ZLoZnQOBu3KYV6SCQon5hHT1aKcNHWEPF4SwLQ56QhCKa2W8zWvCOx6o3bv3sQMlFPAenBSq++CqjJLU1zntfCPxtjmBWHyOsGOMj5TQwPf4jBfOAf4oWW1ys0/eJWnm8N8+/2x8t+Oml4hxzFpj82PcXSgAqoMzKMvpjLpDSGfX181gsXFHm2fDQ5GITGU4jhgbB50DjZ1KeF5TJlyDFeV2keBIwjZ3FmuT+dEQFUGTONIVUyBnyPzOEmzdfuaKr+IKPcvqpUP8jhWh5o2AkjNPieKx/lokBmSvyYsFeHsJeNkbv4GKT7LJmAxHOU8hGrb2ghbzNZk3swyBYoqVvPP2KmlVxVze6tnaivQws8QzrSukLj1oDOjUc6KDSm9TCZHEIrv9+88KiACgcLiev4Xo2GQj1S8T+dmhFrMV++jnnDz4gG8QCmJ1Wy5RiZIrCv7kWIkyneBvfK2C9O6D7wO5cp4nJtXxGRDAW+Zggw9/jHdx0sFEsxmt8taBcxtTCaB8CrCL6MR7ooNKW1ND1OyOaoM19aSzUdZrq2wrXvhBYGfTh0uJr6p5JojCCW3ZM7hfCMwsF57+FALXGA99XFr5xMK7xhltV49ufa5kdKS7/nZtm+yFD5aFaSFGenqffMVw7GJ3ykV7qaMK5aOlndtz6cU7Jk6DS1Hcpgf4haEIywrgW4JgSGza1Fe8D1qG4aVoM6Eqlw2lyofqgNlRA0CZq1VZdzOPfOuKheVl/NQbEhpFm9zBKEUngbOxw5HYMAU7euHuFNgRD6/hLeY2OuEOLdxrPy1wyec5YD9G/QATz8pg5ullQy7CU+EPM57a6z8J8Oene7ymkf1uwi/APp0yORa03ZvEZgydXhpkDMTt5GYy098ZYrA7h2CU6uq51XNa7juulOlqYPGtD6MIwjWIXUGOwsCA+r18z7cLXBoB87JCLs87sHNEuLfb61nJcVUOnqmhvZ6mx6S4CBPOLstZ9x6Xv528DZfsm/4PmOX1cqfOnBNinqo2tk6Xo0AlWy/DLLVCbSShHdR7gqHmRkKsyQ2hPXFlEUSm6/lLQn6qDAM5RJVDrCKwY6NmRLjv0lGqS2pktrbmJMjCB1417ihSg+B/g06RJQ7IK8R49sCxmzp/kU9HggpL68PsbiQIktBDYUKBvg+B4kE6WAm+rtXB6+oeSnVNtZwTzG9jDoYg62Gi83XcDxBHcp5HXAk9un4goqyWJUHBOaJx8JIGe8Wcju9Zp72SiXYN+TxJeB7tFZhjHTUGrUJTj2aUsZMGyFvdNS4+RrHEYR8IevsdhoEqhr02yhXA4MKMKkNCs8LPCnwgi+8korQ+PYl+d+2NKRgTSV7h3wOUuFzohzVlt3Rs8NxEFb6MGlZE7cU1Y5KhwOx7QFjj2hlPMw0Ec7ogMC7bTmxAnhSBSMh/FIqyauN6/mgIxQDTbqiJNlP4HNq4jHgKBH2QzuOGGwCyBMqjK4fJs8Vya2RkxuOIOQEn+u8cyCgUlUXKKxNLcBOwkaIzfa6+YJ+U4WFKC97wsvxMK+uGGOvZOzgG7V7Ms4BohxMis+rsD8EgYdGItl24Zp0b5+PVbgiUsHtiy4Us33r2jYQmPCI7qll1KoGqXv5kApuH3elCWGxwiJRXlOPFz1YUFbGotgQO5ofJkCz+YvsIyE+K6336EECg7WVFHQ8eW1DxZAjP8moacfJs+0DVRpXOIJQGuvkvCwwAlUxLZcyTlGPyW0vy4J5JKYCH6xWWOXBKoXlKKbG/UKFZaEQy5Mr+XBZHau2J8wyeKJ2T5TTOxRiT1/ZxzxgUT7TRoDMQ3aXNvXDoIxuAdtqYGJTiDsKecRSwPmnPbSRDL58LlVJ5TJpLTZU2LVrJQsfA6sEPlThTfF5Q8O8pcLykLBiw0es3F4Qnzk6WZdg15BHXy/J3gpVAvuLsL+2Bhv2FNhFoWsByWuwPiL8y/c4p/4YeSHtBSuBCx1BKIFFci4WBwLBOXw5p6swGWXv4vAq8MIILyXb/qQA88f8XYua9DSIi2DSJ0OiRBW6tb08TJqX2RUw/zW59OZPvlO/0odNWAVM6tKVOxacX3oiM+lP1N6VhiSMf5Q9vdaiQ6cWnCRsnFprYKO5L5MiAcFNocE96mOIhBfoWpiUX7NTVmbuU4RuAiFtvSdDKCGEsEJY8lPwK6uFCI5VPM6rO5oXO5vipCMIWd0SrtNOi4ARBKoI5IMnBTsJmpfKhDstvK2fY8FL4gNVpktfft54hp2t6Z0JVBOsR5KbIBCt6qgsk50JYnOTmgqYT6VSXNKZjhU2XURHEHaqW9pN1g4CKgPqOFkhhscBjiTYQXUTKyYy/rpIFxdzkAuysYe0Z6KCOoTT8yzJnIubpdrXxMI8pkKsswQkbmshHEEo1dvT+V1wBAbU6/8zJEFN1HR+5W4LPtcOcaB1G/ollPrG5/kdD4jZknYtBwRGzdJoN+ESFc4GqnIw5bp+ikCzB/e1KA2dIZVxRwvrCIK77R0COSAwuF4PbBEubjvv7Z6DqZ29a0LgkZTHdcvGyT92djBszt+QhC4hThZlFMqRSMGyUWxOq1C23hXh5rIy7owNkfcK5URHjesIQkch7cbpnAioyt7T2CPk82OF80XYs3NONK+zMmmMd4R9ZrxVI4vyOtJOatyQhErhSM/jUjSQD3dxCZnfCy+oUhdfy59KWT45k2k7gpAJWu5ah8B2EOg7XbtU+nxTTfCi8rlCp12VykK15ctPIc7DjTFWO4XE/K3cKTM1NKAre3geFwicT2t6oGvtI2Dkzx8WaCiL8nIhlSLbd9XuFY4g2MXTWdvJEdi7QfuFhFvw+dZODkV70/cVngrBeYur5ZX2Lnb/bheB2tl6nMKvjJaAXcudztpqz+PaSIRrY0N2vlRbRxA63f3sJlRwBGLqDajgDFXGt4kque3ctkVRkwevvC8et63rynUfOH2Dgt2uY+bobhGYhnJ8mzBWoZQyC4bBDgZeD7wsyuVTh/OX7QmOFaPjNn1yBMEmms6WQ2ATBKqm6mfwuBgYKgRKcEaIaGdtRhTnXYQn8biucaw8s7MCUUzzHj1TK6Ld+LYIZ4lwuEKPnTxt15RpNkWWHtQkN9UfL0YJcqdtjiDstEvvJt4RCBhJ45ZyvikepygcI6YC4s4nrrRahScEfpeM8Mjbl8jKjsDejZEeAqa2QfIrDPJ9vqvwXVUOFykiRc30ppHrVSaldonCn0MhfrvwY/7dEYWmcnU63/0dQcg3ws6+Q0BVBjawdwq+KnAycOxOEkVuFBHni3K/hJi/eANLXCXG4v05xOZreXMqKNI1VJT/BQ4sXm+tevZfEX7nK4+Q5JmdfddgU2QdQbB6nzljDoEdIDBTQ4MW0i8V5jCBnyl8s2BV9/K4UEaC1oOnEWakfP7RLc7bC2JiIsFdKwEEYs9qZeKDoDri8QI/UtgvEMDufG01wkzP495ImNcnfp2POlsthVyXrDMueq6YuP4OgfwiEFNvYDndUikOkxAXAccAlfkdtEOsm4JQ/xDhupYIT769hjVux6BDcM/LILEFWtbyNn19n+8gjFIYVExFknKY9AcKv5EUt0R93o4db6pOitntcm0LBBxBcLeEQ6CgCKgMmM7BmuJMhNNQjBqjyXoonqqK28fHBB4aTfp1wKO+x4xlPfgXI8UQBdc6EQJnP6KVu4Y5ToRzgcPMzpeaqoulsLNgKpkqzQiNqtwT9bhv0lBZ0YmWJ29TcQQhb9A6ww6BzBDYp0538TxOBIaJz8Eq7NaWfhbJzFL+rhaCUr2rTbVFlIUqzPWS/GnJZbI0f6M6y8WEQO1sPQzhRFX+H0p/hN60lhAvlveJqelhCMFHwPs+/CskPFKW4G+xE2RDMWFZ7L4Uy4IWO07OP4dAhyFwYEzL1pYx2AvxRYXDRNm3TU9hD0waWgc/iFVZJ8K7wNtG+RDlRUL8M1LOgkUXitlBcG0nRKD6T7pLOMKhKfiCKAcrDKBVanw3lPIOhUTxET4E3gGWqvAaynO+x9MNx/Cuiy3IbjUcQcgON9fLIdAxCMQ03L8Le4eSDEp59EcZKDBQJNBV2EuVPW1WklQhZYSMDBkQWI7PEg3xlipLPWGxNrG0MSYmV9w1h8AnCMTma9fmJvYVYYCpGinCQPNfhb2BvRB2sZzeux7lHRGWKyxT4S1SNEqYRvFYVPYkH8RiYo7AXMsBAUcQcgDPdXUIdCwCKv1iVEgFu0aVXdSjJ0l2QdhdoR8ee4jSyxd6ekoPbd32jSCYI4qQKEbe2MQHmD9GKc4cFawSsxXr8554rEh5vCtJPsZnlUT5uHIdHy2YyHoXxNWxK13Ko82cqaFXu9OjGXYNefRM+fRUpXfIYw/16YfQ1xydCcHf9xCPctVP7lNT9DuJ0oIE8S1rzT0a/BH+Kz7vqscKH/7r+azC42MJ8fGHb7Fyhot9sX7bOIJgHVJn0CHQsQgcfptG3l5DWUWYSLiJSDJMyPwpSxDSMKItiPkvzSBh1BP8uOCHk6QiQjIhJLvFA9KQWDDRPJhdRHfHrmDnH82IMdGfsg37EqlcR2SdEPaEcEQJkcRLeUjYa41hSPpoyEeTKTQspLSCZLyJVLiclkQXEj3itOxMBZMKeXc4glBI9N3YDgGHgEPAIeAQKFIEHEEo0oVxbjkEHAIOAYeAQ6CQCDiCUEj03dgOAYeAQ8Ah4BAoUgQcQSjShXFuOQQcAg4Bh4BDoJAIOIJQSPTd2A4Bh4BDwCHgEChSBBxBKNKFcW45BBwCDgGHgEOgkAg4glBI9N3YDgGHgEPAIeAQKFIEHEEo0oVxbjkEHAIOAYeAQ6CQCDiCUEj03dgOAYeAQ8Ah4BAoUgQcQSjShXFuOQQcAg4Bh4BDoJAIOIJQSPTd2A4Bh4BDwCHgEChSBBxBKNKFcW45BBwCDgGHgEOgkAg4glBI9N3YDgGHgEPAIeAQKFIEHEEo0oVxbjkEHAIOAYeAQ6CQCDiCUEj03dgOAYeAQ8Ah4BAoUgQcQSjShXFuOQQcAg4Bh4BDoJAIOIJQSPTd2A4Bh4BDwCHgEChSBBxBKNKFcW45BBwCDgGHgEOgkAg4glBI9N3YDgGHgEPAIeAQKFIEHEEo0oVxbjkEHAIOAYeAQ6CQCDiCUEj03dgOAYeAQ8Ah4BAoUgQcQSjShXFuOQQcAg4Bh4BDoJAIOIJQSPTd2A4Bh4BDwCHgEChSBBxBKNKFcW45BBwCDgGHgEOgkAg4glBI9N3YDgGHgEPAIeAQKFIEHEEo0oVxbjkEHAIOAYeAQ6CQCDiCUEj03dgOAYeAQ8Ah4BAoUgQcQSjShXFuOQQcAg4Bh4BDoJAIOIJQSPTd2A4Bh4BDwCHgEChSBBxBKNKFcW45BBwCDgGHgEOgkAg4glBI9N3YDgGHgEPAIeAQKFIEHEEo0oVxbjkEHAIOAYeAQ6CQCDiCUEj03dgOAYeAQ8Ah4BAoUgT+P6msUX0vZY+dAAAAAElFTkSuQmCC;" vertex="1" parent="Rm6uRgKbICZrB_GlCouL-11">
                    <mxGeometry x="104" y="6.91" width="50" height="50" as="geometry"/>
                </mxCell>
                <mxCell id="WxSYuuznqqIj9oOgkVCh-18" style="edgeStyle=orthogonalEdgeStyle;html=1;exitX=0.75;exitY=1;exitDx=0;exitDy=0;entryX=0.75;entryY=0;entryDx=0;entryDy=0;fillColor=#1ba1e2;strokeColor=#006EAF;" parent="1" source="Rm6uRgKbICZrB_GlCouL-26" target="Rm6uRgKbICZrB_GlCouL-27" edge="1">
                    <mxGeometry relative="1" as="geometry"/>
                </mxCell>
                <mxCell id="WxSYuuznqqIj9oOgkVCh-23" style="edgeStyle=orthogonalEdgeStyle;html=1;exitX=0.25;exitY=1;exitDx=0;exitDy=0;entryX=0.25;entryY=0;entryDx=0;entryDy=0;fillColor=#a20025;strokeColor=#B85450;" parent="1" source="Rm6uRgKbICZrB_GlCouL-26" target="Rm6uRgKbICZrB_GlCouL-27" edge="1">
                    <mxGeometry relative="1" as="geometry"/>
                </mxCell>
                <mxCell id="Rm6uRgKbICZrB_GlCouL-26" value="E2E TEST" style="rounded=0;whiteSpace=wrap;html=1;rotation=-90;" parent="1" vertex="1">
                    <mxGeometry x="340" y="640" width="140" height="20" as="geometry"/>
                </mxCell>
                <mxCell id="WxSYuuznqqIj9oOgkVCh-20" style="edgeStyle=orthogonalEdgeStyle;html=1;exitX=0.75;exitY=1;exitDx=0;exitDy=0;entryX=0.5;entryY=0;entryDx=0;entryDy=0;fillColor=#1ba1e2;strokeColor=#006EAF;" parent="1" source="Rm6uRgKbICZrB_GlCouL-27" target="zOHwF1zZphQyOIIBqBRI-31" edge="1">
                    <mxGeometry relative="1" as="geometry"/>
                </mxCell>
                <mxCell id="WxSYuuznqqIj9oOgkVCh-27" style="edgeStyle=orthogonalEdgeStyle;html=1;exitX=0.25;exitY=1;exitDx=0;exitDy=0;entryX=0.25;entryY=0;entryDx=0;entryDy=0;strokeColor=#B85450;" parent="1" source="Rm6uRgKbICZrB_GlCouL-27" target="WxSYuuznqqIj9oOgkVCh-26" edge="1">
                    <mxGeometry relative="1" as="geometry"/>
                </mxCell>
                <mxCell id="Rm6uRgKbICZrB_GlCouL-27" value="UNIT TEST" style="rounded=0;whiteSpace=wrap;html=1;rotation=-90;" parent="1" vertex="1">
                    <mxGeometry x="390" y="640" width="140" height="20" as="geometry"/>
                </mxCell>
                <mxCell id="T4yp0sZZJBqy6boNkic5-2" value="" style="group;shadow=1;" parent="1" vertex="1" connectable="0">
                    <mxGeometry x="510" y="790" width="240" height="295" as="geometry"/>
                </mxCell>
                <mxCell id="bOwzalCgTgJMlXmcAW9U-10" value="" style="rounded=0;whiteSpace=wrap;html=1;verticalAlign=top;align=left;shadow=1;" parent="T4yp0sZZJBqy6boNkic5-2" vertex="1">
                    <mxGeometry width="240.00000000000003" height="295" as="geometry"/>
                </mxCell>
                <mxCell id="SVfGcrombo2FbrhHBhek-21" value="" style="group" parent="T4yp0sZZJBqy6boNkic5-2" connectable="0" vertex="1">
                    <mxGeometry x="125.40679245283023" y="80" width="108.67924528301887" height="60" as="geometry"/>
                </mxCell>
                <mxCell id="SVfGcrombo2FbrhHBhek-11" value="&lt;div&gt;Simulation &lt;br&gt;&lt;/div&gt;&lt;div&gt;Swarm Manager&lt;/div&gt;" style="rounded=0;whiteSpace=wrap;html=1;align=right;verticalAlign=bottom;shadow=1;" parent="SVfGcrombo2FbrhHBhek-21" vertex="1">
                    <mxGeometry width="108.67924528301887" height="60" as="geometry"/>
                </mxCell>
                <mxCell id="SVfGcrombo2FbrhHBhek-20" value="" style="shape=image;verticalLabelPosition=bottom;labelBackgroundColor=default;verticalAlign=top;aspect=fixed;imageAspect=0;image=https://raw.githubusercontent.com/walkxcode/dashboard-icons/9300374084f5a01421c7822c8757e4742bd27f9a/svg/digital-ocean.svg;" parent="SVfGcrombo2FbrhHBhek-21" vertex="1">
                    <mxGeometry x="9.056603773584907" y="5.330000000000041" width="15.849056603773587" height="15.849056603773587" as="geometry"/>
                </mxCell>
                <mxCell id="SVfGcrombo2FbrhHBhek-25" value="" style="group" parent="T4yp0sZZJBqy6boNkic5-2" connectable="0" vertex="1">
                    <mxGeometry x="125.40679245283023" y="220" width="108.67924528301887" height="60" as="geometry"/>
                </mxCell>
                <mxCell id="SVfGcrombo2FbrhHBhek-26" value="&lt;div&gt;&amp;nbsp; Utility Server&lt;/div&gt;" style="rounded=0;whiteSpace=wrap;html=1;align=right;verticalAlign=bottom;shadow=1;" parent="SVfGcrombo2FbrhHBhek-25" vertex="1">
                    <mxGeometry width="108.67924528301887" height="60" as="geometry"/>
                </mxCell>
                <mxCell id="SVfGcrombo2FbrhHBhek-27" value="" style="shape=image;verticalLabelPosition=bottom;labelBackgroundColor=default;verticalAlign=top;aspect=fixed;imageAspect=0;image=https://raw.githubusercontent.com/walkxcode/dashboard-icons/9300374084f5a01421c7822c8757e4742bd27f9a/svg/digital-ocean.svg;" parent="SVfGcrombo2FbrhHBhek-25" vertex="1">
                    <mxGeometry x="9.056603773584907" y="5.330000000000041" width="15.849056603773587" height="15.849056603773587" as="geometry"/>
                </mxCell>
                <mxCell id="SVfGcrombo2FbrhHBhek-28" value="" style="group;shadow=1;" parent="T4yp0sZZJBqy6boNkic5-2" connectable="0" vertex="1">
                    <mxGeometry x="125.40679245283023" y="150" width="108.67924528301887" height="60" as="geometry"/>
                </mxCell>
                <mxCell id="SVfGcrombo2FbrhHBhek-29" value="Frontend" style="rounded=0;whiteSpace=wrap;html=1;align=right;verticalAlign=bottom;shadow=1;" parent="SVfGcrombo2FbrhHBhek-28" vertex="1">
                    <mxGeometry width="108.67924528301887" height="60" as="geometry"/>
                </mxCell>
                <mxCell id="SVfGcrombo2FbrhHBhek-30" value="" style="shape=image;verticalLabelPosition=bottom;labelBackgroundColor=default;verticalAlign=top;aspect=fixed;imageAspect=0;image=https://raw.githubusercontent.com/walkxcode/dashboard-icons/9300374084f5a01421c7822c8757e4742bd27f9a/svg/digital-ocean.svg;" parent="SVfGcrombo2FbrhHBhek-28" vertex="1">
                    <mxGeometry x="9.056603773584907" y="5.330000000000041" width="15.849056603773587" height="15.849056603773587" as="geometry"/>
                </mxCell>
                <mxCell id="Rm6uRgKbICZrB_GlCouL-14" value="" style="group" parent="T4yp0sZZJBqy6boNkic5-2" connectable="0" vertex="1">
                    <mxGeometry x="125.40679245283023" y="10" width="108.67924528301887" height="60" as="geometry"/>
                </mxCell>
                <mxCell id="Rm6uRgKbICZrB_GlCouL-15" value="Postgres Database" style="rounded=0;whiteSpace=wrap;html=1;align=right;verticalAlign=bottom;shadow=1;" parent="Rm6uRgKbICZrB_GlCouL-14" vertex="1">
                    <mxGeometry width="108.67924528301887" height="60" as="geometry"/>
                </mxCell>
                <mxCell id="Rm6uRgKbICZrB_GlCouL-16" value="" style="shape=image;verticalLabelPosition=bottom;labelBackgroundColor=default;verticalAlign=top;aspect=fixed;imageAspect=0;image=https://raw.githubusercontent.com/walkxcode/dashboard-icons/9300374084f5a01421c7822c8757e4742bd27f9a/svg/digital-ocean.svg;" parent="Rm6uRgKbICZrB_GlCouL-14" vertex="1">
                    <mxGeometry x="9.056603773584907" y="5.330000000000041" width="15.849056603773587" height="15.849056603773587" as="geometry"/>
                </mxCell>
                <mxCell id="Rm6uRgKbICZrB_GlCouL-31" value="" style="shape=image;verticalLabelPosition=bottom;labelBackgroundColor=default;verticalAlign=top;aspect=fixed;imageAspect=0;image=https://raw.githubusercontent.com/walkxcode/dashboard-icons/9300374084f5a01421c7822c8757e4742bd27f9a/svg/digital-ocean.svg;" parent="T4yp0sZZJBqy6boNkic5-2" vertex="1">
                    <mxGeometry x="7.67" y="10" width="50" height="50" as="geometry"/>
                </mxCell>
                <mxCell id="T4yp0sZZJBqy6boNkic5-6" style="edgeStyle=orthogonalEdgeStyle;rounded=0;orthogonalLoop=1;jettySize=auto;html=1;" parent="1" target="bOwzalCgTgJMlXmcAW9U-10" edge="1">
                    <mxGeometry relative="1" as="geometry">
                        <Array as="points">
                            <mxPoint x="400" y="1030"/>
                            <mxPoint x="400" y="938"/>
                        </Array>
                    </mxGeometry>
                </mxCell>
                <mxCell id="T4yp0sZZJBqy6boNkic5-7" value="&lt;div&gt;Create &lt;br&gt;&lt;/div&gt;&lt;div&gt;droplet &lt;br&gt;&lt;/div&gt;&lt;div&gt;instances&lt;/div&gt;" style="edgeLabel;html=1;align=center;verticalAlign=middle;resizable=0;points=[];" parent="T4yp0sZZJBqy6boNkic5-6" vertex="1" connectable="0">
                    <mxGeometry x="-0.0796" y="-3" relative="1" as="geometry">
                        <mxPoint x="32" y="2" as="offset"/>
                    </mxGeometry>
                </mxCell>
                <mxCell id="T4yp0sZZJBqy6boNkic5-8" value="&lt;div&gt;Interacting &lt;br&gt;&lt;/div&gt;&lt;div&gt;with&lt;/div&gt;" style="edgeStyle=orthogonalEdgeStyle;rounded=0;orthogonalLoop=1;jettySize=auto;html=1;" parent="1" edge="1">
                    <mxGeometry x="-0.5585" y="10" relative="1" as="geometry">
                        <Array as="points">
                            <mxPoint x="820" y="990"/>
                        </Array>
                        <mxPoint x="819.9999999999998" y="1050" as="sourcePoint"/>
                        <mxPoint x="744.0860377358492" y="989.9999999999998" as="targetPoint"/>
                        <mxPoint as="offset"/>
                    </mxGeometry>
                </mxCell>
                <mxCell id="T4yp0sZZJBqy6boNkic5-15" style="edgeStyle=orthogonalEdgeStyle;rounded=0;orthogonalLoop=1;jettySize=auto;html=1;" parent="1" source="bOwzalCgTgJMlXmcAW9U-7" target="bOwzalCgTgJMlXmcAW9U-12" edge="1">
                    <mxGeometry relative="1" as="geometry"/>
                </mxCell>
                <mxCell id="T4yp0sZZJBqy6boNkic5-16" value="&lt;div&gt;On Push&lt;/div&gt;&lt;div&gt;&amp;nbsp;or Pull request&lt;/div&gt;" style="edgeLabel;html=1;align=center;verticalAlign=middle;resizable=0;points=[];" parent="T4yp0sZZJBqy6boNkic5-15" vertex="1" connectable="0">
                    <mxGeometry x="-0.188" y="-3" relative="1" as="geometry">
                        <mxPoint x="-2" y="-26" as="offset"/>
                    </mxGeometry>
                </mxCell>
                <mxCell id="T4yp0sZZJBqy6boNkic5-17" style="edgeStyle=orthogonalEdgeStyle;rounded=0;orthogonalLoop=1;jettySize=auto;html=1;shadow=0;" parent="1" source="SVfGcrombo2FbrhHBhek-11" target="SVfGcrombo2FbrhHBhek-33" edge="1">
                    <mxGeometry relative="1" as="geometry">
                        <Array as="points">
                            <mxPoint x="830" y="900"/>
                            <mxPoint x="830" y="440"/>
                        </Array>
                    </mxGeometry>
                </mxCell>
                <mxCell id="T4yp0sZZJBqy6boNkic5-38" style="edgeStyle=orthogonalEdgeStyle;rounded=0;orthogonalLoop=1;jettySize=auto;html=1;" parent="1" source="T4yp0sZZJBqy6boNkic5-20" target="SVfGcrombo2FbrhHBhek-33" edge="1">
                    <mxGeometry relative="1" as="geometry">
                        <Array as="points">
                            <mxPoint x="760" y="695"/>
                        </Array>
                    </mxGeometry>
                </mxCell>
                <mxCell id="T4yp0sZZJBqy6boNkic5-20" value="Files changed in Sim API ?" style="rounded=0;whiteSpace=wrap;html=1;rotation=0;" parent="1" vertex="1">
                    <mxGeometry x="655.41" y="640" width="54.59" height="110" as="geometry"/>
                </mxCell>
                <mxCell id="T4yp0sZZJBqy6boNkic5-34" value="&lt;div&gt;Docker build &lt;br&gt;&lt;/div&gt;&lt;div&gt;&amp;amp; push&lt;/div&gt;" style="edgeStyle=orthogonalEdgeStyle;rounded=0;orthogonalLoop=1;jettySize=auto;html=1;" parent="1" source="T4yp0sZZJBqy6boNkic5-21" target="SVfGcrombo2FbrhHBhek-33" edge="1">
                    <mxGeometry x="-0.081" relative="1" as="geometry">
                        <mxPoint x="625.94" y="605.0000000000002" as="targetPoint"/>
                        <Array as="points">
                            <mxPoint x="760" y="605"/>
                        </Array>
                        <mxPoint as="offset"/>
                    </mxGeometry>
                </mxCell>
                <mxCell id="T4yp0sZZJBqy6boNkic5-21" value="Files changed in Fronted end ?" style="rounded=0;whiteSpace=wrap;html=1;rotation=0;" parent="1" vertex="1">
                    <mxGeometry x="655.41" y="520" width="54.59" height="110" as="geometry"/>
                </mxCell>
                <mxCell id="T4yp0sZZJBqy6boNkic5-37" style="edgeStyle=orthogonalEdgeStyle;rounded=0;orthogonalLoop=1;jettySize=auto;html=1;" parent="1" source="SVfGcrombo2FbrhHBhek-29" target="SVfGcrombo2FbrhHBhek-33" edge="1">
                    <mxGeometry relative="1" as="geometry">
                        <mxPoint x="810" y="680" as="targetPoint"/>
                        <Array as="points">
                            <mxPoint x="830" y="970"/>
                            <mxPoint x="830" y="440"/>
                        </Array>
                    </mxGeometry>
                </mxCell>
                <mxCell id="zOHwF1zZphQyOIIBqBRI-25" value="&lt;div&gt;docker pull &lt;br&gt;&lt;/div&gt;&lt;div&gt;triggered &lt;br&gt;&lt;/div&gt;&lt;div&gt;by GitHub&lt;/div&gt;&lt;div&gt;actions&lt;br&gt;&lt;/div&gt;" style="edgeLabel;html=1;align=center;verticalAlign=middle;resizable=0;points=[];" parent="T4yp0sZZJBqy6boNkic5-37" vertex="1" connectable="0">
                    <mxGeometry x="0.7666" y="2" relative="1" as="geometry">
                        <mxPoint x="-28" y="175" as="offset"/>
                    </mxGeometry>
                </mxCell>
                <mxCell id="zOHwF1zZphQyOIIBqBRI-13" style="edgeStyle=orthogonalEdgeStyle;rounded=0;orthogonalLoop=1;jettySize=auto;html=1;" parent="1" source="zOHwF1zZphQyOIIBqBRI-9" target="bOwzalCgTgJMlXmcAW9U-10" edge="1">
                    <mxGeometry relative="1" as="geometry">
                        <Array as="points">
                            <mxPoint x="390" y="920"/>
                            <mxPoint x="390" y="920"/>
                        </Array>
                    </mxGeometry>
                </mxCell>
                <mxCell id="zOHwF1zZphQyOIIBqBRI-14" value="&lt;div&gt;Running &lt;br&gt;&lt;/div&gt;&lt;div&gt;Terraform plan &lt;br&gt;&lt;/div&gt;&lt;div&gt;&amp;amp; apply&lt;/div&gt;" style="edgeLabel;html=1;align=center;verticalAlign=middle;resizable=0;points=[];" parent="zOHwF1zZphQyOIIBqBRI-13" vertex="1" connectable="0">
                    <mxGeometry x="0.0824" y="-1" relative="1" as="geometry">
                        <mxPoint x="-27" y="25" as="offset"/>
                    </mxGeometry>
                </mxCell>
                <mxCell id="zOHwF1zZphQyOIIBqBRI-19" value="" style="group;shadow=1;" parent="1" vertex="1" connectable="0">
                    <mxGeometry x="111.56" y="800" width="150.4" height="70" as="geometry"/>
                </mxCell>
                <mxCell id="zOHwF1zZphQyOIIBqBRI-17" value="&amp;nbsp;Source code" style="rounded=0;whiteSpace=wrap;html=1;align=left;container=0;shadow=1;" parent="zOHwF1zZphQyOIIBqBRI-19" vertex="1">
                    <mxGeometry width="150.4" height="70.00000000000003" as="geometry"/>
                </mxCell>
                <mxCell id="zOHwF1zZphQyOIIBqBRI-24" value="" style="group;shadow=0;" parent="1" vertex="1" connectable="0">
                    <mxGeometry x="112" y="882" width="150" height="73.33000000000004" as="geometry"/>
                </mxCell>
                <mxCell id="zOHwF1zZphQyOIIBqBRI-9" value="&lt;div align=&quot;left&quot;&gt;&amp;nbsp;Infrastructure &lt;br&gt;&lt;/div&gt;&lt;div align=&quot;left&quot;&gt;&amp;nbsp;as code&lt;br&gt;&lt;/div&gt;" style="rounded=0;whiteSpace=wrap;html=1;align=left;shadow=1;" parent="zOHwF1zZphQyOIIBqBRI-24" vertex="1">
                    <mxGeometry width="150" height="73.33" as="geometry"/>
                </mxCell>
                <mxCell id="zOHwF1zZphQyOIIBqBRI-8" value="" style="shape=image;verticalLabelPosition=bottom;labelBackgroundColor=default;verticalAlign=top;aspect=fixed;imageAspect=0;image=https://raw.githubusercontent.com/walkxcode/dashboard-icons/9300374084f5a01421c7822c8757e4742bd27f9a/svg/terraform.svg;" parent="zOHwF1zZphQyOIIBqBRI-24" vertex="1">
                    <mxGeometry x="79.04940655328963" y="3.9215876635066707" width="65.48066345828751" height="65.48066345828751" as="geometry"/>
                </mxCell>
                <mxCell id="zOHwF1zZphQyOIIBqBRI-30" value="CodeQL" style="rounded=0;whiteSpace=wrap;html=1;rotation=-90;" parent="1" vertex="1">
                    <mxGeometry x="530" y="604.96" width="71.93" height="20" as="geometry"/>
                </mxCell>
                <mxCell id="WxSYuuznqqIj9oOgkVCh-22" style="edgeStyle=orthogonalEdgeStyle;html=1;exitX=0.5;exitY=1;exitDx=0;exitDy=0;entryX=0.5;entryY=0;entryDx=0;entryDy=0;fillColor=#1ba1e2;strokeColor=#006EAF;" parent="1" source="zOHwF1zZphQyOIIBqBRI-31" target="zOHwF1zZphQyOIIBqBRI-30" edge="1">
                    <mxGeometry relative="1" as="geometry"/>
                </mxCell>
                <mxCell id="zOHwF1zZphQyOIIBqBRI-31" value="SNYK" style="rounded=0;whiteSpace=wrap;html=1;rotation=-90;" parent="1" vertex="1">
                    <mxGeometry x="480" y="604.96" width="71.93" height="20" as="geometry"/>
                </mxCell>
                <mxCell id="WxSYuuznqqIj9oOgkVCh-39" style="edgeStyle=orthogonalEdgeStyle;html=1;strokeColor=#000000;" parent="1" source="zOHwF1zZphQyOIIBqBRI-33" target="bOwzalCgTgJMlXmcAW9U-7" edge="1">
                    <mxGeometry relative="1" as="geometry"/>
                </mxCell>
                <mxCell id="WxSYuuznqqIj9oOgkVCh-52" value="Create Pull Request when a&lt;br&gt;Nuget Package is outdated" style="edgeLabel;html=1;align=center;verticalAlign=middle;resizable=0;points=[];" parent="WxSYuuznqqIj9oOgkVCh-39" vertex="1" connectable="0">
                    <mxGeometry x="-0.343" y="1" relative="1" as="geometry">
                        <mxPoint x="2" y="-24" as="offset"/>
                    </mxGeometry>
                </mxCell>
                <mxCell id="zOHwF1zZphQyOIIBqBRI-33" value="Dependa Bot" style="rounded=0;whiteSpace=wrap;html=1;dashed=1;dashPattern=8 8;" parent="1" vertex="1">
                    <mxGeometry x="114" y="209.71" width="140" height="20" as="geometry"/>
                </mxCell>
                <mxCell id="WxSYuuznqqIj9oOgkVCh-15" style="edgeStyle=orthogonalEdgeStyle;html=1;fillColor=#1ba1e2;strokeColor=#006EAF;entryX=0.75;entryY=0;entryDx=0;entryDy=0;" parent="1" source="WxSYuuznqqIj9oOgkVCh-7" target="Rm6uRgKbICZrB_GlCouL-26" edge="1">
                    <mxGeometry relative="1" as="geometry"/>
                </mxCell>
                <mxCell id="WxSYuuznqqIj9oOgkVCh-7" value="&lt;span style=&quot;font-size: 11px; background-color: rgb(255, 255, 255);&quot;&gt;Push / request&lt;/span&gt;&lt;br style=&quot;border-color: var(--border-color); font-size: 11px;&quot;&gt;&lt;span style=&quot;font-size: 11px; background-color: rgb(255, 255, 255);&quot;&gt;to Dev branch&lt;/span&gt;" style="rounded=1;whiteSpace=wrap;html=1;shadow=1;strokeColor=#006EAF;" parent="1" vertex="1">
                    <mxGeometry x="217.93" y="594.96" width="118.07" height="40" as="geometry"/>
                </mxCell>
                <mxCell id="WxSYuuznqqIj9oOgkVCh-16" style="edgeStyle=orthogonalEdgeStyle;html=1;fillColor=#f8cecc;strokeColor=#b85450;" parent="1" source="WxSYuuznqqIj9oOgkVCh-8" edge="1">
                    <mxGeometry relative="1" as="geometry">
                        <mxPoint x="400" y="685" as="targetPoint"/>
                    </mxGeometry>
                </mxCell>
                <mxCell id="WxSYuuznqqIj9oOgkVCh-8" value="&lt;span style=&quot;font-size: 11px; background-color: rgb(255, 255, 255);&quot;&gt;Push to main branch&lt;/span&gt;" style="rounded=1;whiteSpace=wrap;html=1;shadow=1;strokeColor=#B85450;" parent="1" vertex="1">
                    <mxGeometry x="218" y="665" width="118.07" height="40" as="geometry"/>
                </mxCell>
                <mxCell id="WxSYuuznqqIj9oOgkVCh-9" style="edgeStyle=orthogonalEdgeStyle;html=1;fillColor=#1ba1e2;strokeColor=#006EAF;" parent="1" source="bOwzalCgTgJMlXmcAW9U-12" target="WxSYuuznqqIj9oOgkVCh-7" edge="1">
                    <mxGeometry relative="1" as="geometry">
                        <mxPoint x="521" y="485.0899999999999" as="sourcePoint"/>
                        <Array as="points">
                            <mxPoint x="560" y="560"/>
                            <mxPoint x="280" y="560"/>
                        </Array>
                    </mxGeometry>
                </mxCell>
                <mxCell id="WxSYuuznqqIj9oOgkVCh-10" style="edgeStyle=orthogonalEdgeStyle;html=1;fillColor=#a20025;strokeColor=#6F0000;" parent="1" source="bOwzalCgTgJMlXmcAW9U-12" edge="1">
                    <mxGeometry relative="1" as="geometry">
                        <mxPoint x="521" y="485.0899999999999" as="sourcePoint"/>
                        <mxPoint x="219" y="689" as="targetPoint"/>
                        <Array as="points">
                            <mxPoint x="560" y="539"/>
                            <mxPoint x="201" y="539"/>
                            <mxPoint x="201" y="689"/>
                        </Array>
                    </mxGeometry>
                </mxCell>
                <mxCell id="WxSYuuznqqIj9oOgkVCh-47" style="edgeStyle=orthogonalEdgeStyle;html=1;strokeColor=#000000;exitX=0;exitY=0.5;exitDx=0;exitDy=0;entryX=0.75;entryY=0;entryDx=0;entryDy=0;" parent="1" source="WxSYuuznqqIj9oOgkVCh-14" target="bOwzalCgTgJMlXmcAW9U-7" edge="1">
                    <mxGeometry relative="1" as="geometry">
                        <Array as="points">
                            <mxPoint x="392" y="370"/>
                            <mxPoint x="232" y="370"/>
                        </Array>
                    </mxGeometry>
                </mxCell>
                <mxCell id="WxSYuuznqqIj9oOgkVCh-48" value="Static Code analysis" style="edgeLabel;html=1;align=center;verticalAlign=middle;resizable=0;points=[];" parent="WxSYuuznqqIj9oOgkVCh-47" vertex="1" connectable="0">
                    <mxGeometry x="-0.4433" y="-1" relative="1" as="geometry">
                        <mxPoint x="-30" as="offset"/>
                    </mxGeometry>
                </mxCell>
                <mxCell id="WxSYuuznqqIj9oOgkVCh-14" value="SonarQUBE" style="rounded=0;whiteSpace=wrap;html=1;strokeColor=default;shadow=1;" parent="1" vertex="1">
                    <mxGeometry x="392" y="335" width="88" height="65" as="geometry"/>
                </mxCell>
                <mxCell id="WxSYuuznqqIj9oOgkVCh-28" style="edgeStyle=orthogonalEdgeStyle;html=1;exitX=0.5;exitY=1;exitDx=0;exitDy=0;entryX=0;entryY=0.5;entryDx=0;entryDy=0;strokeColor=#000000;" parent="1" source="WxSYuuznqqIj9oOgkVCh-26" target="T4yp0sZZJBqy6boNkic5-21" edge="1">
                    <mxGeometry relative="1" as="geometry"/>
                </mxCell>
                <mxCell id="WxSYuuznqqIj9oOgkVCh-29" style="edgeStyle=orthogonalEdgeStyle;html=1;entryX=0;entryY=0.5;entryDx=0;entryDy=0;strokeColor=#000000;" parent="1" source="WxSYuuznqqIj9oOgkVCh-26" target="T4yp0sZZJBqy6boNkic5-20" edge="1">
                    <mxGeometry relative="1" as="geometry"/>
                </mxCell>
                <mxCell id="WxSYuuznqqIj9oOgkVCh-26" value="Deployment Workflow" style="rounded=0;whiteSpace=wrap;html=1;rotation=-90;" parent="1" vertex="1">
                    <mxGeometry x="540" y="640" width="140" height="20" as="geometry"/>
                </mxCell>
                <mxCell id="WxSYuuznqqIj9oOgkVCh-30" value="" style="shape=image;verticalLabelPosition=bottom;labelBackgroundColor=none;verticalAlign=top;aspect=fixed;imageAspect=0;image=https://raw.githubusercontent.com/walkxcode/dashboard-icons/9300374084f5a01421c7822c8757e4742bd27f9a/svg/docker.svg;" parent="1" vertex="1">
                    <mxGeometry x="748" y="533" width="25" height="25" as="geometry"/>
                </mxCell>
                <mxCell id="WxSYuuznqqIj9oOgkVCh-46" style="edgeStyle=orthogonalEdgeStyle;html=1;strokeColor=#000000;" parent="1" source="bOwzalCgTgJMlXmcAW9U-7" target="WxSYuuznqqIj9oOgkVCh-14" edge="1">
                    <mxGeometry relative="1" as="geometry">
                        <Array as="points">
                            <mxPoint x="440" y="453"/>
                        </Array>
                    </mxGeometry>
                </mxCell>
                <mxCell id="6" value="" style="shape=image;verticalLabelPosition=bottom;labelBackgroundColor=none;verticalAlign=top;aspect=fixed;imageAspect=0;image=https://raw.githubusercontent.com/walkxcode/dashboard-icons/9300374084f5a01421c7822c8757e4742bd27f9a/svg/docker.svg;" vertex="1" parent="1">
                    <mxGeometry x="816" y="592" width="25" height="25" as="geometry"/>
                </mxCell>
                <mxCell id="19" value="" style="group" vertex="1" connectable="0" parent="1">
                    <mxGeometry x="30" y="30" width="800" height="135.36" as="geometry"/>
                </mxCell>
                <mxCell id="WxSYuuznqqIj9oOgkVCh-53" value="" style="rounded=0;whiteSpace=wrap;html=1;shadow=0;strokeColor=default;fillColor=default;align=left;verticalAlign=top;" parent="19" vertex="1">
                    <mxGeometry width="800" height="120" as="geometry"/>
                </mxCell>
                <mxCell id="WxSYuuznqqIj9oOgkVCh-58" value="Platform / Tool" style="rounded=0;whiteSpace=wrap;html=1;rotation=0;shadow=1;" parent="19" vertex="1">
                    <mxGeometry x="414.4578313253012" y="35.06999999999999" width="163.85542168674698" height="49.86" as="geometry"/>
                </mxCell>
                <mxCell id="7" value="" style="group" vertex="1" connectable="0" parent="19">
                    <mxGeometry x="16.385542168674696" y="35.07" width="173.49397590361443" height="100.29000000000002" as="geometry"/>
                </mxCell>
                <mxCell id="WxSYuuznqqIj9oOgkVCh-54" value="&amp;nbsp;" style="rounded=0;whiteSpace=wrap;html=1;shadow=0;strokeColor=default;fillColor=default;dashed=1;" parent="7" vertex="1">
                    <mxGeometry width="163.85542168674695" height="50" as="geometry"/>
                </mxCell>
                <mxCell id="WxSYuuznqqIj9oOgkVCh-55" value="Third Party Tool, that runs autonomously" style="text;html=1;strokeColor=none;fillColor=none;align=center;verticalAlign=middle;whiteSpace=wrap;rounded=0;shadow=0;dashed=1;" parent="7" vertex="1">
                    <mxGeometry x="22.168674698795176" y="10" width="132.04819277108433" height="30" as="geometry"/>
                </mxCell>
                <mxCell id="10" value="" style="group" vertex="1" connectable="0" parent="19">
                    <mxGeometry x="626.5060240963855" y="30" width="152.289156626506" height="30" as="geometry"/>
                </mxCell>
                <mxCell id="WxSYuuznqqIj9oOgkVCh-61" style="edgeStyle=orthogonalEdgeStyle;rounded=0;html=1;shadow=0;strokeColor=#000000;entryX=0;entryY=0.5;entryDx=0;entryDy=0;endArrow=none;endFill=0;" parent="10" target="WxSYuuznqqIj9oOgkVCh-59" edge="1">
                    <mxGeometry relative="1" as="geometry">
                        <mxPoint x="-57.831325301204814" y="15" as="targetPoint"/>
                        <mxPoint y="15" as="sourcePoint"/>
                    </mxGeometry>
                </mxCell>
                <mxCell id="WxSYuuznqqIj9oOgkVCh-63" style="edgeStyle=orthogonalEdgeStyle;rounded=0;html=1;exitX=1;exitY=0.5;exitDx=0;exitDy=0;shadow=0;strokeColor=#000000;" parent="10" source="WxSYuuznqqIj9oOgkVCh-59" edge="1">
                    <mxGeometry relative="1" as="geometry">
                        <mxPoint x="152.289156626506" y="15" as="targetPoint"/>
                    </mxGeometry>
                </mxCell>
                <mxCell id="WxSYuuznqqIj9oOgkVCh-59" value="Action or input" style="text;html=1;strokeColor=none;fillColor=none;align=center;verticalAlign=middle;whiteSpace=wrap;rounded=0;shadow=0;" parent="10" vertex="1">
                    <mxGeometry x="25.542168674698797" width="106.02409638554217" height="30" as="geometry"/>
                </mxCell>
                <mxCell id="11" value="" style="group" vertex="1" connectable="0" parent="19">
                    <mxGeometry x="628.433734939759" y="60" width="152.289156626506" height="30" as="geometry"/>
                </mxCell>
                <mxCell id="WxSYuuznqqIj9oOgkVCh-66" style="edgeStyle=orthogonalEdgeStyle;rounded=0;html=1;shadow=0;strokeColor=#3333FF;entryX=0;entryY=0.5;entryDx=0;entryDy=0;endArrow=none;endFill=0;" parent="11" target="WxSYuuznqqIj9oOgkVCh-68" edge="1">
                    <mxGeometry relative="1" as="geometry">
                        <mxPoint x="-57.831325301204814" y="15" as="targetPoint"/>
                        <mxPoint y="15" as="sourcePoint"/>
                    </mxGeometry>
                </mxCell>
                <mxCell id="WxSYuuznqqIj9oOgkVCh-67" style="edgeStyle=orthogonalEdgeStyle;rounded=0;html=1;exitX=1;exitY=0.5;exitDx=0;exitDy=0;shadow=0;strokeColor=#3333FF;" parent="11" source="WxSYuuznqqIj9oOgkVCh-68" edge="1">
                    <mxGeometry relative="1" as="geometry">
                        <mxPoint x="152.289156626506" y="15" as="targetPoint"/>
                    </mxGeometry>
                </mxCell>
                <mxCell id="WxSYuuznqqIj9oOgkVCh-68" value="Action or input" style="text;html=1;strokeColor=#3333FF;fillColor=none;align=center;verticalAlign=middle;whiteSpace=wrap;rounded=1;shadow=0;" parent="11" vertex="1">
                    <mxGeometry x="23.6144578313253" width="106.02409638554217" height="30" as="geometry"/>
                </mxCell>
                <mxCell id="13" value="Gate" style="rounded=0;whiteSpace=wrap;html=1;rotation=0;" vertex="1" parent="19">
                    <mxGeometry x="220.00216867469877" y="60" width="163.85542168674698" height="45" as="geometry"/>
                </mxCell>
                <mxCell id="WxSYuuznqqIj9oOgkVCh-57" value="Gate" style="rounded=0;whiteSpace=wrap;html=1;rotation=0;" parent="19" vertex="1">
                    <mxGeometry x="219.99746987951804" y="30" width="163.85542168674698" height="20" as="geometry"/>
                </mxCell>
                <mxCell id="16" value="" style="endArrow=none;html=1;entryX=0.25;entryY=0;entryDx=0;entryDy=0;exitX=0.25;exitY=1;exitDx=0;exitDy=0;" edge="1" parent="19" source="WxSYuuznqqIj9oOgkVCh-53" target="WxSYuuznqqIj9oOgkVCh-53">
                    <mxGeometry width="50" height="50" relative="1" as="geometry">
                        <mxPoint x="200.4144578313253" y="80" as="sourcePoint"/>
                        <mxPoint x="200.4144578313253" y="30" as="targetPoint"/>
                    </mxGeometry>
                </mxCell>
                <mxCell id="17" value="" style="endArrow=none;html=1;entryX=0.5;entryY=0;entryDx=0;entryDy=0;exitX=0.5;exitY=1;exitDx=0;exitDy=0;" edge="1" parent="19" source="WxSYuuznqqIj9oOgkVCh-53" target="WxSYuuznqqIj9oOgkVCh-53">
                    <mxGeometry width="50" height="50" relative="1" as="geometry">
                        <mxPoint x="400.00000000000006" y="85" as="sourcePoint"/>
                        <mxPoint x="400.00000000000006" y="34.99999999999994" as="targetPoint"/>
                    </mxGeometry>
                </mxCell>
                <mxCell id="18" value="" style="endArrow=none;html=1;entryX=0.5;entryY=0;entryDx=0;entryDy=0;exitX=0.5;exitY=1;exitDx=0;exitDy=0;" edge="1" parent="19">
                    <mxGeometry width="50" height="50" relative="1" as="geometry">
                        <mxPoint x="596.7132530120482" y="120" as="sourcePoint"/>
                        <mxPoint x="596.7132530120482" as="targetPoint"/>
                    </mxGeometry>
                </mxCell>
                <mxCell id="20" value="Legend" style="text;html=1;align=left;verticalAlign=middle;resizable=0;points=[];autosize=1;strokeColor=none;fillColor=none;fontStyle=1" vertex="1" parent="1">
                    <mxGeometry x="30" y="7" width="70" height="30" as="geometry"/>
                </mxCell>
            </root>
        </mxGraphModel>
    </diagram>
    <diagram name="Deployment" id="IBJGwOEOt8VHjRTfHv5m">
        <mxGraphModel dx="936" dy="473" grid="1" gridSize="10" guides="1" tooltips="1" connect="1" arrows="1" fold="1" page="1" pageScale="1" pageWidth="827" pageHeight="1169" math="0" shadow="0">
            <root>
                <mxCell id="0"/>
                <mxCell id="1" parent="0"/>
                <mxCell id="ZrFD5RcKL-t9FV1DSnzA-3" value="Manager" style="verticalAlign=top;align=center;shape=cube;size=10;direction=south;html=1;boundedLbl=1;spacingLeft=5;fillColor=#d0cee2;strokeColor=#56517e;" parent="1" vertex="1">
                    <mxGeometry x="960" y="150" width="220" height="176" as="geometry"/>
                </mxCell>
                <mxCell id="ZrFD5RcKL-t9FV1DSnzA-10" value="«docker container»" style="verticalAlign=top;align=center;shape=cube;size=10;direction=south;html=1;boundedLbl=1;spacingLeft=5;fillColor=#d5e8d4;strokeColor=#82b366;" parent="1" vertex="1">
                    <mxGeometry x="970" y="186" width="190" height="124" as="geometry"/>
                </mxCell>
                <mxCell id="JZiyiaPmP9tuLUVGRntp-16" value="" style="whiteSpace=wrap;html=1;fillColor=none;strokeColor=#61EAFF;fillStyle=auto;dashed=1;strokeWidth=3;imageAspect=0;" parent="1" vertex="1">
                    <mxGeometry x="270" y="595" width="400" height="155" as="geometry"/>
                </mxCell>
                <mxCell id="Cf0J_v13fbP_ySC3OX1w-23" value="Front-end" style="verticalAlign=top;align=center;shape=cube;size=10;direction=south;html=1;boundedLbl=1;spacingLeft=5;fillColor=#d0cee2;strokeColor=#56517e;" parent="1" vertex="1">
                    <mxGeometry x="530" y="605" width="130" height="130" as="geometry"/>
                </mxCell>
                <mxCell id="Eyv02ioAB-CCht34LFoo-30" value="" style="whiteSpace=wrap;html=1;aspect=fixed;fillColor=none;strokeColor=#6c8ebf;fillStyle=auto;gradientColor=none;dashed=1;strokeWidth=3;" parent="1" vertex="1">
                    <mxGeometry x="90" y="180" width="300" height="300" as="geometry"/>
                </mxCell>
                <mxCell id="ZrFD5RcKL-t9FV1DSnzA-27" value="«MinitwitApi»" style="html=1;whiteSpace=wrap;" parent="1" vertex="1">
                    <mxGeometry x="1120" y="461.5" width="190" height="77" as="geometry"/>
                </mxCell>
                <mxCell id="JZiyiaPmP9tuLUVGRntp-2" value="Simapi swarm" style="shape=umlFrame;whiteSpace=wrap;html=1;pointerEvents=0;" parent="1" vertex="1">
                    <mxGeometry x="95" y="187.5" width="290" height="260" as="geometry"/>
                </mxCell>
                <mxCell id="Eyv02ioAB-CCht34LFoo-17" value="Niceness" style="ellipse;whiteSpace=wrap;html=1;" parent="1" vertex="1">
                    <mxGeometry x="540" y="170" width="120" height="80" as="geometry"/>
                </mxCell>
                <mxCell id="JZiyiaPmP9tuLUVGRntp-1" value="MiniTwit service" style="shape=umlFrame;whiteSpace=wrap;html=1;pointerEvents=0;" parent="1" vertex="1">
                    <mxGeometry x="20" y="130" width="670" height="700" as="geometry"/>
                </mxCell>
                <mxCell id="Cf0J_v13fbP_ySC3OX1w-25" value="Utility Server" style="verticalAlign=top;align=center;shape=cube;size=10;direction=south;html=1;boundedLbl=1;spacingLeft=5;fillColor=#d0cee2;strokeColor=#56517e;" parent="1" vertex="1">
                    <mxGeometry x="50" y="605" width="130" height="130" as="geometry"/>
                </mxCell>
                <mxCell id="Eyv02ioAB-CCht34LFoo-15" value="Helge" style="shape=umlActor;verticalLabelPosition=bottom;verticalAlign=top;html=1;outlineConnect=0;fillColor=#00FF80;strokeColor=#FF0080;sketch=1;curveFitting=1;jiggle=2;gradientColor=#FF3399;gradientDirection=east;" parent="1" vertex="1">
                    <mxGeometry x="455" y="287.5" width="30" height="60" as="geometry"/>
                </mxCell>
                <mxCell id="Eyv02ioAB-CCht34LFoo-21" value="" style="endArrow=none;html=1;rounded=0;" parent="1" edge="1">
                    <mxGeometry width="50" height="50" relative="1" as="geometry">
                        <mxPoint x="485" y="280" as="sourcePoint"/>
                        <mxPoint x="535" y="230" as="targetPoint"/>
                    </mxGeometry>
                </mxCell>
                <mxCell id="JZiyiaPmP9tuLUVGRntp-12" value="" style="whiteSpace=wrap;html=1;aspect=fixed;fillColor=none;strokeColor=#b85450;fillStyle=auto;dashed=1;strokeWidth=3;" parent="1" vertex="1">
                    <mxGeometry x="40" y="595" width="150" height="150" as="geometry"/>
                </mxCell>
                <mxCell id="Cf0J_v13fbP_ySC3OX1w-33" value="&lt;span style=&quot;color: rgb(0, 0, 0); font-family: Helvetica; font-size: 11px; font-style: normal; font-variant-ligatures: normal; font-variant-caps: normal; font-weight: 400; letter-spacing: normal; orphans: 2; text-align: center; text-indent: 0px; text-transform: none; widows: 2; word-spacing: 0px; -webkit-text-stroke-width: 0px; background-color: rgb(255, 255, 255); text-decoration-thickness: initial; text-decoration-style: initial; text-decoration-color: initial; float: none; display: inline !important;&quot;&gt;&amp;lt;&amp;lt;TCP/IP&amp;gt;&amp;gt;&lt;/span&gt;" style="edgeStyle=none;rounded=0;orthogonalLoop=1;jettySize=auto;html=1;exitX=0;exitY=0;exitDx=0;exitDy=45;exitPerimeter=0;endArrow=none;endFill=0;" parent="1" source="Eyv02ioAB-CCht34LFoo-32" target="Cf0J_v13fbP_ySC3OX1w-26" edge="1">
                    <mxGeometry relative="1" as="geometry"/>
                </mxCell>
                <mxCell id="Cf0J_v13fbP_ySC3OX1w-27" value="Worker" style="verticalAlign=top;align=center;shape=cube;size=10;direction=south;html=1;boundedLbl=1;spacingLeft=5;fillColor=#d0cee2;strokeColor=#56517e;" parent="1" vertex="1">
                    <mxGeometry x="120" y="347.5" width="100" height="82.5" as="geometry"/>
                </mxCell>
                <mxCell id="Cf0J_v13fbP_ySC3OX1w-26" value="Manager" style="verticalAlign=top;align=center;shape=cube;size=10;direction=south;html=1;boundedLbl=1;spacingLeft=5;fillColor=#d0cee2;strokeColor=#56517e;" parent="1" vertex="1">
                    <mxGeometry x="180" y="225" width="100" height="80" as="geometry"/>
                </mxCell>
                <mxCell id="Eyv02ioAB-CCht34LFoo-27" value="«MinitwitApi»" style="html=1;whiteSpace=wrap;" parent="1" vertex="1">
                    <mxGeometry x="190" y="270" width="70" height="30" as="geometry"/>
                </mxCell>
                <mxCell id="Eyv02ioAB-CCht34LFoo-32" value="Worker" style="verticalAlign=top;align=center;shape=cube;size=10;direction=south;html=1;boundedLbl=1;spacingLeft=5;fillColor=#d0cee2;strokeColor=#56517e;" parent="1" vertex="1">
                    <mxGeometry x="240" y="347.5" width="100" height="82.5" as="geometry"/>
                </mxCell>
                <mxCell id="JZiyiaPmP9tuLUVGRntp-10" value="«docker»" style="verticalAlign=top;align=center;shape=cube;size=10;direction=south;html=1;boundedLbl=1;spacingLeft=5;fillColor=#d5e8d4;strokeColor=#82b366;" parent="1" vertex="1">
                    <mxGeometry x="65" y="643.82" width="100" height="80" as="geometry"/>
                </mxCell>
                <mxCell id="Eyv02ioAB-CCht34LFoo-38" value="Database" style="verticalAlign=top;align=center;shape=cube;size=10;direction=south;html=1;boundedLbl=1;spacingLeft=5;fillColor=#d0cee2;strokeColor=#56517e;" parent="1" vertex="1">
                    <mxGeometry x="275" y="605" width="140" height="140" as="geometry"/>
                </mxCell>
                <mxCell id="Cf0J_v13fbP_ySC3OX1w-31" value="&lt;span style=&quot;color: rgb(0, 0, 0); font-family: Helvetica; font-size: 11px; font-style: normal; font-variant-ligatures: normal; font-variant-caps: normal; font-weight: 400; letter-spacing: normal; orphans: 2; text-align: center; text-indent: 0px; text-transform: none; widows: 2; word-spacing: 0px; -webkit-text-stroke-width: 0px; background-color: rgb(255, 255, 255); text-decoration-thickness: initial; text-decoration-style: initial; text-decoration-color: initial; float: none; display: inline !important;&quot;&gt;&amp;lt;&amp;lt;TCP/IP&amp;gt;&amp;gt;&lt;/span&gt;" style="rounded=0;orthogonalLoop=1;jettySize=auto;html=1;exitX=0.03;exitY=0.7;exitDx=0;exitDy=0;exitPerimeter=0;entryX=1;entryY=1;entryDx=0;entryDy=0;entryPerimeter=0;endArrow=none;endFill=0;" parent="1" source="Cf0J_v13fbP_ySC3OX1w-27" target="Cf0J_v13fbP_ySC3OX1w-26" edge="1">
                    <mxGeometry relative="1" as="geometry"/>
                </mxCell>
                <mxCell id="Eyv02ioAB-CCht34LFoo-39" value="«docker»" style="verticalAlign=top;align=center;shape=cube;size=10;direction=south;html=1;boundedLbl=1;spacingLeft=5;fillColor=#d5e8d4;strokeColor=#82b366;" parent="1" vertex="1">
                    <mxGeometry x="288.67" y="645" width="106.33" height="90" as="geometry"/>
                </mxCell>
                <mxCell id="JZiyiaPmP9tuLUVGRntp-15" value="&amp;lt;&amp;lt;TCP/IP&amp;gt;&amp;gt;" style="endArrow=none;html=1;endSize=12;startArrow=none;startSize=14;startFill=0;edgeStyle=orthogonalEdgeStyle;align=center;verticalAlign=bottom;endFill=0;rounded=0;exitX=0.066;exitY=0.998;exitDx=0;exitDy=0;exitPerimeter=0;" parent="1" source="JZiyiaPmP9tuLUVGRntp-2" edge="1">
                    <mxGeometry y="3" relative="1" as="geometry">
                        <mxPoint x="280" y="530" as="sourcePoint"/>
                        <mxPoint x="115" y="610" as="targetPoint"/>
                        <Array as="points">
                            <mxPoint x="114" y="449"/>
                            <mxPoint x="115" y="449"/>
                            <mxPoint x="115" y="610"/>
                        </Array>
                    </mxGeometry>
                </mxCell>
                <mxCell id="Eyv02ioAB-CCht34LFoo-40" value="" style="shape=image;verticalLabelPosition=bottom;labelBackgroundColor=default;verticalAlign=top;aspect=fixed;imageAspect=0;image=https://upload.wikimedia.org/wikipedia/commons/thumb/2/29/Postgresql_elephant.svg/1200px-Postgresql_elephant.svg.png;" parent="1" vertex="1">
                    <mxGeometry x="318.51" y="680" width="46.65" height="48.13" as="geometry"/>
                </mxCell>
                <mxCell id="Eyv02ioAB-CCht34LFoo-43" value="&lt;span style=&quot;color: rgb(0, 0, 0); font-family: Helvetica; font-size: 11px; font-style: normal; font-variant-ligatures: normal; font-variant-caps: normal; font-weight: 400; letter-spacing: normal; orphans: 2; text-align: center; text-indent: 0px; text-transform: none; widows: 2; word-spacing: 0px; -webkit-text-stroke-width: 0px; background-color: rgb(255, 255, 255); text-decoration-thickness: initial; text-decoration-style: initial; text-decoration-color: initial; float: none; display: inline !important;&quot;&gt;&amp;lt;&amp;lt;TCP/IP&amp;gt;&amp;gt;&lt;/span&gt;" style="endArrow=none;html=1;rounded=0;exitX=0.48;exitY=-0.014;exitDx=0;exitDy=0;exitPerimeter=0;" parent="1" source="Eyv02ioAB-CCht34LFoo-38" edge="1">
                    <mxGeometry x="0.1111" width="50" height="50" relative="1" as="geometry">
                        <mxPoint x="400" y="670" as="sourcePoint"/>
                        <mxPoint x="530" y="672" as="targetPoint"/>
                        <mxPoint as="offset"/>
                    </mxGeometry>
                </mxCell>
                <mxCell id="Eyv02ioAB-CCht34LFoo-44" value="&lt;span style=&quot;color: rgb(0, 0, 0); font-family: Helvetica; font-size: 11px; font-style: normal; font-variant-ligatures: normal; font-variant-caps: normal; font-weight: 400; letter-spacing: normal; orphans: 2; text-align: center; text-indent: 0px; text-transform: none; widows: 2; word-spacing: 0px; -webkit-text-stroke-width: 0px; background-color: rgb(255, 255, 255); text-decoration-thickness: initial; text-decoration-style: initial; text-decoration-color: initial; float: none; display: inline !important;&quot;&gt;&amp;lt;&amp;lt;TCP/IP&amp;gt;&amp;gt;&lt;/span&gt;" style="endArrow=none;html=1;rounded=0;entryX=0.708;entryY=1.001;entryDx=0;entryDy=0;entryPerimeter=0;exitX=0.036;exitY=0.607;exitDx=0;exitDy=0;exitPerimeter=0;" parent="1" source="Eyv02ioAB-CCht34LFoo-38" target="JZiyiaPmP9tuLUVGRntp-2" edge="1">
                    <mxGeometry width="50" height="50" relative="1" as="geometry">
                        <mxPoint x="310" y="560" as="sourcePoint"/>
                        <mxPoint x="360" y="510" as="targetPoint"/>
                    </mxGeometry>
                </mxCell>
                <mxCell id="GX4PFOu3qIwCllqLZzpG-1" value="" style="group" parent="1" connectable="0" vertex="1">
                    <mxGeometry x="540" y="645" width="100" height="80" as="geometry"/>
                </mxCell>
                <mxCell id="GX4PFOu3qIwCllqLZzpG-2" value="" style="group" parent="GX4PFOu3qIwCllqLZzpG-1" connectable="0" vertex="1">
                    <mxGeometry width="100" height="80" as="geometry"/>
                </mxCell>
                <mxCell id="JZiyiaPmP9tuLUVGRntp-11" value="«docker»" style="verticalAlign=top;align=center;shape=cube;size=10;direction=south;html=1;boundedLbl=1;spacingLeft=5;fillColor=#d5e8d4;strokeColor=#82b366;" parent="GX4PFOu3qIwCllqLZzpG-2" vertex="1">
                    <mxGeometry width="100" height="80" as="geometry"/>
                </mxCell>
                <mxCell id="Cf0J_v13fbP_ySC3OX1w-30" value="" style="shape=image;verticalLabelPosition=bottom;labelBackgroundColor=default;verticalAlign=top;aspect=fixed;imageAspect=0;image=https://devblogs.microsoft.com/aspnet/wp-content/uploads/sites/16/2019/04/BrandBlazor_nohalo_1000x.png;" parent="GX4PFOu3qIwCllqLZzpG-2" vertex="1">
                    <mxGeometry x="32.350000000000136" y="30" width="45.31" height="45.31" as="geometry"/>
                </mxCell>
                <mxCell id="Eyv02ioAB-CCht34LFoo-45" value="&lt;span style=&quot;color: rgb(0, 0, 0); font-family: Helvetica; font-size: 11px; font-style: normal; font-variant-ligatures: normal; font-variant-caps: normal; font-weight: 400; letter-spacing: normal; orphans: 2; text-align: center; text-indent: 0px; text-transform: none; widows: 2; word-spacing: 0px; -webkit-text-stroke-width: 0px; background-color: rgb(255, 255, 255); text-decoration-thickness: initial; text-decoration-style: initial; text-decoration-color: initial; float: none; display: inline !important;&quot;&gt;&amp;lt;&amp;lt;TCP/IP&amp;gt;&amp;gt;&lt;/span&gt;" style="endArrow=none;html=1;rounded=0;entryX=0.506;entryY=1.008;entryDx=0;entryDy=0;entryPerimeter=0;exitX=0.933;exitY=0.533;exitDx=0;exitDy=0;exitPerimeter=0;" parent="1" source="JZiyiaPmP9tuLUVGRntp-12" target="Eyv02ioAB-CCht34LFoo-38" edge="1">
                    <mxGeometry x="0.0658" width="50" height="50" relative="1" as="geometry">
                        <mxPoint x="220" y="670" as="sourcePoint"/>
                        <mxPoint x="270" y="670" as="targetPoint"/>
                        <Array as="points"/>
                        <mxPoint as="offset"/>
                    </mxGeometry>
                </mxCell>
                <mxCell id="Eyv02ioAB-CCht34LFoo-56" value="Utility Server" style="verticalAlign=top;align=center;shape=cube;size=10;direction=south;html=1;boundedLbl=1;spacingLeft=5;fillColor=#d0cee2;strokeColor=#56517e;" parent="1" vertex="1">
                    <mxGeometry x="800" y="761.01" width="370" height="660" as="geometry"/>
                </mxCell>
                <mxCell id="Eyv02ioAB-CCht34LFoo-58" value="SimApi swarm" style="shape=umlFrame;whiteSpace=wrap;html=1;pointerEvents=0;fillColor=#dae8fc;strokeColor=#6c8ebf;" parent="1" vertex="1">
                    <mxGeometry x="730" y="130" width="650" height="570" as="geometry"/>
                </mxCell>
                <mxCell id="ZrFD5RcKL-t9FV1DSnzA-1" value="&lt;span style=&quot;color: rgb(0, 0, 0); font-family: Helvetica; font-size: 11px; font-style: normal; font-variant-ligatures: normal; font-variant-caps: normal; font-weight: 400; letter-spacing: normal; orphans: 2; text-align: center; text-indent: 0px; text-transform: none; widows: 2; word-spacing: 0px; -webkit-text-stroke-width: 0px; background-color: rgb(255, 255, 255); text-decoration-thickness: initial; text-decoration-style: initial; text-decoration-color: initial; float: none; display: inline !important;&quot;&gt;&amp;lt;&amp;lt;TCP/IP&amp;gt;&amp;gt;&lt;/span&gt;" style="edgeStyle=none;rounded=0;orthogonalLoop=1;jettySize=auto;html=1;exitX=0;exitY=0;exitDx=0;exitDy=45;exitPerimeter=0;endArrow=none;endFill=0;" parent="1" source="ZrFD5RcKL-t9FV1DSnzA-5" target="ZrFD5RcKL-t9FV1DSnzA-3" edge="1">
                    <mxGeometry relative="1" as="geometry"/>
                </mxCell>
                <mxCell id="Eyv02ioAB-CCht34LFoo-59" value="Utility Server" style="shape=umlFrame;whiteSpace=wrap;html=1;pointerEvents=0;fillColor=#f8cecc;strokeColor=#b85450;gradientColor=none;" parent="1" vertex="1">
                    <mxGeometry x="730" y="721.01" width="480" height="740" as="geometry"/>
                </mxCell>
                <mxCell id="ZrFD5RcKL-t9FV1DSnzA-2" value="Worker" style="verticalAlign=top;align=center;shape=cube;size=10;direction=south;html=1;boundedLbl=1;spacingLeft=5;fillColor=#d0cee2;strokeColor=#56517e;" parent="1" vertex="1">
                    <mxGeometry x="755" y="410" width="257.58" height="260" as="geometry"/>
                </mxCell>
                <mxCell id="ZrFD5RcKL-t9FV1DSnzA-5" value="Worker" style="verticalAlign=top;align=center;shape=cube;size=10;direction=south;html=1;boundedLbl=1;spacingLeft=5;fillColor=#d0cee2;strokeColor=#56517e;" parent="1" vertex="1">
                    <mxGeometry x="1090" y="408" width="260" height="152" as="geometry"/>
                </mxCell>
                <mxCell id="ZrFD5RcKL-t9FV1DSnzA-6" value="&lt;span style=&quot;color: rgb(0, 0, 0); font-family: Helvetica; font-size: 11px; font-style: normal; font-variant-ligatures: normal; font-variant-caps: normal; font-weight: 400; letter-spacing: normal; orphans: 2; text-align: center; text-indent: 0px; text-transform: none; widows: 2; word-spacing: 0px; -webkit-text-stroke-width: 0px; background-color: rgb(255, 255, 255); text-decoration-thickness: initial; text-decoration-style: initial; text-decoration-color: initial; float: none; display: inline !important;&quot;&gt;&amp;lt;&amp;lt;TCP/IP&amp;gt;&amp;gt;&lt;/span&gt;" style="rounded=0;orthogonalLoop=1;jettySize=auto;html=1;exitX=0.008;exitY=0.59;exitDx=0;exitDy=0;exitPerimeter=0;entryX=1;entryY=1;entryDx=0;entryDy=0;entryPerimeter=0;endArrow=none;endFill=0;" parent="1" source="ZrFD5RcKL-t9FV1DSnzA-2" target="ZrFD5RcKL-t9FV1DSnzA-3" edge="1">
                    <mxGeometry relative="1" as="geometry"/>
                </mxCell>
                <mxCell id="ZrFD5RcKL-t9FV1DSnzA-8" value="«MinitwitApi»" style="html=1;whiteSpace=wrap;" parent="1" vertex="1">
                    <mxGeometry x="135" y="390" width="70" height="30" as="geometry"/>
                </mxCell>
                <mxCell id="Eyv02ioAB-CCht34LFoo-60" value="«docker container»&lt;br&gt;kibana" style="verticalAlign=top;align=center;shape=cube;size=10;direction=south;html=1;boundedLbl=1;spacingLeft=5;fillColor=#d5e8d4;strokeColor=#82b366;" parent="1" vertex="1">
                    <mxGeometry x="850" y="811.01" width="250" height="110" as="geometry"/>
                </mxCell>
                <mxCell id="ZrFD5RcKL-t9FV1DSnzA-9" value="«MinitwitApi»" style="html=1;whiteSpace=wrap;" parent="1" vertex="1">
                    <mxGeometry x="252.57999999999998" y="390" width="70" height="30" as="geometry"/>
                </mxCell>
                <mxCell id="Eyv02ioAB-CCht34LFoo-61" value="«docker container»&lt;br&gt;elasticsearch" style="verticalAlign=top;align=center;shape=cube;size=10;direction=south;html=1;boundedLbl=1;spacingLeft=5;fillColor=#d5e8d4;strokeColor=#82b366;" parent="1" vertex="1">
                    <mxGeometry x="850" y="931.01" width="250" height="110" as="geometry"/>
                </mxCell>
                <mxCell id="Eyv02ioAB-CCht34LFoo-62" value="«docker container»&lt;br&gt;prometheus" style="verticalAlign=top;align=center;shape=cube;size=10;direction=south;html=1;boundedLbl=1;spacingLeft=5;fillColor=#d5e8d4;strokeColor=#82b366;" parent="1" vertex="1">
                    <mxGeometry x="850" y="1057.26" width="250" height="113.75" as="geometry"/>
                </mxCell>
                <mxCell id="ZrFD5RcKL-t9FV1DSnzA-11" value="«artifact»&lt;br&gt;&lt;br&gt;&lt;b&gt;NetData&lt;/b&gt;" style="html=1;whiteSpace=wrap;" parent="1" vertex="1">
                    <mxGeometry x="985" y="220" width="160" height="63" as="geometry"/>
                </mxCell>
                <mxCell id="Eyv02ioAB-CCht34LFoo-63" value="«docker container»&lt;br&gt;netdata" style="verticalAlign=top;align=center;shape=cube;size=10;direction=south;html=1;boundedLbl=1;spacingLeft=5;fillColor=#d5e8d4;strokeColor=#82b366;" parent="1" vertex="1">
                    <mxGeometry x="850" y="1181.01" width="250" height="110" as="geometry"/>
                </mxCell>
                <mxCell id="Eyv02ioAB-CCht34LFoo-64" value="&amp;lt;&amp;lt;artifact&amp;gt;&amp;gt;&lt;br&gt;&lt;br&gt;&lt;b&gt;Kibana&lt;/b&gt;" style="html=1;align=center;verticalAlign=middle;dashed=0;whiteSpace=wrap;" parent="1" vertex="1">
                    <mxGeometry x="880" y="857.01" width="180" height="60" as="geometry"/>
                </mxCell>
                <mxCell id="ZrFD5RcKL-t9FV1DSnzA-17" value="«docker container»" style="verticalAlign=top;align=center;shape=cube;size=10;direction=south;html=1;boundedLbl=1;spacingLeft=5;fillColor=#d5e8d4;strokeColor=#82b366;" parent="1" vertex="1">
                    <mxGeometry x="770" y="450" width="220" height="100" as="geometry"/>
                </mxCell>
                <mxCell id="ZrFD5RcKL-t9FV1DSnzA-18" value="«artifact»&lt;br style=&quot;border-color: var(--border-color);&quot;&gt;&lt;br style=&quot;border-color: var(--border-color);&quot;&gt;&lt;b style=&quot;border-color: var(--border-color);&quot;&gt;MinitwitAPI&lt;/b&gt;" style="html=1;whiteSpace=wrap;" parent="1" vertex="1">
                    <mxGeometry x="780" y="481.5" width="190" height="57" as="geometry"/>
                </mxCell>
                <mxCell id="Eyv02ioAB-CCht34LFoo-65" value="&amp;lt;&amp;lt;artifact&amp;gt;&amp;gt;&lt;br&gt;&lt;br&gt;&lt;b&gt;Elastic Search&lt;/b&gt;" style="html=1;align=center;verticalAlign=middle;dashed=0;whiteSpace=wrap;" parent="1" vertex="1">
                    <mxGeometry x="885" y="978.01" width="180" height="60" as="geometry"/>
                </mxCell>
                <mxCell id="Eyv02ioAB-CCht34LFoo-66" value="&amp;lt;&amp;lt;artifact&amp;gt;&amp;gt;&lt;br&gt;&lt;br&gt;&lt;b&gt;Prometheus&lt;/b&gt;" style="html=1;align=center;verticalAlign=middle;dashed=0;whiteSpace=wrap;" parent="1" vertex="1">
                    <mxGeometry x="885" y="1102.26" width="180" height="60" as="geometry"/>
                </mxCell>
                <mxCell id="Eyv02ioAB-CCht34LFoo-67" value="&amp;lt;&amp;lt;artifact&amp;gt;&amp;gt;&lt;br&gt;&lt;br&gt;&lt;b&gt;NetData&lt;/b&gt;" style="html=1;align=center;verticalAlign=middle;dashed=0;whiteSpace=wrap;" parent="1" vertex="1">
                    <mxGeometry x="885" y="1225.01" width="180" height="60" as="geometry"/>
                </mxCell>
                <mxCell id="Eyv02ioAB-CCht34LFoo-68" value="«docker container»&lt;br style=&quot;border-color: var(--border-color);&quot;&gt;grafana" style="verticalAlign=top;align=center;shape=cube;size=10;direction=south;html=1;boundedLbl=1;spacingLeft=5;fillColor=#d5e8d4;strokeColor=#82b366;" parent="1" vertex="1">
                    <mxGeometry x="850" y="1301.01" width="250" height="110" as="geometry"/>
                </mxCell>
                <mxCell id="Eyv02ioAB-CCht34LFoo-69" value="&amp;lt;&amp;lt;artifact&amp;gt;&amp;gt;&lt;br&gt;&lt;br&gt;&lt;b&gt;Grafana&lt;/b&gt;" style="html=1;align=center;verticalAlign=middle;dashed=0;whiteSpace=wrap;" parent="1" vertex="1">
                    <mxGeometry x="885" y="1347.01" width="180" height="60" as="geometry"/>
                </mxCell>
                <mxCell id="Eyv02ioAB-CCht34LFoo-76" value="«docker container»" style="verticalAlign=top;align=center;shape=cube;size=10;direction=south;html=1;boundedLbl=1;spacingLeft=5;fillColor=#d5e8d4;strokeColor=#82b366;" parent="1" vertex="1">
                    <mxGeometry x="765" y="560" width="220" height="100" as="geometry"/>
                </mxCell>
                <mxCell id="Eyv02ioAB-CCht34LFoo-77" value="«artifact»&lt;br style=&quot;border-color: var(--border-color);&quot;&gt;&lt;br style=&quot;border-color: var(--border-color);&quot;&gt;&lt;b&gt;NetData&lt;/b&gt;" style="html=1;whiteSpace=wrap;" parent="1" vertex="1">
                    <mxGeometry x="775" y="591.5" width="190" height="57" as="geometry"/>
                </mxCell>
                <mxCell id="Eyv02ioAB-CCht34LFoo-80" value="«docker container»" style="verticalAlign=top;align=center;shape=cube;size=10;direction=south;html=1;boundedLbl=1;spacingLeft=5;fillColor=#d5e8d4;strokeColor=#82b366;" parent="1" vertex="1">
                    <mxGeometry x="1104" y="450" width="220" height="100" as="geometry"/>
                </mxCell>
                <mxCell id="Eyv02ioAB-CCht34LFoo-81" value="«artifact»&lt;br style=&quot;border-color: var(--border-color);&quot;&gt;&lt;br style=&quot;border-color: var(--border-color);&quot;&gt;&lt;b&gt;NetData&lt;/b&gt;" style="html=1;whiteSpace=wrap;" parent="1" vertex="1">
                    <mxGeometry x="1114" y="481.5" width="190" height="57" as="geometry"/>
                </mxCell>
                <mxCell id="ZrFD5RcKL-t9FV1DSnzA-33" value="Legend" style="shape=table;startSize=30;container=1;collapsible=0;childLayout=tableLayout;fontSize=16;align=left;verticalAlign=top;fillColor=none;strokeColor=none;fontColor=#4D4D4D;fontStyle=1;spacingLeft=6;spacing=0;resizable=0;" parent="1" vertex="1">
                    <mxGeometry x="620" width="180" height="90" as="geometry"/>
                </mxCell>
                <mxCell id="ZrFD5RcKL-t9FV1DSnzA-34" value="" style="shape=tableRow;horizontal=0;startSize=0;swimlaneHead=0;swimlaneBody=0;strokeColor=inherit;top=0;left=0;bottom=0;right=0;collapsible=0;dropTarget=0;fillColor=none;points=[[0,0.5],[1,0.5]];portConstraint=eastwest;fontSize=12;" parent="ZrFD5RcKL-t9FV1DSnzA-33" vertex="1">
                    <mxGeometry y="30" width="180" height="30" as="geometry"/>
                </mxCell>
                <mxCell id="ZrFD5RcKL-t9FV1DSnzA-35" value="DigitalOcean Droplet" style="shape=partialRectangle;html=1;whiteSpace=wrap;connectable=0;strokeColor=#9673a6;overflow=hidden;fillColor=#d0cee2;top=0;left=0;bottom=0;right=0;pointerEvents=1;fontSize=12;align=left;spacingLeft=10;spacingRight=4;" parent="ZrFD5RcKL-t9FV1DSnzA-34" vertex="1">
                    <mxGeometry width="180" height="30" as="geometry">
                        <mxRectangle width="180" height="30" as="alternateBounds"/>
                    </mxGeometry>
                </mxCell>
                <mxCell id="ZrFD5RcKL-t9FV1DSnzA-36" value="" style="shape=tableRow;horizontal=0;startSize=0;swimlaneHead=0;swimlaneBody=0;strokeColor=inherit;top=0;left=0;bottom=0;right=0;collapsible=0;dropTarget=0;fillColor=none;points=[[0,0.5],[1,0.5]];portConstraint=eastwest;fontSize=12;" parent="ZrFD5RcKL-t9FV1DSnzA-33" vertex="1">
                    <mxGeometry y="60" width="180" height="30" as="geometry"/>
                </mxCell>
                <mxCell id="ZrFD5RcKL-t9FV1DSnzA-37" value="Docker Container" style="shape=partialRectangle;html=1;whiteSpace=wrap;connectable=0;strokeColor=#82b366;overflow=hidden;fillColor=#d5e8d4;top=0;left=0;bottom=0;right=0;pointerEvents=1;fontSize=12;align=left;spacingLeft=10;spacingRight=4;" parent="ZrFD5RcKL-t9FV1DSnzA-36" vertex="1">
                    <mxGeometry width="180" height="30" as="geometry">
                        <mxRectangle width="180" height="30" as="alternateBounds"/>
                    </mxGeometry>
                </mxCell>
                <mxCell id="ZrFD5RcKL-t9FV1DSnzA-47" value="Artifact" style="shape=partialRectangle;html=1;whiteSpace=wrap;connectable=0;overflow=hidden;top=0;left=0;bottom=0;right=0;pointerEvents=1;fontSize=12;align=left;spacingLeft=10;spacingRight=4;fillStyle=solid;strokeWidth=0;perimeterSpacing=0;strokeOpacity=94;shadow=0;" parent="1" vertex="1">
                    <mxGeometry x="620" y="90" width="180" height="30" as="geometry">
                        <mxRectangle width="180" height="30" as="alternateBounds"/>
                    </mxGeometry>
                </mxCell>
                <mxCell id="ibEmGdxcq0Jk4Nx2ezSl-30" value="Minitwit frontend&amp;nbsp;" style="shape=umlFrame;whiteSpace=wrap;html=1;pointerEvents=0;fillColor=#dae8fc;strokeColor=#61EAFF;strokeWidth=2;" parent="1" vertex="1">
                    <mxGeometry x="20" y="846" width="670" height="360" as="geometry"/>
                </mxCell>
                <mxCell id="ibEmGdxcq0Jk4Nx2ezSl-31" value="Front-end" style="verticalAlign=top;align=center;shape=cube;size=10;direction=south;html=1;boundedLbl=1;spacingLeft=5;fillColor=#d0cee2;strokeColor=#56517e;" parent="1" vertex="1">
                    <mxGeometry x="340" y="886" width="330" height="310" as="geometry"/>
                </mxCell>
                <mxCell id="ibEmGdxcq0Jk4Nx2ezSl-32" value="" style="group;recursiveResize=0;" parent="1" connectable="0" vertex="1">
                    <mxGeometry x="380" y="926" width="240" height="120" as="geometry"/>
                </mxCell>
                <mxCell id="ibEmGdxcq0Jk4Nx2ezSl-33" value="«docker container» &lt;br&gt;minitwit" style="verticalAlign=top;align=center;shape=cube;size=10;direction=south;html=1;boundedLbl=1;spacingLeft=5;fillColor=#d5e8d4;strokeColor=#82b366;" parent="ibEmGdxcq0Jk4Nx2ezSl-32" vertex="1">
                    <mxGeometry x="10" width="230" height="120" as="geometry"/>
                </mxCell>
                <mxCell id="ibEmGdxcq0Jk4Nx2ezSl-34" value="&amp;lt;&amp;lt;artifact&amp;gt;&amp;gt;&lt;br&gt;&lt;br&gt;&lt;b&gt;MiniTwit&lt;/b&gt;" style="html=1;align=center;verticalAlign=middle;dashed=0;whiteSpace=wrap;" parent="ibEmGdxcq0Jk4Nx2ezSl-32" vertex="1">
                    <mxGeometry x="38.599999999999994" y="50" width="172.8" height="48.39" as="geometry"/>
                </mxCell>
                <mxCell id="ibEmGdxcq0Jk4Nx2ezSl-38" value="«docker container»&lt;br&gt;netdata" style="verticalAlign=top;align=center;shape=cube;size=10;direction=south;html=1;boundedLbl=1;spacingLeft=5;fillColor=#d5e8d4;strokeColor=#82b366;" parent="1" vertex="1">
                    <mxGeometry x="385" y="1061" width="230" height="116.18" as="geometry"/>
                </mxCell>
                <mxCell id="ibEmGdxcq0Jk4Nx2ezSl-39" value="&amp;lt;&amp;lt;artifact&amp;gt;&amp;gt;&lt;br&gt;&lt;br&gt;&lt;b&gt;NetData&lt;/b&gt;" style="html=1;align=center;verticalAlign=middle;dashed=0;whiteSpace=wrap;" parent="1" vertex="1">
                    <mxGeometry x="410" y="1106" width="180" height="60" as="geometry"/>
                </mxCell>
                <mxCell id="ibEmGdxcq0Jk4Nx2ezSl-40" value="Database" style="verticalAlign=top;align=center;shape=cube;size=10;direction=south;html=1;boundedLbl=1;spacingLeft=5;fillColor=#d0cee2;strokeColor=#56517e;" parent="1" vertex="1">
                    <mxGeometry x="60" y="886" width="235" height="310" as="geometry"/>
                </mxCell>
                <mxCell id="ibEmGdxcq0Jk4Nx2ezSl-41" value="«docke containerr»&lt;br&gt;Postgresql" style="verticalAlign=top;align=center;shape=cube;size=10;direction=south;html=1;boundedLbl=1;spacingLeft=5;fillColor=#d5e8d4;strokeColor=#82b366;" parent="1" vertex="1">
                    <mxGeometry x="75" y="921" width="191.33" height="105" as="geometry"/>
                </mxCell>
                <mxCell id="ibEmGdxcq0Jk4Nx2ezSl-42" value="" style="shape=image;verticalLabelPosition=bottom;labelBackgroundColor=default;verticalAlign=top;aspect=fixed;imageAspect=0;image=https://upload.wikimedia.org/wikipedia/commons/thumb/2/29/Postgresql_elephant.svg/1200px-Postgresql_elephant.svg.png;direction=east;" parent="1" vertex="1">
                    <mxGeometry x="141.67000000000007" y="966.94" width="46.65" height="48.13" as="geometry"/>
                </mxCell>
                <mxCell id="ibEmGdxcq0Jk4Nx2ezSl-45" value="«docker container»&lt;br&gt;netdata" style="verticalAlign=top;align=center;shape=cube;size=10;direction=south;html=1;boundedLbl=1;spacingLeft=5;fillColor=#d5e8d4;strokeColor=#82b366;" parent="1" vertex="1">
                    <mxGeometry x="75" y="1063.5" width="200" height="111.18" as="geometry"/>
                </mxCell>
                <mxCell id="ibEmGdxcq0Jk4Nx2ezSl-46" value="&amp;lt;&amp;lt;artifact&amp;gt;&amp;gt;&lt;br&gt;&lt;br&gt;&lt;b&gt;NetData&lt;/b&gt;" style="html=1;align=center;verticalAlign=middle;dashed=0;whiteSpace=wrap;" parent="1" vertex="1">
                    <mxGeometry x="88.5" y="1108" width="164.34" height="60" as="geometry"/>
                </mxCell>
                <mxCell id="ibEmGdxcq0Jk4Nx2ezSl-37" value="&amp;lt;&amp;lt;TCP/IP&amp;gt;" style="endArrow=none;html=1;endSize=12;startArrow=none;startSize=14;startFill=0;align=center;verticalAlign=bottom;endFill=0;rounded=0;exitX=0;exitY=0.5;exitDx=0;exitDy=0;entryX=0;entryY=0;entryDx=47.5;entryDy=0;entryPerimeter=0;" parent="1" source="ibEmGdxcq0Jk4Nx2ezSl-34" target="ibEmGdxcq0Jk4Nx2ezSl-41" edge="1">
                    <mxGeometry x="0.0519" y="3" relative="1" as="geometry">
                        <mxPoint x="316.4000000000001" y="1084.95" as="sourcePoint"/>
                        <mxPoint x="466" y="1005.0700000000002" as="targetPoint"/>
                        <mxPoint as="offset"/>
                    </mxGeometry>
                </mxCell>
            </root>
        </mxGraphModel>
    </diagram>
    <diagram id="AKjJEW5B7U3txrpSfuQQ" name="ModuleDiagram">
        <mxGraphModel grid="1" page="1" gridSize="10" guides="1" tooltips="1" connect="1" arrows="1" fold="1" pageScale="1" pageWidth="827" pageHeight="1169" math="0" shadow="0">
            <root>
                <mxCell id="0"/>
                <mxCell id="1" parent="0"/>
                <mxCell id="j3fgjeaSkE87oLsZcR1B-2" value="MiniTwit.Shared" style="shape=folder;fontStyle=1;spacingTop=10;tabWidth=40;tabHeight=14;tabPosition=left;html=1;whiteSpace=wrap;" parent="1" vertex="1">
                    <mxGeometry x="150" y="180" width="120" height="100" as="geometry"/>
                </mxCell>
                <mxCell id="j3fgjeaSkE87oLsZcR1B-3" value="MiniTwit.Client" style="shape=folder;fontStyle=1;spacingTop=10;tabWidth=40;tabHeight=14;tabPosition=left;html=1;whiteSpace=wrap;" parent="1" vertex="1">
                    <mxGeometry x="220" width="120" height="100" as="geometry"/>
                </mxCell>
                <mxCell id="j3fgjeaSkE87oLsZcR1B-4" value="MiniTwit.Server" style="shape=folder;fontStyle=1;spacingTop=10;tabWidth=40;tabHeight=14;tabPosition=left;html=1;whiteSpace=wrap;" parent="1" vertex="1">
                    <mxGeometry width="120" height="100" as="geometry"/>
                </mxCell>
                <mxCell id="j3fgjeaSkE87oLsZcR1B-6" value="Use" style="endArrow=open;endSize=12;dashed=1;rounded=0;labelBackgroundColor=none;fontColor=none;noLabel=1;exitX=0.5;exitY=1;exitDx=0;exitDy=0;exitPerimeter=0;entryX=0;entryY=0;entryDx=120;entryDy=57;entryPerimeter=0;edgeStyle=orthogonalEdgeStyle;" parent="1" source="j3fgjeaSkE87oLsZcR1B-3" target="j3fgjeaSkE87oLsZcR1B-2" edge="1">
                    <mxGeometry width="160" relative="1" as="geometry">
                        <mxPoint x="340" y="200" as="sourcePoint"/>
                        <mxPoint x="500" y="200" as="targetPoint"/>
                    </mxGeometry>
                </mxCell>
                <mxCell id="j3fgjeaSkE87oLsZcR1B-8" value="Use" style="endArrow=open;endSize=12;dashed=1;rounded=0;labelBackgroundColor=none;fontColor=none;noLabel=1;exitX=0.5;exitY=1;exitDx=0;exitDy=0;exitPerimeter=0;entryX=0;entryY=0;entryDx=0;entryDy=57;entryPerimeter=0;edgeStyle=orthogonalEdgeStyle;" parent="1" source="j3fgjeaSkE87oLsZcR1B-4" target="j3fgjeaSkE87oLsZcR1B-2" edge="1">
                    <mxGeometry width="160" relative="1" as="geometry">
                        <mxPoint x="290" y="110" as="sourcePoint"/>
                        <mxPoint x="230" y="227" as="targetPoint"/>
                    </mxGeometry>
                </mxCell>
                <mxCell id="j3fgjeaSkE87oLsZcR1B-9" value="SlimTwit" style="shape=folder;fontStyle=1;spacingTop=10;tabWidth=40;tabHeight=14;tabPosition=left;html=1;whiteSpace=wrap;" parent="1" vertex="1">
                    <mxGeometry x="370" width="120" height="100" as="geometry"/>
                </mxCell>
                <mxCell id="j3fgjeaSkE87oLsZcR1B-10" value="Use" style="endArrow=open;endSize=12;dashed=1;rounded=0;labelBackgroundColor=none;fontColor=none;noLabel=1;exitX=0.5;exitY=1;exitDx=0;exitDy=0;exitPerimeter=0;entryX=0;entryY=0;entryDx=120;entryDy=57;entryPerimeter=0;edgeStyle=orthogonalEdgeStyle;" parent="1" source="j3fgjeaSkE87oLsZcR1B-9" target="j3fgjeaSkE87oLsZcR1B-2" edge="1">
                    <mxGeometry width="160" relative="1" as="geometry">
                        <mxPoint x="290" y="110" as="sourcePoint"/>
                        <mxPoint x="230" y="227" as="targetPoint"/>
                    </mxGeometry>
                </mxCell>
            </root>
        </mxGraphModel>
    </diagram>
    <diagram id="muwubqi2zAVOkWRrLB4Y" name="ConnectorAndComponent">
        <mxGraphModel grid="1" page="1" gridSize="10" guides="1" tooltips="1" connect="1" arrows="1" fold="1" pageScale="1" pageWidth="827" pageHeight="1169" math="0" shadow="0">
            <root>
                <mxCell id="0"/>
                <mxCell id="1" parent="0"/>
                <mxCell id="YLfCUfWM1Qpkaefh2_Oc-14" value="" style="group" parent="1" connectable="0" vertex="1">
                    <mxGeometry x="-777" y="150" width="300" height="160" as="geometry"/>
                </mxCell>
                <mxCell id="YLfCUfWM1Qpkaefh2_Oc-11" value="&lt;p style=&quot;margin:0px;margin-top:6px;text-align:center;&quot;&gt;&lt;b&gt;MiniTwit.Shared&lt;/b&gt;&lt;/p&gt;&lt;hr&gt;&lt;p style=&quot;margin:0px;margin-left:8px;&quot;&gt;&lt;br&gt;&lt;/p&gt;" style="align=left;overflow=fill;html=1;dropTarget=0;whiteSpace=wrap;" parent="YLfCUfWM1Qpkaefh2_Oc-14" vertex="1">
                    <mxGeometry width="300" height="160" as="geometry"/>
                </mxCell>
                <mxCell id="YLfCUfWM1Qpkaefh2_Oc-12" value="" style="shape=component;jettyWidth=8;jettyHeight=4;" parent="YLfCUfWM1Qpkaefh2_Oc-11" vertex="1">
                    <mxGeometry x="1" width="20" height="20" relative="1" as="geometry">
                        <mxPoint x="-24" y="4" as="offset"/>
                    </mxGeometry>
                </mxCell>
                <mxCell id="YLfCUfWM1Qpkaefh2_Oc-13" value="&lt;span style=&quot;font-weight: bold;&quot;&gt;:&lt;/span&gt;&lt;b style=&quot;&quot;&gt;TwitContext&lt;/b&gt;" style="html=1;whiteSpace=wrap;" parent="YLfCUfWM1Qpkaefh2_Oc-14" vertex="1">
                    <mxGeometry x="25" y="50" width="250" height="90" as="geometry"/>
                </mxCell>
                <mxCell id="YLfCUfWM1Qpkaefh2_Oc-16" value="" style="group;recursiveResize=0;" parent="1" connectable="0" vertex="1">
                    <mxGeometry x="-330" y="60" width="260" height="90" as="geometry"/>
                </mxCell>
                <mxCell id="YLfCUfWM1Qpkaefh2_Oc-7" value="&lt;p style=&quot;margin:0px;margin-top:6px;text-align:center;&quot;&gt;&amp;lt;&amp;lt;subsystem&amp;gt;&amp;gt;&lt;b&gt;&amp;nbsp;SlimTwit&lt;/b&gt;&lt;/p&gt;&lt;hr&gt;&lt;p style=&quot;margin:0px;margin-left:8px;&quot;&gt;&lt;br&gt;&lt;/p&gt;" style="align=left;overflow=fill;html=1;dropTarget=0;whiteSpace=wrap;" parent="YLfCUfWM1Qpkaefh2_Oc-16" vertex="1">
                    <mxGeometry width="260" height="90" as="geometry"/>
                </mxCell>
                <mxCell id="YLfCUfWM1Qpkaefh2_Oc-8" value="" style="shape=component;jettyWidth=8;jettyHeight=4;" parent="YLfCUfWM1Qpkaefh2_Oc-7" vertex="1">
                    <mxGeometry x="1" width="20" height="20" relative="1" as="geometry">
                        <mxPoint x="-24" y="4" as="offset"/>
                    </mxGeometry>
                </mxCell>
                <mxCell id="YLfCUfWM1Qpkaefh2_Oc-10" value="&lt;span style=&quot;font-weight: bold;&quot;&gt;:&lt;/span&gt;&lt;b&gt;SlimTwitController&lt;/b&gt;" style="html=1;whiteSpace=wrap;" parent="YLfCUfWM1Qpkaefh2_Oc-16" vertex="1">
                    <mxGeometry x="22.5" y="40" width="217.5" height="40" as="geometry"/>
                </mxCell>
                <mxCell id="YLfCUfWM1Qpkaefh2_Oc-19" value="" style="endArrow=none;html=1;edgeStyle=orthogonalEdgeStyle;rounded=0;exitX=1;exitY=0.5;exitDx=0;exitDy=0;startArrow=openThin;startFill=0;entryX=0;entryY=0.5;entryDx=0;entryDy=0;" parent="1" source="YLfCUfWM1Qpkaefh2_Oc-13" target="YLfCUfWM1Qpkaefh2_Oc-10" edge="1">
                    <mxGeometry relative="1" as="geometry">
                        <mxPoint x="-227" y="250" as="sourcePoint"/>
                        <mxPoint x="-370" y="20" as="targetPoint"/>
                        <Array as="points">
                            <mxPoint x="-420" y="245"/>
                            <mxPoint x="-420" y="120"/>
                        </Array>
                    </mxGeometry>
                </mxCell>
                <mxCell id="YLfCUfWM1Qpkaefh2_Oc-20" value="server" style="edgeLabel;resizable=0;html=1;align=left;verticalAlign=bottom;" parent="YLfCUfWM1Qpkaefh2_Oc-19" connectable="0" vertex="1">
                    <mxGeometry x="-1" relative="1" as="geometry">
                        <mxPoint x="-68" y="25" as="offset"/>
                    </mxGeometry>
                </mxCell>
                <mxCell id="YLfCUfWM1Qpkaefh2_Oc-21" value="client" style="edgeLabel;resizable=0;html=1;align=right;verticalAlign=bottom;" parent="YLfCUfWM1Qpkaefh2_Oc-19" connectable="0" vertex="1">
                    <mxGeometry x="1" relative="1" as="geometry">
                        <mxPoint x="-43" y="20" as="offset"/>
                    </mxGeometry>
                </mxCell>
                <mxCell id="YLfCUfWM1Qpkaefh2_Oc-26" value="" style="group" parent="1" connectable="0" vertex="1">
                    <mxGeometry x="-790" y="430" width="250" height="145" as="geometry"/>
                </mxCell>
                <mxCell id="YLfCUfWM1Qpkaefh2_Oc-27" value="&lt;p style=&quot;margin:0px;margin-top:6px;text-align:center;&quot;&gt;&amp;lt;&amp;lt;subsystem&amp;gt;&amp;gt; &lt;b&gt;Postgresql&lt;/b&gt;&lt;/p&gt;&lt;hr&gt;&lt;p style=&quot;margin:0px;margin-left:8px;&quot;&gt;&lt;br&gt;&lt;/p&gt;" style="align=left;overflow=fill;html=1;dropTarget=0;whiteSpace=wrap;" parent="YLfCUfWM1Qpkaefh2_Oc-26" vertex="1">
                    <mxGeometry width="250" height="145" as="geometry"/>
                </mxCell>
                <mxCell id="YLfCUfWM1Qpkaefh2_Oc-28" value="" style="shape=component;jettyWidth=8;jettyHeight=4;" parent="YLfCUfWM1Qpkaefh2_Oc-27" vertex="1">
                    <mxGeometry x="1" width="20" height="20" relative="1" as="geometry">
                        <mxPoint x="-24" y="4" as="offset"/>
                    </mxGeometry>
                </mxCell>
                <mxCell id="YLfCUfWM1Qpkaefh2_Oc-29" value="Postgresql data" style="html=1;whiteSpace=wrap;" parent="YLfCUfWM1Qpkaefh2_Oc-26" vertex="1">
                    <mxGeometry x="20.833333333333336" y="45.3125" width="208.33333333333334" height="81.5625" as="geometry"/>
                </mxCell>
                <mxCell id="YLfCUfWM1Qpkaefh2_Oc-41" value="" style="group" parent="1" connectable="0" vertex="1">
                    <mxGeometry x="-330" y="188" width="260" height="90" as="geometry"/>
                </mxCell>
                <mxCell id="YLfCUfWM1Qpkaefh2_Oc-42" value="&lt;p style=&quot;margin:0px;margin-top:6px;text-align:center;&quot;&gt;&amp;lt;&amp;lt;subsystem&amp;gt;&amp;gt;&lt;b&gt;&amp;nbsp;MiniTwit.Server&lt;/b&gt;&lt;/p&gt;&lt;hr&gt;&lt;p style=&quot;margin:0px;margin-left:8px;&quot;&gt;&lt;br&gt;&lt;/p&gt;" style="align=left;overflow=fill;html=1;dropTarget=0;whiteSpace=wrap;" parent="YLfCUfWM1Qpkaefh2_Oc-41" vertex="1">
                    <mxGeometry width="260" height="90" as="geometry"/>
                </mxCell>
                <mxCell id="YLfCUfWM1Qpkaefh2_Oc-43" value="" style="shape=component;jettyWidth=8;jettyHeight=4;" parent="YLfCUfWM1Qpkaefh2_Oc-42" vertex="1">
                    <mxGeometry x="1" width="20" height="20" relative="1" as="geometry">
                        <mxPoint x="-24" y="4" as="offset"/>
                    </mxGeometry>
                </mxCell>
                <mxCell id="YLfCUfWM1Qpkaefh2_Oc-44" value="&lt;span style=&quot;font-weight: bold;&quot;&gt;:MiniTwit&lt;/span&gt;&lt;b&gt;Controller&lt;/b&gt;" style="html=1;whiteSpace=wrap;" parent="YLfCUfWM1Qpkaefh2_Oc-41" vertex="1">
                    <mxGeometry x="21.666666666666668" y="32" width="216.66666666666669" height="50.625" as="geometry"/>
                </mxCell>
                <mxCell id="YLfCUfWM1Qpkaefh2_Oc-45" value="" style="group" parent="1" connectable="0" vertex="1">
                    <mxGeometry x="-370" y="430" width="312.63" height="150" as="geometry"/>
                </mxCell>
                <mxCell id="YLfCUfWM1Qpkaefh2_Oc-46" value="&lt;p style=&quot;margin:0px;margin-top:6px;text-align:center;&quot;&gt;&amp;lt;&amp;lt;subsystem&amp;gt;&amp;gt;&lt;b&gt;&amp;nbsp;MiniTwit.Client&lt;/b&gt;&lt;/p&gt;&lt;hr&gt;&lt;p style=&quot;margin:0px;margin-left:8px;&quot;&gt;&lt;br&gt;&lt;/p&gt;" style="align=left;overflow=fill;html=1;dropTarget=0;whiteSpace=wrap;" parent="YLfCUfWM1Qpkaefh2_Oc-45" vertex="1">
                    <mxGeometry width="312.63" height="150" as="geometry"/>
                </mxCell>
                <mxCell id="YLfCUfWM1Qpkaefh2_Oc-47" value="" style="shape=component;jettyWidth=8;jettyHeight=4;" parent="YLfCUfWM1Qpkaefh2_Oc-46" vertex="1">
                    <mxGeometry x="1" width="20" height="20" relative="1" as="geometry">
                        <mxPoint x="-24" y="4" as="offset"/>
                    </mxGeometry>
                </mxCell>
                <mxCell id="YLfCUfWM1Qpkaefh2_Oc-48" value="&lt;span style=&quot;font-weight: bold;&quot;&gt;:BlazorApplication&lt;/span&gt;" style="html=1;whiteSpace=wrap;" parent="YLfCUfWM1Qpkaefh2_Oc-45" vertex="1">
                    <mxGeometry x="31.26299999999999" y="90.78571428571428" width="260.525" height="48.21428571428571" as="geometry"/>
                </mxCell>
                <mxCell id="YLfCUfWM1Qpkaefh2_Oc-49" value="&lt;span style=&quot;font-weight: bold;&quot;&gt;:HttpClient&lt;/span&gt;" style="html=1;whiteSpace=wrap;" parent="YLfCUfWM1Qpkaefh2_Oc-45" vertex="1">
                    <mxGeometry x="31.26299999999999" y="31.714285714285708" width="260.525" height="48.21428571428571" as="geometry"/>
                </mxCell>
                <mxCell id="YLfCUfWM1Qpkaefh2_Oc-53" value="" style="endArrow=none;html=1;edgeStyle=orthogonalEdgeStyle;rounded=0;exitX=1;exitY=0.5;exitDx=0;exitDy=0;entryX=0;entryY=0.5;entryDx=0;entryDy=0;" parent="1" source="YLfCUfWM1Qpkaefh2_Oc-44" target="YLfCUfWM1Qpkaefh2_Oc-49" edge="1">
                    <mxGeometry relative="1" as="geometry">
                        <mxPoint x="-304" y="390" as="sourcePoint"/>
                        <mxPoint x="-327" y="210" as="targetPoint"/>
                    </mxGeometry>
                </mxCell>
                <mxCell id="YLfCUfWM1Qpkaefh2_Oc-54" value="server" style="edgeLabel;resizable=0;html=1;align=left;verticalAlign=bottom;" parent="YLfCUfWM1Qpkaefh2_Oc-53" connectable="0" vertex="1">
                    <mxGeometry x="-1" relative="1" as="geometry">
                        <mxPoint x="12" y="55" as="offset"/>
                    </mxGeometry>
                </mxCell>
                <mxCell id="YLfCUfWM1Qpkaefh2_Oc-55" value="client" style="edgeLabel;resizable=0;html=1;align=right;verticalAlign=bottom;" parent="YLfCUfWM1Qpkaefh2_Oc-53" connectable="0" vertex="1">
                    <mxGeometry x="1" relative="1" as="geometry">
                        <mxPoint x="18" y="-66" as="offset"/>
                    </mxGeometry>
                </mxCell>
                <mxCell id="YLfCUfWM1Qpkaefh2_Oc-23" value="" style="endArrow=none;html=1;edgeStyle=orthogonalEdgeStyle;rounded=0;entryX=0;entryY=0.5;entryDx=0;entryDy=0;startArrow=openThin;startFill=0;exitX=1;exitY=0.5;exitDx=0;exitDy=0;" parent="1" source="YLfCUfWM1Qpkaefh2_Oc-13" target="YLfCUfWM1Qpkaefh2_Oc-44" edge="1">
                    <mxGeometry relative="1" as="geometry">
                        <mxPoint x="-330" y="140" as="sourcePoint"/>
                        <mxPoint x="-652" y="-10" as="targetPoint"/>
                    </mxGeometry>
                </mxCell>
                <mxCell id="YLfCUfWM1Qpkaefh2_Oc-24" value="server" style="edgeLabel;resizable=0;html=1;align=left;verticalAlign=bottom;" parent="YLfCUfWM1Qpkaefh2_Oc-23" connectable="0" vertex="1">
                    <mxGeometry x="-1" relative="1" as="geometry">
                        <mxPoint x="22" y="15" as="offset"/>
                    </mxGeometry>
                </mxCell>
                <mxCell id="YLfCUfWM1Qpkaefh2_Oc-25" value="client" style="edgeLabel;resizable=0;html=1;align=right;verticalAlign=bottom;" parent="YLfCUfWM1Qpkaefh2_Oc-23" connectable="0" vertex="1">
                    <mxGeometry x="1" relative="1" as="geometry">
                        <mxPoint x="-32" y="25" as="offset"/>
                    </mxGeometry>
                </mxCell>
                <mxCell id="2tYVVA4Y3Mxo7JcDgJhz-2" value="" style="endArrow=none;html=1;edgeStyle=orthogonalEdgeStyle;rounded=0;entryX=0.5;entryY=1;entryDx=0;entryDy=0;startArrow=openThin;startFill=0;exitX=1;exitY=0.5;exitDx=0;exitDy=0;" edge="1" parent="1" source="YLfCUfWM1Qpkaefh2_Oc-29" target="YLfCUfWM1Qpkaefh2_Oc-13">
                    <mxGeometry relative="1" as="geometry">
                        <mxPoint x="-590" y="350" as="sourcePoint"/>
                        <mxPoint x="-396" y="350" as="targetPoint"/>
                        <Array as="points">
                            <mxPoint x="-470" y="516"/>
                            <mxPoint x="-470" y="383"/>
                            <mxPoint x="-627" y="383"/>
                        </Array>
                    </mxGeometry>
                </mxCell>
                <mxCell id="2tYVVA4Y3Mxo7JcDgJhz-3" value="Destination" style="edgeLabel;resizable=0;html=1;align=left;verticalAlign=bottom;" connectable="0" vertex="1" parent="2tYVVA4Y3Mxo7JcDgJhz-2">
                    <mxGeometry x="-1" relative="1" as="geometry">
                        <mxPoint x="22" y="15" as="offset"/>
                    </mxGeometry>
                </mxCell>
                <mxCell id="2tYVVA4Y3Mxo7JcDgJhz-4" value="Manage Data" style="edgeLabel;resizable=0;html=1;align=right;verticalAlign=bottom;" connectable="0" vertex="1" parent="2tYVVA4Y3Mxo7JcDgJhz-2">
                    <mxGeometry x="1" relative="1" as="geometry">
                        <mxPoint x="27" y="40" as="offset"/>
                    </mxGeometry>
                </mxCell>
            </root>
        </mxGraphModel>
    </diagram>
</mxfile>